%TF.GenerationSoftware,KiCad,Pcbnew,8.0.5*%
%TF.CreationDate,2024-09-20T11:05:51+10:00*%
%TF.ProjectId,relay_to_rs485,72656c61-795f-4746-9f5f-72733438352e,rev?*%
%TF.SameCoordinates,Original*%
%TF.FileFunction,Copper,L1,Top*%
%TF.FilePolarity,Positive*%
%FSLAX46Y46*%
G04 Gerber Fmt 4.6, Leading zero omitted, Abs format (unit mm)*
G04 Created by KiCad (PCBNEW 8.0.5) date 2024-09-20 11:05:51*
%MOMM*%
%LPD*%
G01*
G04 APERTURE LIST*
G04 Aperture macros list*
%AMRoundRect*
0 Rectangle with rounded corners*
0 $1 Rounding radius*
0 $2 $3 $4 $5 $6 $7 $8 $9 X,Y pos of 4 corners*
0 Add a 4 corners polygon primitive as box body*
4,1,4,$2,$3,$4,$5,$6,$7,$8,$9,$2,$3,0*
0 Add four circle primitives for the rounded corners*
1,1,$1+$1,$2,$3*
1,1,$1+$1,$4,$5*
1,1,$1+$1,$6,$7*
1,1,$1+$1,$8,$9*
0 Add four rect primitives between the rounded corners*
20,1,$1+$1,$2,$3,$4,$5,0*
20,1,$1+$1,$4,$5,$6,$7,0*
20,1,$1+$1,$6,$7,$8,$9,0*
20,1,$1+$1,$8,$9,$2,$3,0*%
%AMFreePoly0*
4,1,19,0.500000,-0.750000,0.000000,-0.750000,0.000000,-0.744911,-0.071157,-0.744911,-0.207708,-0.704816,-0.327430,-0.627875,-0.420627,-0.520320,-0.479746,-0.390866,-0.500000,-0.250000,-0.500000,0.250000,-0.479746,0.390866,-0.420627,0.520320,-0.327430,0.627875,-0.207708,0.704816,-0.071157,0.744911,0.000000,0.744911,0.000000,0.750000,0.500000,0.750000,0.500000,-0.750000,0.500000,-0.750000,
$1*%
%AMFreePoly1*
4,1,19,0.000000,0.744911,0.071157,0.744911,0.207708,0.704816,0.327430,0.627875,0.420627,0.520320,0.479746,0.390866,0.500000,0.250000,0.500000,-0.250000,0.479746,-0.390866,0.420627,-0.520320,0.327430,-0.627875,0.207708,-0.704816,0.071157,-0.744911,0.000000,-0.744911,0.000000,-0.750000,-0.500000,-0.750000,-0.500000,0.750000,0.000000,0.750000,0.000000,0.744911,0.000000,0.744911,
$1*%
G04 Aperture macros list end*
%TA.AperFunction,SMDPad,CuDef*%
%ADD10RoundRect,0.225000X0.375000X-0.225000X0.375000X0.225000X-0.375000X0.225000X-0.375000X-0.225000X0*%
%TD*%
%TA.AperFunction,SMDPad,CuDef*%
%ADD11R,1.500000X1.500000*%
%TD*%
%TA.AperFunction,SMDPad,CuDef*%
%ADD12FreePoly0,0.000000*%
%TD*%
%TA.AperFunction,SMDPad,CuDef*%
%ADD13FreePoly1,0.000000*%
%TD*%
%TA.AperFunction,SMDPad,CuDef*%
%ADD14RoundRect,0.250000X-0.475000X0.337500X-0.475000X-0.337500X0.475000X-0.337500X0.475000X0.337500X0*%
%TD*%
%TA.AperFunction,SMDPad,CuDef*%
%ADD15RoundRect,0.250000X0.350000X0.450000X-0.350000X0.450000X-0.350000X-0.450000X0.350000X-0.450000X0*%
%TD*%
%TA.AperFunction,ComponentPad*%
%ADD16C,5.700000*%
%TD*%
%TA.AperFunction,SMDPad,CuDef*%
%ADD17RoundRect,0.250000X0.450000X-0.350000X0.450000X0.350000X-0.450000X0.350000X-0.450000X-0.350000X0*%
%TD*%
%TA.AperFunction,SMDPad,CuDef*%
%ADD18RoundRect,0.375000X-0.625000X-0.375000X0.625000X-0.375000X0.625000X0.375000X-0.625000X0.375000X0*%
%TD*%
%TA.AperFunction,SMDPad,CuDef*%
%ADD19RoundRect,0.500000X-0.500000X-1.400000X0.500000X-1.400000X0.500000X1.400000X-0.500000X1.400000X0*%
%TD*%
%TA.AperFunction,ComponentPad*%
%ADD20R,2.000000X2.000000*%
%TD*%
%TA.AperFunction,ComponentPad*%
%ADD21C,2.000000*%
%TD*%
%TA.AperFunction,SMDPad,CuDef*%
%ADD22RoundRect,0.200000X0.250000X0.200000X-0.250000X0.200000X-0.250000X-0.200000X0.250000X-0.200000X0*%
%TD*%
%TA.AperFunction,SMDPad,CuDef*%
%ADD23RoundRect,0.250000X0.475000X-0.337500X0.475000X0.337500X-0.475000X0.337500X-0.475000X-0.337500X0*%
%TD*%
%TA.AperFunction,SMDPad,CuDef*%
%ADD24FreePoly0,270.000000*%
%TD*%
%TA.AperFunction,SMDPad,CuDef*%
%ADD25FreePoly1,270.000000*%
%TD*%
%TA.AperFunction,SMDPad,CuDef*%
%ADD26RoundRect,0.150000X-0.825000X-0.150000X0.825000X-0.150000X0.825000X0.150000X-0.825000X0.150000X0*%
%TD*%
%TA.AperFunction,SMDPad,CuDef*%
%ADD27RoundRect,0.250000X-0.450000X0.325000X-0.450000X-0.325000X0.450000X-0.325000X0.450000X0.325000X0*%
%TD*%
%TA.AperFunction,SMDPad,CuDef*%
%ADD28RoundRect,0.250000X-0.350000X0.275000X-0.350000X-0.275000X0.350000X-0.275000X0.350000X0.275000X0*%
%TD*%
%TA.AperFunction,SMDPad,CuDef*%
%ADD29RoundRect,0.250000X-0.337500X-0.475000X0.337500X-0.475000X0.337500X0.475000X-0.337500X0.475000X0*%
%TD*%
%TA.AperFunction,HeatsinkPad*%
%ADD30C,0.600000*%
%TD*%
%TA.AperFunction,SMDPad,CuDef*%
%ADD31R,3.900000X3.900000*%
%TD*%
%TA.AperFunction,SMDPad,CuDef*%
%ADD32R,1.500000X0.900000*%
%TD*%
%TA.AperFunction,SMDPad,CuDef*%
%ADD33R,0.900000X1.500000*%
%TD*%
%TA.AperFunction,ViaPad*%
%ADD34C,0.600000*%
%TD*%
%TA.AperFunction,Conductor*%
%ADD35C,0.200000*%
%TD*%
%TA.AperFunction,Conductor*%
%ADD36C,0.508000*%
%TD*%
%TA.AperFunction,Conductor*%
%ADD37C,0.635000*%
%TD*%
G04 APERTURE END LIST*
D10*
%TO.P,DZ1,1,K*%
%TO.N,VCC*%
X102650000Y-89250000D03*
%TO.P,DZ1,2,A*%
%TO.N,GND*%
X102650000Y-85950000D03*
%TD*%
D11*
%TO.P,TP12,1,1*%
%TO.N,Net-(U2-DI)*%
X151250000Y-98250000D03*
%TD*%
%TO.P,TP9_A,1,1*%
%TO.N,/A+*%
X152850000Y-108975000D03*
%TD*%
D12*
%TO.P,JP1,1,A*%
%TO.N,Net-(JP1-A)*%
X123950000Y-90150000D03*
D13*
%TO.P,JP1,2,B*%
%TO.N,GND*%
X125250000Y-90150000D03*
%TD*%
D14*
%TO.P,C2,1*%
%TO.N,+3V3*%
X118500000Y-81962500D03*
%TO.P,C2,2*%
%TO.N,GND*%
X118500000Y-84037500D03*
%TD*%
%TO.P,C9,1*%
%TO.N,+3V3*%
X126000000Y-82000000D03*
%TO.P,C9,2*%
%TO.N,GND*%
X126000000Y-84075000D03*
%TD*%
D11*
%TO.P,TP15_VCC1,1,1*%
%TO.N,VCC*%
X114825000Y-95200000D03*
%TD*%
%TO.P,TP16_TX,1,1*%
%TO.N,/TX*%
X159450000Y-83500000D03*
%TD*%
D15*
%TO.P,R6,2*%
%TO.N,Net-(U1-IO38)*%
X149600000Y-95700000D03*
%TO.P,R6,1*%
%TO.N,Net-(U2-DI)*%
X151600000Y-95700000D03*
%TD*%
D16*
%TO.P,,1*%
%TO.N,N/C*%
X175750000Y-66000000D03*
%TD*%
D17*
%TO.P,R1,1*%
%TO.N,/A+*%
X160400000Y-106800000D03*
%TO.P,R1,2*%
%TO.N,/B-*%
X160400000Y-104800000D03*
%TD*%
D11*
%TO.P,TP3_C1,1,1*%
%TO.N,/InputC*%
X107750000Y-114000000D03*
%TD*%
D18*
%TO.P,U3,3,VI*%
%TO.N,VCC*%
X114850000Y-92300000D03*
D19*
%TO.P,U3,2,VO*%
%TO.N,+3V3*%
X121150000Y-90000000D03*
D18*
%TO.N,N/C*%
X114850000Y-90000000D03*
%TO.P,U3,1,GND*%
%TO.N,GND*%
X114850000Y-87700000D03*
%TD*%
D11*
%TO.P,TP2_B1,1,1*%
%TO.N,/InputB*%
X105000000Y-114000000D03*
%TD*%
D20*
%TO.P,J3,1,Pin_1*%
%TO.N,GND*%
X125720000Y-108500000D03*
D21*
%TO.P,J3,2,Pin_2*%
X128260000Y-108500000D03*
%TO.P,J3,3,Pin_3*%
X130800000Y-108500000D03*
%TO.P,J3,4,Pin_4*%
X133340000Y-108500000D03*
%TO.P,J3,5,Pin_5*%
X135880000Y-108500000D03*
%TO.P,J3,6,Pin_6*%
X138420000Y-108500000D03*
%TO.P,J3,7,Pin_7*%
X140960000Y-108500000D03*
%TO.P,J3,8,Pin_8*%
X143500000Y-108500000D03*
%TD*%
D22*
%TO.P,D1,1,A1*%
%TO.N,/A+*%
X153000000Y-106700000D03*
%TO.P,D1,2,A2*%
%TO.N,/B-*%
X153000000Y-104800000D03*
%TO.P,D1,3,Com*%
%TO.N,GND*%
X151000000Y-105750000D03*
%TD*%
D16*
%TO.P,,1*%
%TO.N,N/C*%
X94500000Y-112750000D03*
%TD*%
D14*
%TO.P,C1,1*%
%TO.N,+3V3*%
X121000000Y-82000000D03*
%TO.P,C1,2*%
%TO.N,GND*%
X121000000Y-84075000D03*
%TD*%
D23*
%TO.P,C4,2*%
%TO.N,GND*%
X109850000Y-90187500D03*
%TO.P,C4,1*%
%TO.N,VCC*%
X109850000Y-92262500D03*
%TD*%
D16*
%TO.P,REF\u002A\u002A,1*%
%TO.N,N/C*%
X94750000Y-65500000D03*
%TD*%
D15*
%TO.P,R7,1*%
%TO.N,/TX*%
X152000000Y-84075000D03*
%TO.P,R7,2*%
%TO.N,Net-(U1-TXD0)*%
X150000000Y-84075000D03*
%TD*%
D24*
%TO.P,JP2,1,A*%
%TO.N,Net-(JP2-A)*%
X146000000Y-100900000D03*
D25*
%TO.P,JP2,2,B*%
%TO.N,GND*%
X146000000Y-102200000D03*
%TD*%
D21*
%TO.P,TP14_GND1,1,1*%
%TO.N,GND*%
X94750000Y-74000000D03*
%TD*%
D11*
%TO.P,TP17_RX,1,1*%
%TO.N,/RX*%
X159450000Y-86075000D03*
%TD*%
D17*
%TO.P,R4,1*%
%TO.N,+3V3*%
X160400000Y-110850000D03*
%TO.P,R4,2*%
%TO.N,/A+*%
X160400000Y-108850000D03*
%TD*%
D16*
%TO.P,,1*%
%TO.N,N/C*%
X175750000Y-113000000D03*
%TD*%
D11*
%TO.P,TP7_G1,1,1*%
%TO.N,/InputG*%
X118750000Y-114000000D03*
%TD*%
D26*
%TO.P,U2,8,VCC*%
%TO.N,+3V3*%
X159642224Y-91880000D03*
%TO.P,U2,7,B*%
%TO.N,/B-*%
X159642224Y-93150000D03*
%TO.P,U2,6,A*%
%TO.N,/A+*%
X159642224Y-94420000D03*
%TO.P,U2,5,GND*%
%TO.N,GND*%
X159642224Y-95690000D03*
%TO.P,U2,4,DI*%
%TO.N,Net-(U2-DI)*%
X154692224Y-95690000D03*
%TO.P,U2,3,DE*%
%TO.N,Net-(U1-IO37)*%
X154692224Y-94420000D03*
%TO.P,U2,2,~{RE}*%
X154692224Y-93150000D03*
%TO.P,U2,1,RO*%
%TO.N,Net-(U1-IO42)*%
X154692224Y-91880000D03*
%TD*%
D11*
%TO.P,TP10_B,1,1*%
%TO.N,/B-*%
X152875000Y-102525000D03*
%TD*%
D27*
%TO.P,R3,2*%
%TO.N,GND*%
X102450000Y-98375000D03*
%TO.P,R3,1*%
%TO.N,Net-(Q1-G)*%
X102450000Y-96325000D03*
%TD*%
D28*
%TO.P,L1,1,1*%
%TO.N,+3V3*%
X123500000Y-82050000D03*
%TO.P,L1,2,2*%
X123500000Y-84350000D03*
%TD*%
D20*
%TO.P,J1,1,Pin_1*%
%TO.N,/InputA*%
X102500000Y-108500000D03*
D21*
%TO.P,J1,2,Pin_2*%
%TO.N,/InputB*%
X105040000Y-108500000D03*
%TO.P,J1,3,Pin_3*%
%TO.N,/InputC*%
X107580000Y-108500000D03*
%TO.P,J1,4,Pin_4*%
%TO.N,/InputD*%
X110120000Y-108500000D03*
%TO.P,J1,5,Pin_5*%
%TO.N,/InputE*%
X112660000Y-108500000D03*
%TO.P,J1,6,Pin_6*%
%TO.N,/InputF*%
X115200000Y-108500000D03*
%TO.P,J1,7,Pin_7*%
%TO.N,/InputG*%
X117740000Y-108500000D03*
%TO.P,J1,8,Pin_8*%
%TO.N,/InputH*%
X120280000Y-108500000D03*
%TD*%
D29*
%TO.P,C3,1*%
%TO.N,+3V3*%
X123962500Y-97000000D03*
%TO.P,C3,2*%
%TO.N,GND*%
X126037500Y-97000000D03*
%TD*%
D20*
%TO.P,J5,1,Pin_1*%
%TO.N,/TX*%
X166000000Y-81920000D03*
D21*
%TO.P,J5,2,Pin_2*%
%TO.N,/RX*%
X166000000Y-84460000D03*
%TO.P,J5,3,Pin_3*%
%TO.N,GND*%
X166000000Y-87000000D03*
%TD*%
D17*
%TO.P,R5,1*%
%TO.N,/B-*%
X160375000Y-102800000D03*
%TO.P,R5,2*%
%TO.N,GND*%
X160375000Y-100800000D03*
%TD*%
D11*
%TO.P,TP8_H1,1,1*%
%TO.N,/InputH*%
X121500000Y-114000000D03*
%TD*%
D14*
%TO.P,C6,1*%
%TO.N,+3V3*%
X120500000Y-95000000D03*
%TO.P,C6,2*%
%TO.N,GND*%
X120500000Y-97075000D03*
%TD*%
D11*
%TO.P,TP4_D1,1,1*%
%TO.N,/InputD*%
X110500000Y-114000000D03*
%TD*%
D17*
%TO.P,R2,1*%
%TO.N,+3V3*%
X124000000Y-95000000D03*
%TO.P,R2,2*%
%TO.N,Net-(JP1-A)*%
X124000000Y-93000000D03*
%TD*%
D11*
%TO.P,TP5_E1,1,1*%
%TO.N,/InputE*%
X113250000Y-114000000D03*
%TD*%
%TO.P,TP6_F1,1,1*%
%TO.N,/InputF*%
X116000000Y-114000000D03*
%TD*%
%TO.P,TP13_3V3,1,1*%
%TO.N,+3V3*%
X115950000Y-82350000D03*
%TD*%
D20*
%TO.P,J2,1,Pin_1*%
%TO.N,/A+*%
X165100000Y-106790000D03*
D21*
%TO.P,J2,2,Pin_2*%
%TO.N,/B-*%
X165100000Y-104250000D03*
%TO.P,J2,3,Pin_3*%
%TO.N,GND*%
X165100000Y-101710000D03*
%TO.P,J2,4,Pin_4*%
%TO.N,unconnected-(J2-Pin_4-Pad4)*%
X165100000Y-99170000D03*
%TD*%
D14*
%TO.P,C8,2*%
%TO.N,GND*%
X162667224Y-94035000D03*
%TO.P,C8,1*%
%TO.N,+3V3*%
X162667224Y-91960000D03*
%TD*%
D11*
%TO.P,TP11,1,1*%
%TO.N,Net-(U1-IO42)*%
X151000000Y-88750000D03*
%TD*%
D22*
%TO.P,Q1,3,D*%
%TO.N,Net-(Q1-D)*%
X100650000Y-93300000D03*
%TO.P,Q1,2,S*%
%TO.N,VCC*%
X102650000Y-92350000D03*
%TO.P,Q1,1,G*%
%TO.N,Net-(Q1-G)*%
X102650000Y-94250000D03*
%TD*%
D14*
%TO.P,C7,1*%
%TO.N,+3V3*%
X165167224Y-91960000D03*
%TO.P,C7,2*%
%TO.N,GND*%
X165167224Y-94035000D03*
%TD*%
D21*
%TO.P,J4,2*%
%TO.N,GND*%
X94675000Y-95900000D03*
D20*
%TO.P,J4,1*%
%TO.N,Net-(Q1-D)*%
X94675000Y-93360000D03*
%TD*%
D23*
%TO.P,C5,1*%
%TO.N,VCC*%
X112125000Y-92287500D03*
%TO.P,C5,2*%
%TO.N,GND*%
X112125000Y-90212500D03*
%TD*%
D11*
%TO.P,TP1_A1,1,1*%
%TO.N,/InputA*%
X102250000Y-114000000D03*
%TD*%
D30*
%TO.P,U1,41,GND*%
%TO.N,GND*%
X137150000Y-88880000D03*
X137150000Y-87480000D03*
X136450000Y-89580000D03*
X136450000Y-88180000D03*
X136450000Y-86780000D03*
X135750000Y-88880000D03*
D31*
X135750000Y-88180000D03*
D30*
X135750000Y-87480000D03*
X135050000Y-89580000D03*
X135050000Y-88180000D03*
X135050000Y-86780000D03*
X134350000Y-88880000D03*
X134350000Y-87480000D03*
D32*
%TO.P,U1,40,GND*%
X146000000Y-80460000D03*
%TO.P,U1,39,IO1*%
%TO.N,unconnected-(U1-IO1-Pad39)*%
X146000000Y-81730000D03*
%TO.P,U1,38,IO2*%
%TO.N,unconnected-(U1-IO2-Pad38)*%
X146000000Y-83000000D03*
%TO.P,U1,37,TXD0*%
%TO.N,Net-(U1-TXD0)*%
X146000000Y-84270000D03*
%TO.P,U1,36,RXD0*%
%TO.N,/RX*%
X146000000Y-85540000D03*
%TO.P,U1,35,IO42*%
%TO.N,Net-(U1-IO42)*%
X146000000Y-86810000D03*
%TO.P,U1,34,IO41*%
%TO.N,unconnected-(U1-IO41-Pad34)*%
X146000000Y-88080000D03*
%TO.P,U1,33,IO40*%
%TO.N,unconnected-(U1-IO40-Pad33)*%
X146000000Y-89350000D03*
%TO.P,U1,32,IO39*%
%TO.N,unconnected-(U1-IO39-Pad32)*%
X146000000Y-90620000D03*
%TO.P,U1,31,IO38*%
%TO.N,Net-(U1-IO38)*%
X146000000Y-91890000D03*
%TO.P,U1,30,IO37*%
%TO.N,Net-(U1-IO37)*%
X146000000Y-93160000D03*
%TO.P,U1,29,IO36*%
%TO.N,unconnected-(U1-IO36-Pad29)*%
X146000000Y-94430000D03*
%TO.P,U1,28,IO35*%
%TO.N,unconnected-(U1-IO35-Pad28)*%
X146000000Y-95700000D03*
%TO.P,U1,27,IO0*%
%TO.N,Net-(JP2-A)*%
X146000000Y-96970000D03*
D33*
%TO.P,U1,26,IO45*%
%TO.N,unconnected-(U1-IO45-Pad26)*%
X144235000Y-98220000D03*
%TO.P,U1,25,IO48*%
%TO.N,unconnected-(U1-IO48-Pad25)*%
X142965000Y-98220000D03*
%TO.P,U1,24,IO47*%
%TO.N,unconnected-(U1-IO47-Pad24)*%
X141695000Y-98220000D03*
%TO.P,U1,23,IO21*%
%TO.N,/InputH*%
X140425000Y-98220000D03*
%TO.P,U1,22,IO14*%
%TO.N,/InputG*%
X139155000Y-98220000D03*
%TO.P,U1,21,IO13*%
%TO.N,/InputF*%
X137885000Y-98220000D03*
%TO.P,U1,20,IO12*%
%TO.N,/InputE*%
X136615000Y-98220000D03*
%TO.P,U1,19,IO11*%
%TO.N,/InputD*%
X135345000Y-98220000D03*
%TO.P,U1,18,IO10*%
%TO.N,/InputC*%
X134075000Y-98220000D03*
%TO.P,U1,17,IO9*%
%TO.N,/InputB*%
X132805000Y-98220000D03*
%TO.P,U1,16,IO46*%
%TO.N,unconnected-(U1-IO46-Pad16)*%
X131535000Y-98220000D03*
%TO.P,U1,15,IO3*%
%TO.N,/InputA*%
X130265000Y-98220000D03*
D32*
%TO.P,U1,14,IO20*%
%TO.N,unconnected-(U1-IO20-Pad14)*%
X128500000Y-96970000D03*
%TO.P,U1,13,IO19*%
%TO.N,unconnected-(U1-IO19-Pad13)*%
X128500000Y-95700000D03*
%TO.P,U1,12,IO8*%
%TO.N,unconnected-(U1-IO8-Pad12)*%
X128500000Y-94430000D03*
%TO.P,U1,11,IO18*%
%TO.N,unconnected-(U1-IO18-Pad11)*%
X128500000Y-93160000D03*
%TO.P,U1,10,IO17*%
%TO.N,unconnected-(U1-IO17-Pad10)*%
X128500000Y-91890000D03*
%TO.P,U1,9,IO16*%
%TO.N,unconnected-(U1-IO16-Pad9)*%
X128500000Y-90620000D03*
%TO.P,U1,8,IO15*%
%TO.N,unconnected-(U1-IO15-Pad8)*%
X128500000Y-89350000D03*
%TO.P,U1,7,IO7*%
%TO.N,unconnected-(U1-IO7-Pad7)*%
X128500000Y-88080000D03*
%TO.P,U1,6,IO6*%
%TO.N,unconnected-(U1-IO6-Pad6)*%
X128500000Y-86810000D03*
%TO.P,U1,5,IO5*%
%TO.N,unconnected-(U1-IO5-Pad5)*%
X128500000Y-85540000D03*
%TO.P,U1,4,IO4*%
%TO.N,unconnected-(U1-IO4-Pad4)*%
X128500000Y-84270000D03*
%TO.P,U1,3,EN*%
%TO.N,Net-(JP1-A)*%
X128500000Y-83000000D03*
%TO.P,U1,2,3V3*%
%TO.N,+3V3*%
X128500000Y-81730000D03*
%TO.P,U1,1,GND*%
%TO.N,GND*%
X128500000Y-80460000D03*
%TD*%
D34*
%TO.N,GND*%
X159675000Y-95725000D03*
X125250000Y-90150000D03*
X102700000Y-85950000D03*
X146050000Y-102300000D03*
X118500000Y-84100000D03*
X115375000Y-87775000D03*
X150975000Y-105750000D03*
X114400000Y-87800000D03*
X112100000Y-90250000D03*
X160350000Y-100800000D03*
X165167224Y-94085000D03*
X162700000Y-94100000D03*
X126000000Y-84100000D03*
X128500000Y-80475000D03*
X120500000Y-97050000D03*
X102450000Y-98450000D03*
X126050000Y-97000000D03*
X109825000Y-90175000D03*
X146025000Y-80500000D03*
X121000000Y-84075000D03*
%TD*%
D35*
%TO.N,Net-(U1-IO37)*%
X151295256Y-94420000D02*
X154692224Y-94420000D01*
X150700000Y-95015256D02*
X151295256Y-94420000D01*
X150700000Y-96700000D02*
X150700000Y-95015256D01*
X150200000Y-97200000D02*
X150700000Y-96700000D01*
X148500000Y-96184744D02*
X149515256Y-97200000D01*
X149515256Y-97200000D02*
X150200000Y-97200000D01*
X148500000Y-94710000D02*
X148500000Y-96184744D01*
X146950000Y-93160000D02*
X148500000Y-94710000D01*
X146000000Y-93160000D02*
X146950000Y-93160000D01*
%TO.N,/B-*%
X153000000Y-104800000D02*
X153000000Y-102650000D01*
X153000000Y-102650000D02*
X152875000Y-102525000D01*
%TO.N,/A+*%
X153000000Y-106700000D02*
X153000000Y-108825000D01*
D36*
%TO.N,+3V3*%
X128500000Y-81730000D02*
X126270000Y-81730000D01*
X126270000Y-81730000D02*
X126000000Y-82000000D01*
X115950000Y-82350000D02*
X118112500Y-82350000D01*
X118112500Y-82350000D02*
X118500000Y-81962500D01*
X115950000Y-84800000D02*
X115950000Y-82350000D01*
X121150000Y-90000000D02*
X115950000Y-84800000D01*
D37*
%TO.N,VCC*%
X102700000Y-92300000D02*
X102650000Y-92350000D01*
X114850000Y-92300000D02*
X102700000Y-92300000D01*
D35*
%TO.N,/InputH*%
X140425000Y-99170000D02*
X140425000Y-98220000D01*
X137745000Y-101850000D02*
X140425000Y-99170000D01*
X126930000Y-101850000D02*
X137745000Y-101850000D01*
X120280000Y-108500000D02*
X126930000Y-101850000D01*
%TO.N,/RX*%
X164920000Y-85540000D02*
X146000000Y-85540000D01*
X166000000Y-84460000D02*
X164920000Y-85540000D01*
%TO.N,/TX*%
X152000000Y-84075000D02*
X163845000Y-84075000D01*
X163845000Y-84075000D02*
X166000000Y-81920000D01*
%TO.N,Net-(U1-TXD0)*%
X146195000Y-84075000D02*
X146000000Y-84270000D01*
X150000000Y-84075000D02*
X146195000Y-84075000D01*
D37*
%TO.N,Net-(Q1-D)*%
X94735000Y-93300000D02*
X94675000Y-93360000D01*
X100650000Y-93300000D02*
X94735000Y-93300000D01*
D35*
%TO.N,Net-(U2-DI)*%
X151610000Y-95690000D02*
X151600000Y-95700000D01*
X154692224Y-95690000D02*
X151610000Y-95690000D01*
D36*
%TO.N,+3V3*%
X167854000Y-78046000D02*
X167854000Y-89273224D01*
X167004000Y-77196000D02*
X167854000Y-78046000D01*
X141276000Y-79224000D02*
X162201000Y-79224000D01*
X162201000Y-79224000D02*
X164229000Y-77196000D01*
X167854000Y-89273224D02*
X165167224Y-91960000D01*
X138770000Y-81730000D02*
X141276000Y-79224000D01*
X128500000Y-81730000D02*
X138770000Y-81730000D01*
X164229000Y-77196000D02*
X167004000Y-77196000D01*
X123650000Y-84350000D02*
X126000000Y-82000000D01*
X123500000Y-84350000D02*
X123650000Y-84350000D01*
D35*
%TO.N,/A+*%
X158780000Y-94420000D02*
X159642224Y-94420000D01*
X151500000Y-101700000D02*
X158780000Y-94420000D01*
X151750000Y-103700000D02*
X151500000Y-103450000D01*
X151500000Y-103450000D02*
X151500000Y-101700000D01*
X151750000Y-105450000D02*
X151750000Y-103700000D01*
X153000000Y-106700000D02*
X151750000Y-105450000D01*
X153100000Y-106800000D02*
X153000000Y-106700000D01*
X160400000Y-106800000D02*
X153100000Y-106800000D01*
%TO.N,/B-*%
X153000000Y-104800000D02*
X160400000Y-104800000D01*
X152850000Y-104650000D02*
X153000000Y-104800000D01*
X160917224Y-96882776D02*
X153000000Y-104800000D01*
X160917224Y-93882244D02*
X160917224Y-96882776D01*
X160184980Y-93150000D02*
X160917224Y-93882244D01*
X159642224Y-93150000D02*
X160184980Y-93150000D01*
%TO.N,Net-(U1-IO38)*%
X146000000Y-91890000D02*
X146950000Y-91890000D01*
%TO.N,Net-(U1-IO37)*%
X154692224Y-94420000D02*
X154692224Y-93150000D01*
%TO.N,Net-(U1-IO42)*%
X149622224Y-86810000D02*
X154692224Y-91880000D01*
X146000000Y-86810000D02*
X149622224Y-86810000D01*
D36*
%TO.N,+3V3*%
X166554000Y-108244000D02*
X163948000Y-110850000D01*
X163948000Y-110850000D02*
X160400000Y-110850000D01*
X166554000Y-93346776D02*
X166554000Y-108244000D01*
X165167224Y-91960000D02*
X166554000Y-93346776D01*
D35*
%TO.N,/B-*%
X164550000Y-104800000D02*
X165100000Y-104250000D01*
X160400000Y-104800000D02*
X164550000Y-104800000D01*
%TO.N,/A+*%
X165090000Y-106800000D02*
X165100000Y-106790000D01*
X160400000Y-106800000D02*
X165090000Y-106800000D01*
X160400000Y-108850000D02*
X160400000Y-106800000D01*
%TO.N,/B-*%
X160375000Y-104775000D02*
X160400000Y-104800000D01*
X160375000Y-102800000D02*
X160375000Y-104775000D01*
%TO.N,Net-(U2-DI)*%
X151250000Y-96050000D02*
X151600000Y-95700000D01*
X151250000Y-98250000D02*
X151250000Y-96050000D01*
X154682224Y-95700000D02*
X154692224Y-95690000D01*
D37*
%TO.N,VCC*%
X102650000Y-89250000D02*
X102650000Y-92350000D01*
D35*
%TO.N,Net-(JP2-A)*%
X146000000Y-96970000D02*
X146000000Y-100900000D01*
D36*
%TO.N,Net-(JP1-A)*%
X127662000Y-83000000D02*
X128500000Y-83000000D01*
X127296000Y-83366000D02*
X127662000Y-83000000D01*
X127296000Y-85354000D02*
X127296000Y-83366000D01*
X123950000Y-88700000D02*
X127296000Y-85354000D01*
X123950000Y-90150000D02*
X123950000Y-88700000D01*
X124000000Y-90200000D02*
X123950000Y-90150000D01*
X124000000Y-93000000D02*
X124000000Y-90200000D01*
D37*
%TO.N,VCC*%
X114800000Y-92350000D02*
X114850000Y-92300000D01*
X102650000Y-89450000D02*
X102450000Y-89250000D01*
%TO.N,Net-(Q1-G)*%
X102650000Y-94250000D02*
X102650000Y-96125000D01*
X102650000Y-96125000D02*
X102450000Y-96325000D01*
%TO.N,VCC*%
X114800000Y-92250000D02*
X114850000Y-92300000D01*
X114850000Y-92300000D02*
X114850000Y-95175000D01*
X114850000Y-95175000D02*
X114825000Y-95200000D01*
D36*
%TO.N,Net-(Q1-D)*%
X95660000Y-93050000D02*
X95250000Y-93460000D01*
D35*
%TO.N,GND*%
X135880000Y-108500000D02*
X140960000Y-108500000D01*
X143500000Y-108500000D02*
X140960000Y-108500000D01*
X125720000Y-108500000D02*
X135880000Y-108500000D01*
D36*
%TO.N,+3V3*%
X120962500Y-81962500D02*
X121000000Y-82000000D01*
X123962500Y-95037500D02*
X124000000Y-95000000D01*
X159704724Y-91817500D02*
X159642224Y-91880000D01*
X120500000Y-95000000D02*
X121962500Y-95000000D01*
X121150000Y-94350000D02*
X120500000Y-95000000D01*
X159722224Y-91960000D02*
X159642224Y-91880000D01*
X120500000Y-90650000D02*
X121150000Y-90000000D01*
X121962500Y-95000000D02*
X123962500Y-97000000D01*
X159642224Y-91880000D02*
X165087224Y-91880000D01*
X123962500Y-97000000D02*
X123962500Y-95037500D01*
X123450000Y-82000000D02*
X123500000Y-82050000D01*
X165087224Y-91880000D02*
X165167224Y-91960000D01*
X118500000Y-81962500D02*
X120962500Y-81962500D01*
X121000000Y-82000000D02*
X123450000Y-82000000D01*
X121150000Y-90000000D02*
X121150000Y-94350000D01*
D35*
%TO.N,/InputE*%
X113250000Y-114000000D02*
X113250000Y-109090000D01*
X113250000Y-109090000D02*
X112660000Y-108500000D01*
X134850000Y-100650000D02*
X136615000Y-98885000D01*
X112660000Y-108500000D02*
X120510000Y-100650000D01*
X136615000Y-98885000D02*
X136615000Y-98220000D01*
X120510000Y-100650000D02*
X134850000Y-100650000D01*
%TO.N,/InputD*%
X135345000Y-99170000D02*
X135345000Y-98220000D01*
X110120000Y-108500000D02*
X118370000Y-100250000D01*
X110500000Y-108880000D02*
X110120000Y-108500000D01*
X134265000Y-100250000D02*
X135345000Y-99170000D01*
X110500000Y-114000000D02*
X110500000Y-108880000D01*
X118370000Y-100250000D02*
X134265000Y-100250000D01*
%TO.N,/InputC*%
X134075000Y-98675000D02*
X134075000Y-98220000D01*
X116410000Y-99670000D02*
X133080000Y-99670000D01*
X107750000Y-108670000D02*
X107580000Y-108500000D01*
X107750000Y-114000000D02*
X107750000Y-108670000D01*
X133080000Y-99670000D02*
X134075000Y-98675000D01*
X107580000Y-108500000D02*
X116410000Y-99670000D01*
%TO.N,/InputB*%
X105040000Y-108500000D02*
X114270000Y-99270000D01*
X105040000Y-113710000D02*
X105040000Y-108500000D01*
X114270000Y-99270000D02*
X132555000Y-99270000D01*
X132805000Y-99020000D02*
X132805000Y-98220000D01*
X105000000Y-114000000D02*
X105000000Y-113750000D01*
X105000000Y-113750000D02*
X105040000Y-113710000D01*
X132555000Y-99270000D02*
X132805000Y-99020000D01*
%TO.N,/InputA*%
X112780000Y-98220000D02*
X130265000Y-98220000D01*
X102250000Y-108750000D02*
X102500000Y-108500000D01*
X102250000Y-114000000D02*
X102250000Y-108750000D01*
X102500000Y-108500000D02*
X112780000Y-98220000D01*
%TO.N,unconnected-(U1-IO5-Pad5)*%
X128950000Y-85960000D02*
X128420000Y-85960000D01*
%TO.N,Net-(U1-IO38)*%
X146125000Y-91765000D02*
X146000000Y-91890000D01*
%TO.N,unconnected-(U1-IO6-Pad6)*%
X127890000Y-87230000D02*
X128420000Y-87230000D01*
%TO.N,Net-(JP2-A)*%
X146430000Y-97400000D02*
X146000000Y-96970000D01*
%TO.N,/InputF*%
X116000000Y-114000000D02*
X116000000Y-109300000D01*
X115200000Y-108500000D02*
X122650000Y-101050000D01*
X122650000Y-101050000D02*
X136005000Y-101050000D01*
X136005000Y-101050000D02*
X137885000Y-99170000D01*
X116000000Y-109300000D02*
X115200000Y-108500000D01*
X137885000Y-99170000D02*
X137885000Y-98220000D01*
%TO.N,/InputG*%
X118750000Y-109510000D02*
X117740000Y-108500000D01*
X136875000Y-101450000D02*
X139155000Y-99170000D01*
X139155000Y-99170000D02*
X139155000Y-98220000D01*
X118750000Y-114000000D02*
X118750000Y-109510000D01*
X117740000Y-108500000D02*
X124790000Y-101450000D01*
X124790000Y-101450000D02*
X136875000Y-101450000D01*
%TO.N,/InputH*%
X121500000Y-114000000D02*
X121500000Y-109720000D01*
X121500000Y-109720000D02*
X120280000Y-108500000D01*
%TO.N,Net-(U1-IO38)*%
X149600000Y-94540000D02*
X149600000Y-95700000D01*
X146950000Y-91890000D02*
X149600000Y-94540000D01*
%TD*%
%TA.AperFunction,Conductor*%
%TO.N,Net-(U1-IO37)*%
G36*
X154333670Y-94302544D02*
G01*
X154659177Y-94408878D01*
X154665977Y-94414705D01*
X154666666Y-94423633D01*
X154660839Y-94430433D01*
X154659177Y-94431122D01*
X153814285Y-94707123D01*
X153805586Y-94706547D01*
X153423858Y-94523186D01*
X153417884Y-94516515D01*
X153417224Y-94512640D01*
X153417224Y-94327359D01*
X153420651Y-94319086D01*
X153423856Y-94316814D01*
X153805586Y-94133451D01*
X153814284Y-94132876D01*
X154333670Y-94302544D01*
G37*
%TD.AperFunction*%
%TD*%
%TA.AperFunction,Conductor*%
%TO.N,Net-(U1-IO37)*%
G36*
X146755705Y-92827587D02*
G01*
X147189151Y-93257793D01*
X147192609Y-93266053D01*
X147189213Y-93274339D01*
X147056898Y-93406654D01*
X147055081Y-93408138D01*
X146756153Y-93605928D01*
X146747363Y-93607636D01*
X146743675Y-93606202D01*
X146018489Y-93170818D01*
X146013160Y-93163622D01*
X146014480Y-93154765D01*
X146019714Y-93150115D01*
X146742668Y-92825218D01*
X146751618Y-92824954D01*
X146755705Y-92827587D01*
G37*
%TD.AperFunction*%
%TD*%
%TA.AperFunction,Conductor*%
%TO.N,/B-*%
G36*
X153101850Y-104003427D02*
G01*
X153103448Y-104005418D01*
X153394443Y-104462687D01*
X153395993Y-104471507D01*
X153392012Y-104477999D01*
X153007440Y-104794869D01*
X152998876Y-104797485D01*
X152992560Y-104794869D01*
X152607987Y-104477999D01*
X152603781Y-104470093D01*
X152605556Y-104462687D01*
X152896552Y-104005418D01*
X152903885Y-104000279D01*
X152906423Y-104000000D01*
X153093577Y-104000000D01*
X153101850Y-104003427D01*
G37*
%TD.AperFunction*%
%TD*%
%TA.AperFunction,Conductor*%
%TO.N,/B-*%
G36*
X152883267Y-102532294D02*
G01*
X152883618Y-102532630D01*
X153618068Y-103268059D01*
X153621489Y-103276334D01*
X153619374Y-103283036D01*
X153103493Y-104020010D01*
X153095941Y-104024822D01*
X153093908Y-104025000D01*
X152905011Y-104025000D01*
X152896738Y-104021573D01*
X152896543Y-104021374D01*
X152192501Y-103282925D01*
X152189272Y-103274572D01*
X152192352Y-103266937D01*
X152866737Y-102532992D01*
X152874857Y-102529219D01*
X152883267Y-102532294D01*
G37*
%TD.AperFunction*%
%TD*%
%TA.AperFunction,Conductor*%
%TO.N,/A+*%
G36*
X153102011Y-107478427D02*
G01*
X153103473Y-107480210D01*
X153594682Y-108217024D01*
X153596420Y-108225809D01*
X153593226Y-108231782D01*
X152858702Y-108967285D01*
X152850431Y-108970717D01*
X152842155Y-108967296D01*
X152841742Y-108966862D01*
X152178665Y-108233134D01*
X152175661Y-108224698D01*
X152178953Y-108217136D01*
X152896554Y-107478547D01*
X152904777Y-107475001D01*
X152904946Y-107475000D01*
X153093738Y-107475000D01*
X153102011Y-107478427D01*
G37*
%TD.AperFunction*%
%TD*%
%TA.AperFunction,Conductor*%
%TO.N,/A+*%
G36*
X153007440Y-106705130D02*
G01*
X153392012Y-107021999D01*
X153396218Y-107029905D01*
X153394443Y-107037311D01*
X153103448Y-107494582D01*
X153096115Y-107499721D01*
X153093577Y-107500000D01*
X152906423Y-107500000D01*
X152898150Y-107496573D01*
X152896552Y-107494582D01*
X152605556Y-107037311D01*
X152604006Y-107028491D01*
X152607985Y-107022001D01*
X152992560Y-106705129D01*
X153001124Y-106702514D01*
X153007440Y-106705130D01*
G37*
%TD.AperFunction*%
%TD*%
%TA.AperFunction,Conductor*%
%TO.N,+3V3*%
G36*
X127755165Y-81283095D02*
G01*
X128484251Y-81719964D01*
X128489586Y-81727156D01*
X128488273Y-81736014D01*
X128484251Y-81740036D01*
X127755165Y-82176904D01*
X127746307Y-82178217D01*
X127744479Y-82177595D01*
X127307028Y-81987061D01*
X127300811Y-81980615D01*
X127300000Y-81976334D01*
X127300000Y-81483665D01*
X127303427Y-81475392D01*
X127307024Y-81472940D01*
X127744480Y-81282403D01*
X127753432Y-81282242D01*
X127755165Y-81283095D01*
G37*
%TD.AperFunction*%
%TD*%
%TA.AperFunction,Conductor*%
%TO.N,+3V3*%
G36*
X117794939Y-81565785D02*
G01*
X118495981Y-81959680D01*
X118501515Y-81966720D01*
X118501828Y-81968196D01*
X118584599Y-82537130D01*
X118582399Y-82545810D01*
X118574705Y-82550392D01*
X118573476Y-82550505D01*
X117209601Y-82603527D01*
X117201200Y-82600424D01*
X117197455Y-82592291D01*
X117197446Y-82591836D01*
X117197446Y-82101189D01*
X117200873Y-82092916D01*
X117201275Y-82092532D01*
X117781356Y-81567311D01*
X117789788Y-81564299D01*
X117794939Y-81565785D01*
G37*
%TD.AperFunction*%
%TD*%
%TA.AperFunction,Conductor*%
%TO.N,+3V3*%
G36*
X116707963Y-81605266D02*
G01*
X117444754Y-82092531D01*
X117449764Y-82099952D01*
X117450000Y-82102289D01*
X117450000Y-82597710D01*
X117446573Y-82605983D01*
X117444754Y-82607469D01*
X116707965Y-83094732D01*
X116699174Y-83096437D01*
X116693243Y-83093252D01*
X115957290Y-82358279D01*
X115953858Y-82350008D01*
X115957279Y-82341732D01*
X115957290Y-82341721D01*
X116199381Y-82099952D01*
X116693244Y-81606746D01*
X116701519Y-81603326D01*
X116707963Y-81605266D01*
G37*
%TD.AperFunction*%
%TD*%
%TA.AperFunction,Conductor*%
%TO.N,+3V3*%
G36*
X115958268Y-82357279D02*
G01*
X115958279Y-82357290D01*
X116693252Y-83093243D01*
X116696673Y-83101519D01*
X116694732Y-83107965D01*
X116207469Y-83844754D01*
X116200047Y-83849764D01*
X116197710Y-83850000D01*
X115702290Y-83850000D01*
X115694017Y-83846573D01*
X115692531Y-83844754D01*
X115494951Y-83545995D01*
X115205266Y-83107963D01*
X115203562Y-83099174D01*
X115206745Y-83093245D01*
X115941721Y-82357289D01*
X115949992Y-82353858D01*
X115958268Y-82357279D01*
G37*
%TD.AperFunction*%
%TD*%
%TA.AperFunction,Conductor*%
%TO.N,+3V3*%
G36*
X120649178Y-88103438D02*
G01*
X120652327Y-88108837D01*
X121148102Y-89990819D01*
X121146896Y-89999692D01*
X121141256Y-90004612D01*
X120160425Y-90409906D01*
X120151470Y-90409899D01*
X120145314Y-90403953D01*
X119962949Y-90004612D01*
X119266663Y-88479887D01*
X119266344Y-88470938D01*
X119269031Y-88466756D01*
X119619135Y-88116652D01*
X119627254Y-88113227D01*
X120640862Y-88100118D01*
X120649178Y-88103438D01*
G37*
%TD.AperFunction*%
%TD*%
%TA.AperFunction,Conductor*%
%TO.N,VCC*%
G36*
X114083486Y-91581430D02*
G01*
X114086986Y-91583694D01*
X114841896Y-92291465D01*
X114845588Y-92299623D01*
X114842429Y-92308002D01*
X114841896Y-92308535D01*
X114086986Y-93016305D01*
X114078607Y-93019464D01*
X114074531Y-93018589D01*
X113107247Y-92620482D01*
X113100901Y-92614165D01*
X113100000Y-92609663D01*
X113100000Y-91990336D01*
X113103427Y-91982063D01*
X113107245Y-91979517D01*
X114074532Y-91581410D01*
X114083486Y-91581430D01*
G37*
%TD.AperFunction*%
%TD*%
%TA.AperFunction,Conductor*%
%TO.N,VCC*%
G36*
X103488934Y-91981900D02*
G01*
X103497009Y-91985769D01*
X103500000Y-91993583D01*
X103500000Y-92608088D01*
X103496573Y-92616361D01*
X103490807Y-92619516D01*
X102988764Y-92729640D01*
X102979949Y-92728066D01*
X102977446Y-92725910D01*
X102882724Y-92617500D01*
X102654721Y-92356548D01*
X102651859Y-92348064D01*
X102653623Y-92342632D01*
X102896338Y-91955834D01*
X102903637Y-91950650D01*
X102906875Y-91950372D01*
X103488934Y-91981900D01*
G37*
%TD.AperFunction*%
%TD*%
%TA.AperFunction,Conductor*%
%TO.N,/InputH*%
G36*
X140430234Y-98234480D02*
G01*
X140434884Y-98239715D01*
X140759780Y-98962667D01*
X140760045Y-98971618D01*
X140757412Y-98975705D01*
X140327206Y-99409151D01*
X140318946Y-99412609D01*
X140310660Y-99409213D01*
X140178345Y-99276898D01*
X140176861Y-99275081D01*
X139979071Y-98976153D01*
X139977363Y-98967363D01*
X139978797Y-98963675D01*
X140414183Y-98238487D01*
X140421377Y-98233160D01*
X140430234Y-98234480D01*
G37*
%TD.AperFunction*%
%TD*%
%TA.AperFunction,Conductor*%
%TO.N,/InputH*%
G36*
X121625611Y-107017994D02*
G01*
X121628573Y-107020146D01*
X121759853Y-107151426D01*
X121763280Y-107159699D01*
X121762707Y-107163316D01*
X121207788Y-108870658D01*
X121201972Y-108877466D01*
X121193044Y-108878168D01*
X121192194Y-108877855D01*
X120283784Y-108502562D01*
X120277446Y-108496235D01*
X120277437Y-108496215D01*
X119902144Y-107587805D01*
X119902153Y-107578851D01*
X119908491Y-107572524D01*
X119909318Y-107572219D01*
X121616684Y-107017292D01*
X121625611Y-107017994D01*
G37*
%TD.AperFunction*%
%TD*%
%TA.AperFunction,Conductor*%
%TO.N,/RX*%
G36*
X146756325Y-85094919D02*
G01*
X147195483Y-85436487D01*
X147199910Y-85444270D01*
X147200000Y-85445721D01*
X147200000Y-85634278D01*
X147196573Y-85642551D01*
X147195483Y-85643513D01*
X146756324Y-85985080D01*
X146747690Y-85987455D01*
X146743127Y-85985881D01*
X146347828Y-85749018D01*
X146015747Y-85550034D01*
X146010413Y-85542844D01*
X146011726Y-85533986D01*
X146015746Y-85529965D01*
X146743127Y-85094117D01*
X146751985Y-85092805D01*
X146756325Y-85094919D01*
G37*
%TD.AperFunction*%
%TD*%
%TA.AperFunction,Conductor*%
%TO.N,/RX*%
G36*
X165086505Y-84081613D02*
G01*
X165993765Y-84457006D01*
X166000100Y-84463335D01*
X166000992Y-84467829D01*
X166000010Y-85449589D01*
X165996575Y-85457858D01*
X165989657Y-85461199D01*
X164460397Y-85638487D01*
X164451785Y-85636036D01*
X164447428Y-85628212D01*
X164447350Y-85626865D01*
X164447350Y-85442570D01*
X164448426Y-85437668D01*
X165071411Y-84087521D01*
X165077988Y-84081447D01*
X165086505Y-84081613D01*
G37*
%TD.AperFunction*%
%TD*%
%TA.AperFunction,Conductor*%
%TO.N,/TX*%
G36*
X165011093Y-81510370D02*
G01*
X165996218Y-81917438D01*
X166002553Y-81923761D01*
X166002562Y-81923782D01*
X166409613Y-82908865D01*
X166409606Y-82917820D01*
X166403268Y-82924146D01*
X166402949Y-82924272D01*
X164370677Y-83695134D01*
X164361727Y-83694864D01*
X164358255Y-83692468D01*
X164227531Y-83561744D01*
X164224104Y-83553471D01*
X164224863Y-83549328D01*
X164995727Y-81517049D01*
X165001865Y-81510530D01*
X165010815Y-81510260D01*
X165011093Y-81510370D01*
G37*
%TD.AperFunction*%
%TD*%
%TA.AperFunction,Conductor*%
%TO.N,Net-(U1-TXD0)*%
G36*
X146755152Y-83821774D02*
G01*
X147192110Y-83972282D01*
X147198816Y-83978216D01*
X147200000Y-83983344D01*
X147200000Y-84169988D01*
X147196573Y-84178261D01*
X147196373Y-84178457D01*
X146755669Y-84598551D01*
X146747316Y-84601779D01*
X146742842Y-84600773D01*
X146737845Y-84598551D01*
X146019577Y-84279150D01*
X146013411Y-84272658D01*
X146013641Y-84263706D01*
X146018316Y-84258425D01*
X146745327Y-83822799D01*
X146754184Y-83821487D01*
X146755152Y-83821774D01*
G37*
%TD.AperFunction*%
%TD*%
%TA.AperFunction,Conductor*%
%TO.N,Net-(Q1-D)*%
G36*
X100401175Y-92903297D02*
G01*
X100404016Y-92906401D01*
X100647097Y-93293781D01*
X100648592Y-93302610D01*
X100647097Y-93306219D01*
X100404016Y-93693598D01*
X100396716Y-93698784D01*
X100392512Y-93698970D01*
X99810106Y-93618889D01*
X99802377Y-93614367D01*
X99800000Y-93607298D01*
X99800000Y-92992701D01*
X99803427Y-92984428D01*
X99810104Y-92981110D01*
X100392513Y-92901029D01*
X100401175Y-92903297D01*
G37*
%TD.AperFunction*%
%TD*%
%TA.AperFunction,Conductor*%
%TO.N,Net-(Q1-D)*%
G36*
X95682880Y-92364905D02*
G01*
X96669483Y-92979066D01*
X96674696Y-92986347D01*
X96675000Y-92988998D01*
X96675000Y-93611472D01*
X96671573Y-93619745D01*
X96670092Y-93620999D01*
X95682936Y-94324775D01*
X95674210Y-94326787D01*
X95668000Y-94323648D01*
X94682535Y-93368274D01*
X94678980Y-93360055D01*
X94682279Y-93351730D01*
X94682323Y-93351684D01*
X95668432Y-92366560D01*
X95676705Y-92363139D01*
X95682880Y-92364905D01*
G37*
%TD.AperFunction*%
%TD*%
%TA.AperFunction,Conductor*%
%TO.N,Net-(U2-DI)*%
G36*
X154333670Y-95572544D02*
G01*
X154659177Y-95678878D01*
X154665977Y-95684705D01*
X154666666Y-95693633D01*
X154660839Y-95700433D01*
X154659177Y-95701122D01*
X153814285Y-95977123D01*
X153805586Y-95976547D01*
X153423858Y-95793186D01*
X153417884Y-95786515D01*
X153417224Y-95782640D01*
X153417224Y-95597359D01*
X153420651Y-95589086D01*
X153423856Y-95586814D01*
X153805586Y-95403451D01*
X153814284Y-95402876D01*
X154333670Y-95572544D01*
G37*
%TD.AperFunction*%
%TD*%
%TA.AperFunction,Conductor*%
%TO.N,+3V3*%
G36*
X165978091Y-90802347D02*
G01*
X166325216Y-91149472D01*
X166328643Y-91157745D01*
X166327483Y-91162825D01*
X165895949Y-92058120D01*
X165889269Y-92064085D01*
X165883731Y-92064619D01*
X165173113Y-91961662D01*
X165165417Y-91957084D01*
X165163975Y-91954545D01*
X164927862Y-91382169D01*
X164927875Y-91373217D01*
X164933039Y-91367458D01*
X165964182Y-90800367D01*
X165973080Y-90799384D01*
X165978091Y-90802347D01*
G37*
%TD.AperFunction*%
%TD*%
%TA.AperFunction,Conductor*%
%TO.N,+3V3*%
G36*
X129255517Y-81282403D02*
G01*
X129692973Y-81472939D01*
X129699189Y-81479384D01*
X129700000Y-81483665D01*
X129700000Y-81976334D01*
X129696573Y-81984607D01*
X129692972Y-81987061D01*
X129255520Y-82177595D01*
X129246567Y-82177757D01*
X129244834Y-82176904D01*
X128897817Y-81968971D01*
X128515747Y-81740034D01*
X128510413Y-81732844D01*
X128511726Y-81723986D01*
X128515746Y-81719965D01*
X129244835Y-81283094D01*
X129253692Y-81281782D01*
X129255517Y-81282403D01*
G37*
%TD.AperFunction*%
%TD*%
%TA.AperFunction,Conductor*%
%TO.N,/A+*%
G36*
X158672546Y-94375927D02*
G01*
X159633075Y-94418852D01*
X159641186Y-94422644D01*
X159644161Y-94429081D01*
X159679201Y-94707888D01*
X159676832Y-94716524D01*
X159669051Y-94720956D01*
X159668557Y-94721007D01*
X158531206Y-94815170D01*
X158522679Y-94812438D01*
X158521968Y-94811783D01*
X158392435Y-94682250D01*
X158389008Y-94673977D01*
X158392215Y-94665930D01*
X158663548Y-94379568D01*
X158671726Y-94375920D01*
X158672546Y-94375927D01*
G37*
%TD.AperFunction*%
%TD*%
%TA.AperFunction,Conductor*%
%TO.N,/A+*%
G36*
X152433686Y-105988095D02*
G01*
X153034637Y-106244160D01*
X153155051Y-106295469D01*
X153161319Y-106301865D01*
X153161284Y-106310687D01*
X153002943Y-106695275D01*
X152996624Y-106701621D01*
X152995016Y-106702158D01*
X152560080Y-106813113D01*
X152551217Y-106811837D01*
X152546267Y-106805975D01*
X152287727Y-106133515D01*
X152287957Y-106124563D01*
X152290372Y-106121046D01*
X152420832Y-105990586D01*
X152429104Y-105987160D01*
X152433686Y-105988095D01*
G37*
%TD.AperFunction*%
%TD*%
%TA.AperFunction,Conductor*%
%TO.N,/A+*%
G36*
X159860967Y-106226085D02*
G01*
X160186118Y-106571636D01*
X160393455Y-106791982D01*
X160396629Y-106800356D01*
X160393455Y-106808018D01*
X159860969Y-107373913D01*
X159852804Y-107377590D01*
X159846158Y-107375760D01*
X159105410Y-106903449D01*
X159100276Y-106896112D01*
X159100000Y-106893584D01*
X159100000Y-106706415D01*
X159103427Y-106698142D01*
X159105406Y-106696552D01*
X159846160Y-106224238D01*
X159854976Y-106222680D01*
X159860967Y-106226085D01*
G37*
%TD.AperFunction*%
%TD*%
%TA.AperFunction,Conductor*%
%TO.N,/A+*%
G36*
X153398979Y-106364206D02*
G01*
X153845287Y-106696491D01*
X153849877Y-106704181D01*
X153850000Y-106705876D01*
X153850000Y-106891722D01*
X153846573Y-106899995D01*
X153842194Y-106902755D01*
X153334124Y-107082097D01*
X153325182Y-107081619D01*
X153321321Y-107078648D01*
X153006502Y-106708813D01*
X153003749Y-106700292D01*
X153007729Y-106692405D01*
X153384312Y-106364763D01*
X153392803Y-106361919D01*
X153398979Y-106364206D01*
G37*
%TD.AperFunction*%
%TD*%
%TA.AperFunction,Conductor*%
%TO.N,/B-*%
G36*
X159860967Y-104226085D02*
G01*
X160186118Y-104571636D01*
X160393455Y-104791982D01*
X160396629Y-104800356D01*
X160393455Y-104808018D01*
X159860969Y-105373913D01*
X159852804Y-105377590D01*
X159846158Y-105375760D01*
X159105410Y-104903449D01*
X159100276Y-104896112D01*
X159100000Y-104893584D01*
X159100000Y-104706415D01*
X159103427Y-104698142D01*
X159105406Y-104696552D01*
X159846160Y-104224238D01*
X159854976Y-104222680D01*
X159860967Y-104226085D01*
G37*
%TD.AperFunction*%
%TD*%
%TA.AperFunction,Conductor*%
%TO.N,/B-*%
G36*
X153334877Y-104419761D02*
G01*
X153843891Y-104696677D01*
X153849521Y-104703640D01*
X153850000Y-104706954D01*
X153850000Y-104893045D01*
X153846573Y-104901318D01*
X153843891Y-104903323D01*
X153334880Y-105180237D01*
X153325975Y-105181180D01*
X153320380Y-105177543D01*
X153311261Y-105166831D01*
X153005454Y-104807582D01*
X153002702Y-104799063D01*
X153005454Y-104792417D01*
X153320381Y-104422455D01*
X153328352Y-104418378D01*
X153334877Y-104419761D01*
G37*
%TD.AperFunction*%
%TD*%
%TA.AperFunction,Conductor*%
%TO.N,/B-*%
G36*
X153579168Y-104090587D02*
G01*
X153709624Y-104221043D01*
X153713051Y-104229316D01*
X153712272Y-104233515D01*
X153453732Y-104905976D01*
X153447564Y-104912468D01*
X153439919Y-104913114D01*
X153004983Y-104802158D01*
X152997814Y-104796792D01*
X152997059Y-104795281D01*
X152838715Y-104410686D01*
X152838734Y-104401733D01*
X152844947Y-104395469D01*
X153566311Y-104088095D01*
X153575263Y-104088006D01*
X153579168Y-104090587D01*
G37*
%TD.AperFunction*%
%TD*%
%TA.AperFunction,Conductor*%
%TO.N,/B-*%
G36*
X159715445Y-93159846D02*
G01*
X160611108Y-93287700D01*
X160618814Y-93292262D01*
X160619952Y-93294115D01*
X160761175Y-93580958D01*
X160761755Y-93589894D01*
X160758951Y-93594399D01*
X160628225Y-93725125D01*
X160619952Y-93728552D01*
X160616937Y-93728157D01*
X159585002Y-93452896D01*
X159577891Y-93447452D01*
X159576600Y-93439033D01*
X159609069Y-93294115D01*
X159639152Y-93159844D01*
X159644305Y-93152522D01*
X159652221Y-93150821D01*
X159715445Y-93159846D01*
G37*
%TD.AperFunction*%
%TD*%
%TA.AperFunction,Conductor*%
%TO.N,Net-(U1-IO38)*%
G36*
X146755705Y-91557587D02*
G01*
X147189151Y-91987793D01*
X147192609Y-91996053D01*
X147189213Y-92004339D01*
X147056898Y-92136654D01*
X147055081Y-92138138D01*
X146756153Y-92335928D01*
X146747363Y-92337636D01*
X146743675Y-92336202D01*
X146018489Y-91900818D01*
X146013160Y-91893622D01*
X146014480Y-91884765D01*
X146019714Y-91880115D01*
X146742668Y-91555218D01*
X146751618Y-91554954D01*
X146755705Y-91557587D01*
G37*
%TD.AperFunction*%
%TD*%
%TA.AperFunction,Conductor*%
%TO.N,Net-(U1-IO37)*%
G36*
X154700482Y-93157285D02*
G01*
X154854073Y-93311389D01*
X154985464Y-93443218D01*
X154988877Y-93451496D01*
X154986912Y-93457967D01*
X154795697Y-93744790D01*
X154788257Y-93749773D01*
X154785962Y-93750000D01*
X154598486Y-93750000D01*
X154590213Y-93746573D01*
X154588751Y-93744790D01*
X154397535Y-93457967D01*
X154395797Y-93449182D01*
X154398983Y-93443218D01*
X154683938Y-93157313D01*
X154692205Y-93153873D01*
X154700482Y-93157285D01*
G37*
%TD.AperFunction*%
%TD*%
%TA.AperFunction,Conductor*%
%TO.N,Net-(U1-IO37)*%
G36*
X154794235Y-93823427D02*
G01*
X154795697Y-93825210D01*
X154986912Y-94112032D01*
X154988650Y-94120817D01*
X154985464Y-94126781D01*
X154700511Y-94412685D01*
X154692243Y-94416126D01*
X154683965Y-94412713D01*
X154683937Y-94412685D01*
X154398983Y-94126781D01*
X154395570Y-94118503D01*
X154397534Y-94112034D01*
X154588751Y-93825210D01*
X154596191Y-93820227D01*
X154598486Y-93820000D01*
X154785962Y-93820000D01*
X154794235Y-93823427D01*
G37*
%TD.AperFunction*%
%TD*%
%TA.AperFunction,Conductor*%
%TO.N,Net-(U1-IO42)*%
G36*
X154258341Y-91300927D02*
G01*
X154806767Y-91575139D01*
X154812635Y-91581904D01*
X154812357Y-91590051D01*
X154697392Y-91869849D01*
X154691078Y-91876199D01*
X154682123Y-91876224D01*
X154682087Y-91876209D01*
X153984125Y-91586705D01*
X153977796Y-91580370D01*
X153977801Y-91571415D01*
X153980331Y-91567630D01*
X154109382Y-91438579D01*
X154244841Y-91303119D01*
X154253113Y-91299693D01*
X154258341Y-91300927D01*
G37*
%TD.AperFunction*%
%TD*%
%TA.AperFunction,Conductor*%
%TO.N,Net-(U1-IO42)*%
G36*
X146756325Y-86364919D02*
G01*
X147195483Y-86706487D01*
X147199910Y-86714270D01*
X147200000Y-86715721D01*
X147200000Y-86904278D01*
X147196573Y-86912551D01*
X147195483Y-86913513D01*
X146756324Y-87255080D01*
X146747690Y-87257455D01*
X146743127Y-87255881D01*
X146347828Y-87019018D01*
X146015747Y-86820034D01*
X146010413Y-86812844D01*
X146011726Y-86803986D01*
X146015746Y-86799965D01*
X146743127Y-86364117D01*
X146751985Y-86362805D01*
X146756325Y-86364919D01*
G37*
%TD.AperFunction*%
%TD*%
%TA.AperFunction,Conductor*%
%TO.N,+3V3*%
G36*
X165892410Y-91857584D02*
G01*
X165895949Y-91861878D01*
X166327483Y-92757174D01*
X166327988Y-92766114D01*
X166325216Y-92770527D01*
X165978091Y-93117652D01*
X165969818Y-93121079D01*
X165964180Y-93119631D01*
X164933040Y-92552541D01*
X164927442Y-92545551D01*
X164927861Y-92537830D01*
X165163975Y-91965453D01*
X165170298Y-91959113D01*
X165173110Y-91958337D01*
X165883732Y-91855379D01*
X165892410Y-91857584D01*
G37*
%TD.AperFunction*%
%TD*%
%TA.AperFunction,Conductor*%
%TO.N,/B-*%
G36*
X160953840Y-104224238D02*
G01*
X161694590Y-104696550D01*
X161699724Y-104703887D01*
X161700000Y-104706415D01*
X161700000Y-104893584D01*
X161696573Y-104901857D01*
X161694590Y-104903449D01*
X160953841Y-105375760D01*
X160945023Y-105377319D01*
X160939031Y-105373913D01*
X160406543Y-104808016D01*
X160403370Y-104799644D01*
X160406543Y-104791983D01*
X160939032Y-104226084D01*
X160947195Y-104222409D01*
X160953840Y-104224238D01*
G37*
%TD.AperFunction*%
%TD*%
%TA.AperFunction,Conductor*%
%TO.N,/B-*%
G36*
X164401171Y-103551163D02*
G01*
X164401355Y-103551343D01*
X165097562Y-104246567D01*
X165100995Y-104254837D01*
X165100995Y-104254857D01*
X165100014Y-105235838D01*
X165096579Y-105244107D01*
X165088302Y-105247526D01*
X165086095Y-105247314D01*
X163297399Y-104901831D01*
X163289926Y-104896897D01*
X163287918Y-104890343D01*
X163287918Y-104704689D01*
X163291156Y-104696609D01*
X164384632Y-103551543D01*
X164392821Y-103547928D01*
X164401171Y-103551163D01*
G37*
%TD.AperFunction*%
%TD*%
%TA.AperFunction,Conductor*%
%TO.N,/A+*%
G36*
X160953840Y-106224238D02*
G01*
X161694590Y-106696550D01*
X161699724Y-106703887D01*
X161700000Y-106706415D01*
X161700000Y-106893584D01*
X161696573Y-106901857D01*
X161694590Y-106903449D01*
X160953841Y-107375760D01*
X160945023Y-107377319D01*
X160939031Y-107373913D01*
X160406543Y-106808016D01*
X160403370Y-106799644D01*
X160406543Y-106791983D01*
X160939032Y-106226084D01*
X160947195Y-106222409D01*
X160953840Y-106224238D01*
G37*
%TD.AperFunction*%
%TD*%
%TA.AperFunction,Conductor*%
%TO.N,/A+*%
G36*
X164107870Y-105802812D02*
G01*
X165092672Y-106781722D01*
X165096124Y-106789985D01*
X165092722Y-106798268D01*
X165092693Y-106798297D01*
X164107805Y-107782202D01*
X164099530Y-107785625D01*
X164091758Y-107782665D01*
X163103922Y-106903490D01*
X163100020Y-106895430D01*
X163100000Y-106894750D01*
X163100000Y-106705191D01*
X163103427Y-106696918D01*
X163103836Y-106696528D01*
X164091773Y-105802434D01*
X164100205Y-105799425D01*
X164107870Y-105802812D01*
G37*
%TD.AperFunction*%
%TD*%
%TA.AperFunction,Conductor*%
%TO.N,/A+*%
G36*
X160407872Y-106806159D02*
G01*
X160992060Y-107337447D01*
X160995875Y-107345549D01*
X160993490Y-107353200D01*
X160503512Y-107995397D01*
X160495769Y-107999896D01*
X160494210Y-108000000D01*
X160305790Y-108000000D01*
X160297517Y-107996573D01*
X160296488Y-107995397D01*
X159806508Y-107353198D01*
X159804215Y-107344544D01*
X159807938Y-107337448D01*
X160392128Y-106806158D01*
X160400554Y-106803128D01*
X160407872Y-106806159D01*
G37*
%TD.AperFunction*%
%TD*%
%TA.AperFunction,Conductor*%
%TO.N,/B-*%
G36*
X160477619Y-103603427D02*
G01*
X160478514Y-103604431D01*
X160981929Y-104239294D01*
X160984384Y-104247905D01*
X160980774Y-104255088D01*
X160407754Y-104793711D01*
X160399379Y-104796880D01*
X160392011Y-104793968D01*
X159796704Y-104269974D01*
X159792758Y-104261936D01*
X159794999Y-104254273D01*
X160271494Y-103604779D01*
X160279151Y-103600136D01*
X160280928Y-103600000D01*
X160469346Y-103600000D01*
X160477619Y-103603427D01*
G37*
%TD.AperFunction*%
%TD*%
%TA.AperFunction,Conductor*%
%TO.N,Net-(U2-DI)*%
G36*
X151352930Y-96753427D02*
G01*
X151353499Y-96754037D01*
X151992869Y-97491772D01*
X151995697Y-97500269D01*
X151992306Y-97507703D01*
X151258279Y-98242709D01*
X151250008Y-98246141D01*
X151241732Y-98242720D01*
X151241721Y-98242709D01*
X150507693Y-97507703D01*
X150504272Y-97499427D01*
X150507129Y-97491773D01*
X151146501Y-96754036D01*
X151154509Y-96750030D01*
X151155343Y-96750000D01*
X151344657Y-96750000D01*
X151352930Y-96753427D01*
G37*
%TD.AperFunction*%
%TD*%
%TA.AperFunction,Conductor*%
%TO.N,VCC*%
G36*
X102965943Y-91553427D02*
G01*
X102969195Y-91559683D01*
X103048825Y-92014704D01*
X103046875Y-92023444D01*
X103044740Y-92025751D01*
X102657440Y-92344869D01*
X102648876Y-92347485D01*
X102642560Y-92344869D01*
X102255259Y-92025751D01*
X102251053Y-92017845D01*
X102251173Y-92014711D01*
X102330805Y-91559682D01*
X102335607Y-91552125D01*
X102342330Y-91550000D01*
X102957670Y-91550000D01*
X102965943Y-91553427D01*
G37*
%TD.AperFunction*%
%TD*%
%TA.AperFunction,Conductor*%
%TO.N,Net-(JP2-A)*%
G36*
X146008264Y-96977282D02*
G01*
X146008282Y-96977300D01*
X146442712Y-97412696D01*
X146446130Y-97420973D01*
X146443665Y-97428143D01*
X146103513Y-97865483D01*
X146095729Y-97869910D01*
X146094278Y-97870000D01*
X145905722Y-97870000D01*
X145897449Y-97866573D01*
X145896487Y-97865483D01*
X145556334Y-97428143D01*
X145553959Y-97419509D01*
X145557286Y-97412697D01*
X145991718Y-96977299D01*
X145999987Y-96973864D01*
X146008264Y-96977282D01*
G37*
%TD.AperFunction*%
%TD*%
%TA.AperFunction,Conductor*%
%TO.N,Net-(JP1-A)*%
G36*
X127755765Y-82715310D02*
G01*
X127923068Y-82779088D01*
X128478215Y-82990719D01*
X128484724Y-82996868D01*
X128484980Y-83005820D01*
X128480069Y-83011683D01*
X127753258Y-83448043D01*
X127746213Y-83449667D01*
X127589873Y-83435949D01*
X127582623Y-83432567D01*
X127236325Y-83086269D01*
X127232898Y-83077996D01*
X127236325Y-83069723D01*
X127237920Y-83068390D01*
X127744929Y-82716630D01*
X127753679Y-82714731D01*
X127755765Y-82715310D01*
G37*
%TD.AperFunction*%
%TD*%
%TA.AperFunction,Conductor*%
%TO.N,Net-(JP1-A)*%
G36*
X124255220Y-91803427D02*
G01*
X124257293Y-91806237D01*
X124595766Y-92447312D01*
X124596599Y-92456228D01*
X124593292Y-92461431D01*
X124007872Y-92993840D01*
X123999446Y-92996871D01*
X123992128Y-92993840D01*
X123406707Y-92461431D01*
X123402892Y-92453329D01*
X123404232Y-92447314D01*
X123742707Y-91806236D01*
X123749600Y-91800521D01*
X123753053Y-91800000D01*
X124246947Y-91800000D01*
X124255220Y-91803427D01*
G37*
%TD.AperFunction*%
%TD*%
%TA.AperFunction,Conductor*%
%TO.N,Net-(Q1-G)*%
G36*
X102966238Y-95178427D02*
G01*
X102969424Y-95184339D01*
X103110281Y-95868078D01*
X103108594Y-95876873D01*
X103105403Y-95880113D01*
X102458680Y-96320094D01*
X102449912Y-96321914D01*
X102443192Y-96318007D01*
X101970850Y-95763459D01*
X101968094Y-95754938D01*
X101969861Y-95749632D01*
X102286731Y-95247523D01*
X102329057Y-95180456D01*
X102336370Y-95175288D01*
X102338951Y-95175000D01*
X102957965Y-95175000D01*
X102966238Y-95178427D01*
G37*
%TD.AperFunction*%
%TD*%
%TA.AperFunction,Conductor*%
%TO.N,Net-(Q1-G)*%
G36*
X102657440Y-94255130D02*
G01*
X103044740Y-94574247D01*
X103048946Y-94582153D01*
X103048825Y-94585294D01*
X102969195Y-95040317D01*
X102964393Y-95047875D01*
X102957670Y-95050000D01*
X102342330Y-95050000D01*
X102334057Y-95046573D01*
X102330805Y-95040317D01*
X102251174Y-94585291D01*
X102253124Y-94576554D01*
X102255255Y-94574250D01*
X102642560Y-94255129D01*
X102651124Y-94252514D01*
X102657440Y-94255130D01*
G37*
%TD.AperFunction*%
%TD*%
%TA.AperFunction,Conductor*%
%TO.N,VCC*%
G36*
X115168814Y-93703427D02*
G01*
X115170821Y-93706113D01*
X115570792Y-94442256D01*
X115570830Y-94442325D01*
X115571768Y-94451231D01*
X115568828Y-94456179D01*
X114833347Y-95192641D01*
X114825076Y-95196073D01*
X114816801Y-95192652D01*
X114093713Y-94456424D01*
X114090361Y-94448122D01*
X114091998Y-94442258D01*
X114529100Y-93705728D01*
X114536270Y-93700363D01*
X114539162Y-93700000D01*
X115160541Y-93700000D01*
X115168814Y-93703427D01*
G37*
%TD.AperFunction*%
%TD*%
%TA.AperFunction,Conductor*%
%TO.N,VCC*%
G36*
X114858138Y-92306879D02*
G01*
X115593538Y-93018880D01*
X115597098Y-93027097D01*
X115595616Y-93032988D01*
X115170848Y-93794002D01*
X115163824Y-93799556D01*
X115160632Y-93800000D01*
X114539368Y-93800000D01*
X114531095Y-93796573D01*
X114529152Y-93794002D01*
X114104383Y-93032988D01*
X114103343Y-93024094D01*
X114106460Y-93018881D01*
X114841862Y-92306878D01*
X114850189Y-92303587D01*
X114858138Y-92306879D01*
G37*
%TD.AperFunction*%
%TD*%
%TA.AperFunction,Conductor*%
%TO.N,GND*%
G36*
X136273125Y-107581479D02*
G01*
X136273948Y-107581858D01*
X137873611Y-108396745D01*
X137879427Y-108403553D01*
X137880000Y-108407170D01*
X137880000Y-108592829D01*
X137876573Y-108601102D01*
X137873611Y-108603254D01*
X136273949Y-109418140D01*
X136265021Y-109418842D01*
X136258213Y-109413026D01*
X136257833Y-109412202D01*
X135880862Y-108504485D01*
X135880854Y-108495535D01*
X136257834Y-107587795D01*
X136264171Y-107581470D01*
X136273125Y-107581479D01*
G37*
%TD.AperFunction*%
%TD*%
%TA.AperFunction,Conductor*%
%TO.N,GND*%
G36*
X138418670Y-108413895D02*
G01*
X138420000Y-108419313D01*
X138420000Y-108591344D01*
X138416573Y-108599617D01*
X138411723Y-108602532D01*
X137617042Y-108845684D01*
X137608128Y-108844828D01*
X137602431Y-108837919D01*
X137603287Y-108829005D01*
X137608201Y-108824126D01*
X138032343Y-108602532D01*
X138402882Y-108408942D01*
X138411802Y-108408149D01*
X138418670Y-108413895D01*
G37*
%TD.AperFunction*%
%TD*%
%TA.AperFunction,Conductor*%
%TO.N,GND*%
G36*
X140581786Y-107586973D02*
G01*
X140582166Y-107587797D01*
X140959136Y-108495513D01*
X140959145Y-108504467D01*
X140959136Y-108504487D01*
X140582166Y-109412202D01*
X140575828Y-109418529D01*
X140566874Y-109418520D01*
X140566050Y-109418140D01*
X138966389Y-108603254D01*
X138960573Y-108596446D01*
X138960000Y-108592829D01*
X138960000Y-108407170D01*
X138963427Y-108398897D01*
X138966387Y-108396746D01*
X140566051Y-107581858D01*
X140574978Y-107581157D01*
X140581786Y-107586973D01*
G37*
%TD.AperFunction*%
%TD*%
%TA.AperFunction,Conductor*%
%TO.N,GND*%
G36*
X143121786Y-107586973D02*
G01*
X143122166Y-107587797D01*
X143499136Y-108495513D01*
X143499145Y-108504467D01*
X143499136Y-108504487D01*
X143122166Y-109412202D01*
X143115828Y-109418529D01*
X143106874Y-109418520D01*
X143106050Y-109418140D01*
X141506389Y-108603254D01*
X141500573Y-108596446D01*
X141500000Y-108592829D01*
X141500000Y-108407170D01*
X141503427Y-108398897D01*
X141506387Y-108396746D01*
X143106051Y-107581858D01*
X143114978Y-107581157D01*
X143121786Y-107586973D01*
G37*
%TD.AperFunction*%
%TD*%
%TA.AperFunction,Conductor*%
%TO.N,GND*%
G36*
X141353125Y-107581479D02*
G01*
X141353948Y-107581858D01*
X142953611Y-108396745D01*
X142959427Y-108403553D01*
X142960000Y-108407170D01*
X142960000Y-108592829D01*
X142956573Y-108601102D01*
X142953611Y-108603254D01*
X141353949Y-109418140D01*
X141345021Y-109418842D01*
X141338213Y-109413026D01*
X141337833Y-109412202D01*
X140960862Y-108504485D01*
X140960854Y-108495535D01*
X141337834Y-107587795D01*
X141344171Y-107581470D01*
X141353125Y-107581479D01*
G37*
%TD.AperFunction*%
%TD*%
%TA.AperFunction,Conductor*%
%TO.N,GND*%
G36*
X128258670Y-108413895D02*
G01*
X128260000Y-108419313D01*
X128260000Y-108591344D01*
X128256573Y-108599617D01*
X128251723Y-108602532D01*
X127457042Y-108845684D01*
X127448128Y-108844828D01*
X127442431Y-108837919D01*
X127443287Y-108829005D01*
X127448201Y-108824126D01*
X127872343Y-108602532D01*
X128242882Y-108408942D01*
X128251802Y-108408149D01*
X128258670Y-108413895D01*
G37*
%TD.AperFunction*%
%TD*%
%TA.AperFunction,Conductor*%
%TO.N,GND*%
G36*
X135501786Y-107586973D02*
G01*
X135502166Y-107587797D01*
X135879136Y-108495513D01*
X135879145Y-108504467D01*
X135879136Y-108504487D01*
X135502166Y-109412202D01*
X135495828Y-109418529D01*
X135486874Y-109418520D01*
X135486050Y-109418140D01*
X133886389Y-108603254D01*
X133880573Y-108596446D01*
X133880000Y-108592829D01*
X133880000Y-108407170D01*
X133883427Y-108398897D01*
X133886387Y-108396746D01*
X135486051Y-107581858D01*
X135494978Y-107581157D01*
X135501786Y-107586973D01*
G37*
%TD.AperFunction*%
%TD*%
%TA.AperFunction,Conductor*%
%TO.N,GND*%
G36*
X133338670Y-108413895D02*
G01*
X133340000Y-108419313D01*
X133340000Y-108591344D01*
X133336573Y-108599617D01*
X133331723Y-108602532D01*
X132537042Y-108845684D01*
X132528128Y-108844828D01*
X132522431Y-108837919D01*
X132523287Y-108829005D01*
X132528201Y-108824126D01*
X132952343Y-108602532D01*
X133322882Y-108408942D01*
X133331802Y-108408149D01*
X133338670Y-108413895D01*
G37*
%TD.AperFunction*%
%TD*%
%TA.AperFunction,Conductor*%
%TO.N,GND*%
G36*
X130798670Y-108413895D02*
G01*
X130800000Y-108419313D01*
X130800000Y-108591344D01*
X130796573Y-108599617D01*
X130791723Y-108602532D01*
X129997042Y-108845684D01*
X129988128Y-108844828D01*
X129982431Y-108837919D01*
X129983287Y-108829005D01*
X129988201Y-108824126D01*
X130412343Y-108602532D01*
X130782882Y-108408942D01*
X130791802Y-108408149D01*
X130798670Y-108413895D01*
G37*
%TD.AperFunction*%
%TD*%
%TA.AperFunction,Conductor*%
%TO.N,GND*%
G36*
X126728245Y-107507420D02*
G01*
X127716127Y-108396514D01*
X127719984Y-108404596D01*
X127720000Y-108405211D01*
X127720000Y-108594788D01*
X127716573Y-108603061D01*
X127716127Y-108603485D01*
X126728246Y-109492578D01*
X126719804Y-109495565D01*
X126712150Y-109492158D01*
X125727285Y-108508277D01*
X125723854Y-108500006D01*
X125727277Y-108491731D01*
X125727285Y-108491723D01*
X126712151Y-107507840D01*
X126720425Y-107504418D01*
X126728245Y-107507420D01*
G37*
%TD.AperFunction*%
%TD*%
%TA.AperFunction,Conductor*%
%TO.N,+3V3*%
G36*
X121077910Y-94434599D02*
G01*
X121275328Y-94518286D01*
X121805367Y-94742976D01*
X121811646Y-94749359D01*
X121812500Y-94753747D01*
X121812500Y-95246252D01*
X121809073Y-95254525D01*
X121805366Y-95257024D01*
X121077910Y-95565400D01*
X121068956Y-95565474D01*
X121065094Y-95562924D01*
X120754430Y-95254000D01*
X120507341Y-95008294D01*
X120503892Y-95000033D01*
X120507296Y-94991750D01*
X121065095Y-94437074D01*
X121073377Y-94433671D01*
X121077910Y-94434599D01*
G37*
%TD.AperFunction*%
%TD*%
%TA.AperFunction,Conductor*%
%TO.N,+3V3*%
G36*
X121398395Y-93880711D02*
G01*
X121401822Y-93888984D01*
X121401654Y-93890962D01*
X121226489Y-94912282D01*
X121221713Y-94919857D01*
X121216241Y-94921933D01*
X120507611Y-95000159D01*
X120499012Y-94997661D01*
X120496184Y-94994361D01*
X120166937Y-94421602D01*
X120165784Y-94412722D01*
X120170186Y-94406317D01*
X120892920Y-93879529D01*
X120899812Y-93877284D01*
X121390122Y-93877284D01*
X121398395Y-93880711D01*
G37*
%TD.AperFunction*%
%TD*%
%TA.AperFunction,Conductor*%
%TO.N,+3V3*%
G36*
X123165323Y-95839739D02*
G01*
X123903092Y-96195345D01*
X124060621Y-96271274D01*
X124066586Y-96277954D01*
X124067120Y-96283492D01*
X123964162Y-96994110D01*
X123959584Y-97001806D01*
X123957045Y-97003248D01*
X123384672Y-97239360D01*
X123375717Y-97239347D01*
X123369958Y-97234182D01*
X123312828Y-97130302D01*
X122802867Y-96203041D01*
X122801884Y-96194143D01*
X122804845Y-96189134D01*
X123151973Y-95842006D01*
X123160245Y-95838580D01*
X123165323Y-95839739D01*
G37*
%TD.AperFunction*%
%TD*%
%TA.AperFunction,Conductor*%
%TO.N,+3V3*%
G36*
X160906715Y-91624925D02*
G01*
X160914596Y-91629175D01*
X160917224Y-91636564D01*
X160917224Y-92123435D01*
X160913797Y-92131708D01*
X160906714Y-92135074D01*
X160469890Y-92179727D01*
X160464706Y-92179085D01*
X159671502Y-91890997D01*
X159664896Y-91884952D01*
X159664499Y-91876006D01*
X159670544Y-91869400D01*
X159671502Y-91869003D01*
X160464708Y-91580913D01*
X160469887Y-91580272D01*
X160906715Y-91624925D01*
G37*
%TD.AperFunction*%
%TD*%
%TA.AperFunction,Conductor*%
%TO.N,+3V3*%
G36*
X164598720Y-91394438D02*
G01*
X164601575Y-91396524D01*
X165159582Y-91951407D01*
X165163032Y-91959670D01*
X165159628Y-91967953D01*
X165159285Y-91968284D01*
X164578424Y-92506661D01*
X164570027Y-92509772D01*
X164565015Y-92508430D01*
X163860968Y-92137291D01*
X163855247Y-92130402D01*
X163854724Y-92126941D01*
X163854724Y-91634572D01*
X163858151Y-91626299D01*
X163862896Y-91623416D01*
X164589800Y-91393664D01*
X164598720Y-91394438D01*
G37*
%TD.AperFunction*%
%TD*%
%TA.AperFunction,Conductor*%
%TO.N,+3V3*%
G36*
X124217025Y-95690927D02*
G01*
X124219524Y-95694634D01*
X124527900Y-96422089D01*
X124527974Y-96431043D01*
X124525424Y-96434905D01*
X123970796Y-96992657D01*
X123962533Y-96996107D01*
X123954250Y-96992703D01*
X123954204Y-96992657D01*
X123399575Y-96434905D01*
X123396171Y-96426622D01*
X123397099Y-96422089D01*
X123705476Y-95694634D01*
X123711860Y-95688354D01*
X123716248Y-95687500D01*
X124208752Y-95687500D01*
X124217025Y-95690927D01*
G37*
%TD.AperFunction*%
%TD*%
%TA.AperFunction,Conductor*%
%TO.N,+3V3*%
G36*
X124007695Y-95006354D02*
G01*
X124567533Y-95541411D01*
X124576296Y-95549786D01*
X124579909Y-95557979D01*
X124578381Y-95564030D01*
X124219865Y-96194086D01*
X124212795Y-96199582D01*
X124209696Y-96200000D01*
X123715808Y-96200000D01*
X123707535Y-96196573D01*
X123705294Y-96193433D01*
X123395059Y-95557979D01*
X123386969Y-95541409D01*
X123386420Y-95532473D01*
X123389822Y-95527436D01*
X123991953Y-95005968D01*
X124000450Y-95003143D01*
X124007695Y-95006354D01*
G37*
%TD.AperFunction*%
%TD*%
%TA.AperFunction,Conductor*%
%TO.N,+3V3*%
G36*
X119077910Y-81397099D02*
G01*
X119275328Y-81480786D01*
X119805367Y-81705476D01*
X119811646Y-81711859D01*
X119812500Y-81716247D01*
X119812500Y-82208752D01*
X119809073Y-82217025D01*
X119805366Y-82219524D01*
X119077910Y-82527900D01*
X119068956Y-82527974D01*
X119065094Y-82525424D01*
X118754430Y-82216500D01*
X118507341Y-81970794D01*
X118503892Y-81962533D01*
X118507296Y-81954250D01*
X119065095Y-81399574D01*
X119073377Y-81396171D01*
X119077910Y-81397099D01*
G37*
%TD.AperFunction*%
%TD*%
%TA.AperFunction,Conductor*%
%TO.N,+3V3*%
G36*
X120431253Y-81434469D02*
G01*
X120434646Y-81436817D01*
X120992657Y-81991704D01*
X120996107Y-81999967D01*
X120992703Y-82008250D01*
X120992657Y-82008296D01*
X120435162Y-82562669D01*
X120426879Y-82566073D01*
X120421897Y-82564944D01*
X120417102Y-82562669D01*
X120270734Y-82493222D01*
X119694185Y-82219671D01*
X119688179Y-82213028D01*
X119687500Y-82209100D01*
X119687500Y-81716620D01*
X119690927Y-81708347D01*
X119695106Y-81705660D01*
X120422306Y-81434152D01*
X120431253Y-81434469D01*
G37*
%TD.AperFunction*%
%TD*%
%TA.AperFunction,Conductor*%
%TO.N,+3V3*%
G36*
X121577910Y-81434599D02*
G01*
X121775328Y-81518286D01*
X122305367Y-81742976D01*
X122311646Y-81749359D01*
X122312500Y-81753747D01*
X122312500Y-82246252D01*
X122309073Y-82254525D01*
X122305366Y-82257024D01*
X121577910Y-82565400D01*
X121568956Y-82565474D01*
X121565094Y-82562924D01*
X121254430Y-82254000D01*
X121007341Y-82008294D01*
X121003892Y-82000033D01*
X121007296Y-81991750D01*
X121565095Y-81437074D01*
X121573377Y-81433671D01*
X121577910Y-81434599D01*
G37*
%TD.AperFunction*%
%TD*%
%TA.AperFunction,Conductor*%
%TO.N,+3V3*%
G36*
X121156050Y-90011612D02*
G01*
X121160014Y-90015576D01*
X122108478Y-91585611D01*
X122109823Y-91594464D01*
X122108755Y-91597228D01*
X121407318Y-92893867D01*
X121400367Y-92899513D01*
X121397027Y-92900000D01*
X120902973Y-92900000D01*
X120894700Y-92896573D01*
X120892682Y-92893867D01*
X120191244Y-91597228D01*
X120190322Y-91588321D01*
X120191517Y-91585617D01*
X121139986Y-90015575D01*
X121147197Y-90010267D01*
X121156050Y-90011612D01*
G37*
%TD.AperFunction*%
%TD*%
%TA.AperFunction,Conductor*%
%TO.N,/InputE*%
G36*
X113646107Y-108499986D02*
G01*
X113654376Y-108503421D01*
X113657795Y-108511698D01*
X113657623Y-108513688D01*
X113351684Y-110275657D01*
X113346892Y-110283222D01*
X113340156Y-110285355D01*
X113154492Y-110285355D01*
X113146662Y-110282348D01*
X111962045Y-109215350D01*
X111958191Y-109207267D01*
X111961182Y-109198827D01*
X111961564Y-109198422D01*
X112656569Y-108502435D01*
X112664834Y-108499004D01*
X113646107Y-108499986D01*
G37*
%TD.AperFunction*%
%TD*%
%TA.AperFunction,Conductor*%
%TO.N,/InputE*%
G36*
X113352930Y-112503427D02*
G01*
X113353499Y-112504037D01*
X113992869Y-113241772D01*
X113995697Y-113250269D01*
X113992306Y-113257703D01*
X113258279Y-113992709D01*
X113250008Y-113996141D01*
X113241732Y-113992720D01*
X113241721Y-113992709D01*
X112507693Y-113257703D01*
X112504272Y-113249427D01*
X112507129Y-113241773D01*
X113146501Y-112504036D01*
X113154509Y-112500030D01*
X113155343Y-112500000D01*
X113344657Y-112500000D01*
X113352930Y-112503427D01*
G37*
%TD.AperFunction*%
%TD*%
%TA.AperFunction,Conductor*%
%TO.N,/InputE*%
G36*
X136178444Y-98141375D02*
G01*
X136608346Y-98217981D01*
X136615889Y-98222807D01*
X136617608Y-98226525D01*
X136811068Y-98962296D01*
X136809858Y-98971168D01*
X136806670Y-98974708D01*
X136290606Y-99352975D01*
X136281907Y-99355102D01*
X136275416Y-99351811D01*
X136144626Y-99221021D01*
X136141199Y-99212748D01*
X136141201Y-99212564D01*
X136164697Y-98152635D01*
X136168306Y-98144441D01*
X136176653Y-98141198D01*
X136178444Y-98141375D01*
G37*
%TD.AperFunction*%
%TD*%
%TA.AperFunction,Conductor*%
%TO.N,/InputE*%
G36*
X114005611Y-107017994D02*
G01*
X114008573Y-107020146D01*
X114139853Y-107151426D01*
X114143280Y-107159699D01*
X114142707Y-107163316D01*
X113587788Y-108870658D01*
X113581972Y-108877466D01*
X113573044Y-108878168D01*
X113572194Y-108877855D01*
X112663784Y-108502562D01*
X112657446Y-108496235D01*
X112657437Y-108496215D01*
X112282144Y-107587805D01*
X112282153Y-107578851D01*
X112288491Y-107572524D01*
X112289318Y-107572219D01*
X113996684Y-107017292D01*
X114005611Y-107017994D01*
G37*
%TD.AperFunction*%
%TD*%
%TA.AperFunction,Conductor*%
%TO.N,/InputD*%
G36*
X135350234Y-98234480D02*
G01*
X135354884Y-98239715D01*
X135679780Y-98962667D01*
X135680045Y-98971618D01*
X135677412Y-98975705D01*
X135247206Y-99409151D01*
X135238946Y-99412609D01*
X135230660Y-99409213D01*
X135098345Y-99276898D01*
X135096861Y-99275081D01*
X134899071Y-98976153D01*
X134897363Y-98967363D01*
X134898797Y-98963675D01*
X135334183Y-98238487D01*
X135341377Y-98233160D01*
X135350234Y-98234480D01*
G37*
%TD.AperFunction*%
%TD*%
%TA.AperFunction,Conductor*%
%TO.N,/InputD*%
G36*
X111465611Y-107017994D02*
G01*
X111468573Y-107020146D01*
X111599853Y-107151426D01*
X111603280Y-107159699D01*
X111602707Y-107163316D01*
X111047788Y-108870658D01*
X111041972Y-108877466D01*
X111033044Y-108878168D01*
X111032194Y-108877855D01*
X110123784Y-108502562D01*
X110117446Y-108496235D01*
X110117437Y-108496215D01*
X109742144Y-107587805D01*
X109742153Y-107578851D01*
X109748491Y-107572524D01*
X109749318Y-107572219D01*
X111456684Y-107017292D01*
X111465611Y-107017994D01*
G37*
%TD.AperFunction*%
%TD*%
%TA.AperFunction,Conductor*%
%TO.N,/InputD*%
G36*
X110127230Y-108502002D02*
G01*
X111034234Y-108878677D01*
X111040561Y-108885015D01*
X111040990Y-108892719D01*
X110602437Y-110415951D01*
X110596855Y-110422953D01*
X110591194Y-110424414D01*
X110405576Y-110424414D01*
X110397303Y-110420987D01*
X110396488Y-110420083D01*
X109419527Y-109215288D01*
X109416978Y-109206704D01*
X109420334Y-109199654D01*
X110114467Y-108504540D01*
X110122737Y-108501108D01*
X110127230Y-108502002D01*
G37*
%TD.AperFunction*%
%TD*%
%TA.AperFunction,Conductor*%
%TO.N,/InputD*%
G36*
X110602930Y-112503427D02*
G01*
X110603499Y-112504037D01*
X111242869Y-113241772D01*
X111245697Y-113250269D01*
X111242306Y-113257703D01*
X110508279Y-113992709D01*
X110500008Y-113996141D01*
X110491732Y-113992720D01*
X110491721Y-113992709D01*
X109757693Y-113257703D01*
X109754272Y-113249427D01*
X109757129Y-113241773D01*
X110396501Y-112504036D01*
X110404509Y-112500030D01*
X110405343Y-112500000D01*
X110594657Y-112500000D01*
X110602930Y-112503427D01*
G37*
%TD.AperFunction*%
%TD*%
%TA.AperFunction,Conductor*%
%TO.N,/InputC*%
G36*
X108493096Y-108878204D02*
G01*
X108499423Y-108884542D01*
X108499423Y-108893475D01*
X107852987Y-110458951D01*
X107846662Y-110465289D01*
X107842173Y-110466185D01*
X107656470Y-110466185D01*
X107648197Y-110462758D01*
X107646560Y-110460705D01*
X106663473Y-108894399D01*
X106661979Y-108885572D01*
X106667164Y-108878271D01*
X106668889Y-108877379D01*
X107575514Y-108500862D01*
X107584464Y-108500854D01*
X108493096Y-108878204D01*
G37*
%TD.AperFunction*%
%TD*%
%TA.AperFunction,Conductor*%
%TO.N,/InputC*%
G36*
X107852930Y-112503427D02*
G01*
X107853499Y-112504037D01*
X108492869Y-113241772D01*
X108495697Y-113250269D01*
X108492306Y-113257703D01*
X107758279Y-113992709D01*
X107750008Y-113996141D01*
X107741732Y-113992720D01*
X107741721Y-113992709D01*
X107007693Y-113257703D01*
X107004272Y-113249427D01*
X107007129Y-113241773D01*
X107646501Y-112504036D01*
X107654509Y-112500030D01*
X107655343Y-112500000D01*
X107844657Y-112500000D01*
X107852930Y-112503427D01*
G37*
%TD.AperFunction*%
%TD*%
%TA.AperFunction,Conductor*%
%TO.N,/InputC*%
G36*
X133636909Y-98103632D02*
G01*
X134067994Y-98217260D01*
X134075121Y-98222683D01*
X134076633Y-98227215D01*
X134162624Y-98962593D01*
X134160181Y-98971208D01*
X134157142Y-98973912D01*
X133540385Y-99354055D01*
X133531544Y-99355479D01*
X133525973Y-99352368D01*
X133395568Y-99221963D01*
X133392141Y-99213690D01*
X133392389Y-99211292D01*
X133418162Y-99088217D01*
X133419880Y-99084128D01*
X133443867Y-99048231D01*
X133455500Y-98989748D01*
X133455500Y-98911128D01*
X133455748Y-98908730D01*
X133600122Y-98219293D01*
X133622475Y-98112546D01*
X133627525Y-98105153D01*
X133636325Y-98103494D01*
X133636909Y-98103632D01*
G37*
%TD.AperFunction*%
%TD*%
%TA.AperFunction,Conductor*%
%TO.N,/InputC*%
G36*
X108925611Y-107017994D02*
G01*
X108928573Y-107020146D01*
X109059853Y-107151426D01*
X109063280Y-107159699D01*
X109062707Y-107163316D01*
X108507788Y-108870658D01*
X108501972Y-108877466D01*
X108493044Y-108878168D01*
X108492194Y-108877855D01*
X107583784Y-108502562D01*
X107577446Y-108496235D01*
X107577437Y-108496215D01*
X107202144Y-107587805D01*
X107202153Y-107578851D01*
X107208491Y-107572524D01*
X107209318Y-107572219D01*
X108916684Y-107017292D01*
X108925611Y-107017994D01*
G37*
%TD.AperFunction*%
%TD*%
%TA.AperFunction,Conductor*%
%TO.N,/InputB*%
G36*
X106385611Y-107017994D02*
G01*
X106388573Y-107020146D01*
X106519853Y-107151426D01*
X106523280Y-107159699D01*
X106522707Y-107163316D01*
X105967788Y-108870658D01*
X105961972Y-108877466D01*
X105953044Y-108878168D01*
X105952194Y-108877855D01*
X105043784Y-108502562D01*
X105037446Y-108496235D01*
X105037437Y-108496215D01*
X104662144Y-107587805D01*
X104662153Y-107578851D01*
X104668491Y-107572524D01*
X104669318Y-107572219D01*
X106376684Y-107017292D01*
X106385611Y-107017994D01*
G37*
%TD.AperFunction*%
%TD*%
%TA.AperFunction,Conductor*%
%TO.N,/InputB*%
G36*
X105952202Y-108877833D02*
G01*
X105958529Y-108884171D01*
X105958520Y-108893125D01*
X105958140Y-108893949D01*
X105143255Y-110493611D01*
X105136447Y-110499427D01*
X105132830Y-110500000D01*
X104947170Y-110500000D01*
X104938897Y-110496573D01*
X104936745Y-110493611D01*
X104121859Y-108893949D01*
X104121157Y-108885021D01*
X104126973Y-108878213D01*
X104127783Y-108877839D01*
X105035514Y-108500862D01*
X105044464Y-108500854D01*
X105952202Y-108877833D01*
G37*
%TD.AperFunction*%
%TD*%
%TA.AperFunction,Conductor*%
%TO.N,/InputB*%
G36*
X105142708Y-112503427D02*
G01*
X105143512Y-112504318D01*
X105743342Y-113241815D01*
X105745903Y-113250395D01*
X105742544Y-113257465D01*
X105008389Y-113992599D01*
X105000118Y-113996031D01*
X104991842Y-113992610D01*
X104991722Y-113992487D01*
X104277350Y-113257819D01*
X104274039Y-113249499D01*
X104277013Y-113241869D01*
X104936511Y-112503903D01*
X104944579Y-112500018D01*
X104945235Y-112500000D01*
X105134435Y-112500000D01*
X105142708Y-112503427D01*
G37*
%TD.AperFunction*%
%TD*%
%TA.AperFunction,Conductor*%
%TO.N,/InputB*%
G36*
X132809321Y-98236002D02*
G01*
X132814244Y-98241899D01*
X133086209Y-98962041D01*
X133085927Y-98970992D01*
X133082572Y-98975312D01*
X132633888Y-99334170D01*
X132625287Y-99336661D01*
X132618307Y-99333306D01*
X132485421Y-99200420D01*
X132483503Y-99197894D01*
X132358344Y-98975931D01*
X132357265Y-98967041D01*
X132358501Y-98964167D01*
X132793268Y-98240010D01*
X132800464Y-98234682D01*
X132809321Y-98236002D01*
G37*
%TD.AperFunction*%
%TD*%
%TA.AperFunction,Conductor*%
%TO.N,/InputA*%
G36*
X129822303Y-97777287D02*
G01*
X130257699Y-98211718D01*
X130261135Y-98219987D01*
X130257717Y-98228264D01*
X130257699Y-98228282D01*
X129822303Y-98662712D01*
X129814026Y-98666130D01*
X129806856Y-98663665D01*
X129369517Y-98323513D01*
X129365090Y-98315729D01*
X129365000Y-98314278D01*
X129365000Y-98125721D01*
X129368427Y-98117448D01*
X129369509Y-98116492D01*
X129806856Y-97776333D01*
X129815490Y-97773959D01*
X129822303Y-97777287D01*
G37*
%TD.AperFunction*%
%TD*%
%TA.AperFunction,Conductor*%
%TO.N,/InputA*%
G36*
X102507737Y-108507809D02*
G01*
X102508243Y-108508348D01*
X103375326Y-109491624D01*
X103378228Y-109500095D01*
X103374690Y-109507767D01*
X102353403Y-110496705D01*
X102345264Y-110500000D01*
X102156349Y-110500000D01*
X102148076Y-110496573D01*
X102146539Y-110494676D01*
X101505162Y-109507942D01*
X101503527Y-109499138D01*
X101506693Y-109493299D01*
X102491192Y-108507816D01*
X102499462Y-108504386D01*
X102507737Y-108507809D01*
G37*
%TD.AperFunction*%
%TD*%
%TA.AperFunction,Conductor*%
%TO.N,/InputA*%
G36*
X102352930Y-112503427D02*
G01*
X102353499Y-112504037D01*
X102992869Y-113241772D01*
X102995697Y-113250269D01*
X102992306Y-113257703D01*
X102258279Y-113992709D01*
X102250008Y-113996141D01*
X102241732Y-113992720D01*
X102241721Y-113992709D01*
X101507693Y-113257703D01*
X101504272Y-113249427D01*
X101507129Y-113241773D01*
X102146501Y-112504036D01*
X102154509Y-112500030D01*
X102155343Y-112500000D01*
X102344657Y-112500000D01*
X102352930Y-112503427D01*
G37*
%TD.AperFunction*%
%TD*%
%TA.AperFunction,Conductor*%
%TO.N,/InputA*%
G36*
X104138272Y-106725135D02*
G01*
X104141744Y-106727531D01*
X104272468Y-106858255D01*
X104275895Y-106866528D01*
X104275134Y-106870677D01*
X103504272Y-108902949D01*
X103498134Y-108909469D01*
X103489184Y-108909739D01*
X103488865Y-108909613D01*
X102503782Y-108502562D01*
X102497446Y-108496238D01*
X102090386Y-107511132D01*
X102090393Y-107502179D01*
X102096731Y-107495853D01*
X102097021Y-107495738D01*
X104129325Y-106724865D01*
X104138272Y-106725135D01*
G37*
%TD.AperFunction*%
%TD*%
%TA.AperFunction,Conductor*%
%TO.N,/InputF*%
G36*
X116102930Y-112503427D02*
G01*
X116103499Y-112504037D01*
X116742869Y-113241772D01*
X116745697Y-113250269D01*
X116742306Y-113257703D01*
X116008279Y-113992709D01*
X116000008Y-113996141D01*
X115991732Y-113992720D01*
X115991721Y-113992709D01*
X115257693Y-113257703D01*
X115254272Y-113249427D01*
X115257129Y-113241773D01*
X115896501Y-112504036D01*
X115904509Y-112500030D01*
X115905343Y-112500000D01*
X116094657Y-112500000D01*
X116102930Y-112503427D01*
G37*
%TD.AperFunction*%
%TD*%
%TA.AperFunction,Conductor*%
%TO.N,/InputF*%
G36*
X116545611Y-107017994D02*
G01*
X116548573Y-107020146D01*
X116679853Y-107151426D01*
X116683280Y-107159699D01*
X116682707Y-107163316D01*
X116127788Y-108870658D01*
X116121972Y-108877466D01*
X116113044Y-108878168D01*
X116112194Y-108877855D01*
X115203784Y-108502562D01*
X115197446Y-108496235D01*
X115197437Y-108496215D01*
X114822144Y-107587805D01*
X114822153Y-107578851D01*
X114828491Y-107572524D01*
X114829318Y-107572219D01*
X116536684Y-107017292D01*
X116545611Y-107017994D01*
G37*
%TD.AperFunction*%
%TD*%
%TA.AperFunction,Conductor*%
%TO.N,/InputF*%
G36*
X116187591Y-108499987D02*
G01*
X116195859Y-108503422D01*
X116199278Y-108511699D01*
X116199257Y-108512387D01*
X116100659Y-110157630D01*
X116096743Y-110165683D01*
X116088980Y-110168630D01*
X115903616Y-110168630D01*
X115897015Y-110166590D01*
X114504531Y-109215059D01*
X114499634Y-109207562D01*
X114501472Y-109198798D01*
X114502848Y-109197137D01*
X115196569Y-108502435D01*
X115204834Y-108499004D01*
X116187591Y-108499987D01*
G37*
%TD.AperFunction*%
%TD*%
%TA.AperFunction,Conductor*%
%TO.N,/InputF*%
G36*
X137890234Y-98234480D02*
G01*
X137894884Y-98239715D01*
X138219780Y-98962667D01*
X138220045Y-98971618D01*
X138217412Y-98975705D01*
X137787206Y-99409151D01*
X137778946Y-99412609D01*
X137770660Y-99409213D01*
X137638345Y-99276898D01*
X137636861Y-99275081D01*
X137439071Y-98976153D01*
X137437363Y-98967363D01*
X137438797Y-98963675D01*
X137874183Y-98238487D01*
X137881377Y-98233160D01*
X137890234Y-98234480D01*
G37*
%TD.AperFunction*%
%TD*%
%TA.AperFunction,Conductor*%
%TO.N,/InputG*%
G36*
X118729096Y-108499989D02*
G01*
X118737365Y-108503424D01*
X118740756Y-108510877D01*
X118849130Y-110069133D01*
X118846285Y-110077624D01*
X118838270Y-110081617D01*
X118837458Y-110081645D01*
X118652806Y-110081645D01*
X118647500Y-110080373D01*
X118642097Y-110077624D01*
X117366957Y-109428785D01*
X117361138Y-109421979D01*
X117361451Y-109413886D01*
X117737007Y-108506232D01*
X117743335Y-108499899D01*
X117747824Y-108499007D01*
X118729096Y-108499989D01*
G37*
%TD.AperFunction*%
%TD*%
%TA.AperFunction,Conductor*%
%TO.N,/InputG*%
G36*
X139160234Y-98234480D02*
G01*
X139164884Y-98239715D01*
X139489780Y-98962667D01*
X139490045Y-98971618D01*
X139487412Y-98975705D01*
X139057206Y-99409151D01*
X139048946Y-99412609D01*
X139040660Y-99409213D01*
X138908345Y-99276898D01*
X138906861Y-99275081D01*
X138709071Y-98976153D01*
X138707363Y-98967363D01*
X138708797Y-98963675D01*
X139144183Y-98238487D01*
X139151377Y-98233160D01*
X139160234Y-98234480D01*
G37*
%TD.AperFunction*%
%TD*%
%TA.AperFunction,Conductor*%
%TO.N,/InputG*%
G36*
X118852930Y-112503427D02*
G01*
X118853499Y-112504037D01*
X119492869Y-113241772D01*
X119495697Y-113250269D01*
X119492306Y-113257703D01*
X118758279Y-113992709D01*
X118750008Y-113996141D01*
X118741732Y-113992720D01*
X118741721Y-113992709D01*
X118007693Y-113257703D01*
X118004272Y-113249427D01*
X118007129Y-113241773D01*
X118646501Y-112504036D01*
X118654509Y-112500030D01*
X118655343Y-112500000D01*
X118844657Y-112500000D01*
X118852930Y-112503427D01*
G37*
%TD.AperFunction*%
%TD*%
%TA.AperFunction,Conductor*%
%TO.N,/InputG*%
G36*
X119085611Y-107017994D02*
G01*
X119088573Y-107020146D01*
X119219853Y-107151426D01*
X119223280Y-107159699D01*
X119222707Y-107163316D01*
X118667788Y-108870658D01*
X118661972Y-108877466D01*
X118653044Y-108878168D01*
X118652194Y-108877855D01*
X117743784Y-108502562D01*
X117737446Y-108496235D01*
X117737437Y-108496215D01*
X117362144Y-107587805D01*
X117362153Y-107578851D01*
X117368491Y-107572524D01*
X117369318Y-107572219D01*
X119076684Y-107017292D01*
X119085611Y-107017994D01*
G37*
%TD.AperFunction*%
%TD*%
%TA.AperFunction,Conductor*%
%TO.N,/InputH*%
G36*
X121602930Y-112503427D02*
G01*
X121603499Y-112504037D01*
X122242869Y-113241772D01*
X122245697Y-113250269D01*
X122242306Y-113257703D01*
X121508279Y-113992709D01*
X121500008Y-113996141D01*
X121491732Y-113992720D01*
X121491721Y-113992709D01*
X120757693Y-113257703D01*
X120754272Y-113249427D01*
X120757129Y-113241773D01*
X121396501Y-112504036D01*
X121404509Y-112500030D01*
X121405343Y-112500000D01*
X121594657Y-112500000D01*
X121602930Y-112503427D01*
G37*
%TD.AperFunction*%
%TD*%
%TA.AperFunction,Conductor*%
%TO.N,/InputH*%
G36*
X121199824Y-108122700D02*
G01*
X121206151Y-108129038D01*
X121206785Y-108131089D01*
X121597022Y-109980544D01*
X121595377Y-109989347D01*
X121587990Y-109994408D01*
X121585574Y-109994660D01*
X121402149Y-109994660D01*
X121397994Y-109993898D01*
X119908579Y-109428157D01*
X119902062Y-109422015D01*
X119901796Y-109413064D01*
X119901899Y-109412805D01*
X120278143Y-108503486D01*
X120284471Y-108497152D01*
X121190871Y-108122691D01*
X121199824Y-108122700D01*
G37*
%TD.AperFunction*%
%TD*%
M02*
