%TF.GenerationSoftware,KiCad,Pcbnew,8.0.5*%
%TF.CreationDate,2024-09-20T11:31:42+10:00*%
%TF.ProjectId,relay_to_rs485,72656c61-795f-4746-9f5f-72733438352e,rev?*%
%TF.SameCoordinates,Original*%
%TF.FileFunction,Paste,Top*%
%TF.FilePolarity,Positive*%
%FSLAX46Y46*%
G04 Gerber Fmt 4.6, Leading zero omitted, Abs format (unit mm)*
G04 Created by KiCad (PCBNEW 8.0.5) date 2024-09-20 11:31:42*
%MOMM*%
%LPD*%
G01*
G04 APERTURE LIST*
G04 Aperture macros list*
%AMRoundRect*
0 Rectangle with rounded corners*
0 $1 Rounding radius*
0 $2 $3 $4 $5 $6 $7 $8 $9 X,Y pos of 4 corners*
0 Add a 4 corners polygon primitive as box body*
4,1,4,$2,$3,$4,$5,$6,$7,$8,$9,$2,$3,0*
0 Add four circle primitives for the rounded corners*
1,1,$1+$1,$2,$3*
1,1,$1+$1,$4,$5*
1,1,$1+$1,$6,$7*
1,1,$1+$1,$8,$9*
0 Add four rect primitives between the rounded corners*
20,1,$1+$1,$2,$3,$4,$5,0*
20,1,$1+$1,$4,$5,$6,$7,0*
20,1,$1+$1,$6,$7,$8,$9,0*
20,1,$1+$1,$8,$9,$2,$3,0*%
G04 Aperture macros list end*
%ADD10RoundRect,0.225000X0.375000X-0.225000X0.375000X0.225000X-0.375000X0.225000X-0.375000X-0.225000X0*%
%ADD11RoundRect,0.250000X-0.475000X0.337500X-0.475000X-0.337500X0.475000X-0.337500X0.475000X0.337500X0*%
%ADD12RoundRect,0.250000X0.350000X0.450000X-0.350000X0.450000X-0.350000X-0.450000X0.350000X-0.450000X0*%
%ADD13RoundRect,0.250000X0.450000X-0.350000X0.450000X0.350000X-0.450000X0.350000X-0.450000X-0.350000X0*%
%ADD14RoundRect,0.375000X-0.625000X-0.375000X0.625000X-0.375000X0.625000X0.375000X-0.625000X0.375000X0*%
%ADD15RoundRect,0.500000X-0.500000X-1.400000X0.500000X-1.400000X0.500000X1.400000X-0.500000X1.400000X0*%
%ADD16RoundRect,0.200000X0.250000X0.200000X-0.250000X0.200000X-0.250000X-0.200000X0.250000X-0.200000X0*%
%ADD17RoundRect,0.250000X0.475000X-0.337500X0.475000X0.337500X-0.475000X0.337500X-0.475000X-0.337500X0*%
%ADD18RoundRect,0.150000X-0.825000X-0.150000X0.825000X-0.150000X0.825000X0.150000X-0.825000X0.150000X0*%
%ADD19RoundRect,0.250000X-0.450000X0.325000X-0.450000X-0.325000X0.450000X-0.325000X0.450000X0.325000X0*%
%ADD20RoundRect,0.250000X-0.350000X0.275000X-0.350000X-0.275000X0.350000X-0.275000X0.350000X0.275000X0*%
%ADD21RoundRect,0.250000X-0.337500X-0.475000X0.337500X-0.475000X0.337500X0.475000X-0.337500X0.475000X0*%
%ADD22R,1.500000X0.900000*%
%ADD23R,0.900000X1.500000*%
%ADD24R,0.900000X0.900000*%
G04 APERTURE END LIST*
D10*
%TO.C,DZ1*%
X102650000Y-89250000D03*
X102650000Y-85950000D03*
%TD*%
D11*
%TO.C,C2*%
X118500000Y-81962500D03*
X118500000Y-84037500D03*
%TD*%
%TO.C,C9*%
X126000000Y-82000000D03*
X126000000Y-84075000D03*
%TD*%
D12*
%TO.C,R6*%
X149600000Y-95700000D03*
X151600000Y-95700000D03*
%TD*%
D13*
%TO.C,R1*%
X160400000Y-106800000D03*
X160400000Y-104800000D03*
%TD*%
D14*
%TO.C,U3*%
X114850000Y-92300000D03*
D15*
X121150000Y-90000000D03*
D14*
X114850000Y-90000000D03*
X114850000Y-87700000D03*
%TD*%
D16*
%TO.C,D1*%
X153000000Y-106700000D03*
X153000000Y-104800000D03*
X151000000Y-105750000D03*
%TD*%
D11*
%TO.C,C1*%
X121000000Y-82000000D03*
X121000000Y-84075000D03*
%TD*%
D17*
%TO.C,C4*%
X109850000Y-90187500D03*
X109850000Y-92262500D03*
%TD*%
D12*
%TO.C,R7*%
X152000000Y-84075000D03*
X150000000Y-84075000D03*
%TD*%
D13*
%TO.C,R4*%
X160400000Y-110850000D03*
X160400000Y-108850000D03*
%TD*%
D18*
%TO.C,U2*%
X159642224Y-91880000D03*
X159642224Y-93150000D03*
X159642224Y-94420000D03*
X159642224Y-95690000D03*
X154692224Y-95690000D03*
X154692224Y-94420000D03*
X154692224Y-93150000D03*
X154692224Y-91880000D03*
%TD*%
D19*
%TO.C,R3*%
X102450000Y-98375000D03*
X102450000Y-96325000D03*
%TD*%
D20*
%TO.C,L1*%
X123500000Y-82050000D03*
X123500000Y-84350000D03*
%TD*%
D21*
%TO.C,C3*%
X123962500Y-97000000D03*
X126037500Y-97000000D03*
%TD*%
D13*
%TO.C,R5*%
X160375000Y-102800000D03*
X160375000Y-100800000D03*
%TD*%
D11*
%TO.C,C6*%
X120500000Y-95000000D03*
X120500000Y-97075000D03*
%TD*%
D13*
%TO.C,R2*%
X124000000Y-95000000D03*
X124000000Y-93000000D03*
%TD*%
D11*
%TO.C,C8*%
X162500000Y-94037500D03*
X162500000Y-91962500D03*
%TD*%
D16*
%TO.C,Q1*%
X100650000Y-93300000D03*
X102650000Y-92350000D03*
X102650000Y-94250000D03*
%TD*%
D11*
%TO.C,C7*%
X165167224Y-91960000D03*
X165167224Y-94035000D03*
%TD*%
D17*
%TO.C,C5*%
X112125000Y-92287500D03*
X112125000Y-90212500D03*
%TD*%
D22*
%TO.C,U1*%
X146000000Y-80460000D03*
X146000000Y-81730000D03*
X146000000Y-83000000D03*
X146000000Y-84270000D03*
X146000000Y-85540000D03*
X146000000Y-86810000D03*
X146000000Y-88080000D03*
X146000000Y-89350000D03*
X146000000Y-90620000D03*
X146000000Y-91890000D03*
X146000000Y-93160000D03*
X146000000Y-94430000D03*
X146000000Y-95700000D03*
X146000000Y-96970000D03*
D23*
X144235000Y-98220000D03*
X142965000Y-98220000D03*
X141695000Y-98220000D03*
X140425000Y-98220000D03*
X139155000Y-98220000D03*
X137885000Y-98220000D03*
X136615000Y-98220000D03*
X135345000Y-98220000D03*
X134075000Y-98220000D03*
X132805000Y-98220000D03*
X131535000Y-98220000D03*
X130265000Y-98220000D03*
D22*
X128500000Y-96970000D03*
X128500000Y-95700000D03*
X128500000Y-94430000D03*
X128500000Y-93160000D03*
X128500000Y-91890000D03*
X128500000Y-90620000D03*
X128500000Y-89350000D03*
X128500000Y-88080000D03*
X128500000Y-86810000D03*
X128500000Y-85540000D03*
X128500000Y-84270000D03*
X128500000Y-83000000D03*
X128500000Y-81730000D03*
X128500000Y-80460000D03*
D24*
X137150000Y-89580000D03*
X137150000Y-88180000D03*
X137150000Y-86780000D03*
X135750000Y-89580000D03*
X135750000Y-88180000D03*
X135750000Y-86780000D03*
X134350000Y-89580000D03*
X134350000Y-88180000D03*
X134350000Y-86780000D03*
%TD*%
M02*
