%TF.GenerationSoftware,KiCad,Pcbnew,8.0.4*%
%TF.CreationDate,2024-09-04T23:32:30+10:00*%
%TF.ProjectId,relay_to_rs485,72656c61-795f-4746-9f5f-72733438352e,rev?*%
%TF.SameCoordinates,Original*%
%TF.FileFunction,Legend,Bot*%
%TF.FilePolarity,Positive*%
%FSLAX46Y46*%
G04 Gerber Fmt 4.6, Leading zero omitted, Abs format (unit mm)*
G04 Created by KiCad (PCBNEW 8.0.4) date 2024-09-04 23:32:30*
%MOMM*%
%LPD*%
G01*
G04 APERTURE LIST*
%ADD10C,0.200000*%
%ADD11C,0.000000*%
%ADD12C,5.700000*%
%ADD13C,2.000000*%
%ADD14R,2.000000X2.000000*%
G04 APERTURE END LIST*
D10*
X140773183Y-101867219D02*
X140439850Y-102867219D01*
X140439850Y-102867219D02*
X140106517Y-101867219D01*
X139773183Y-102867219D02*
X139773183Y-101867219D01*
X139201755Y-102867219D02*
X139630326Y-102295790D01*
X139201755Y-101867219D02*
X139773183Y-102438647D01*
X138344612Y-102200552D02*
X138344612Y-102867219D01*
X138582707Y-101819600D02*
X138820802Y-102533885D01*
X138820802Y-102533885D02*
X138201755Y-102533885D01*
X137535088Y-101867219D02*
X137535088Y-102581504D01*
X137535088Y-102581504D02*
X137582707Y-102724361D01*
X137582707Y-102724361D02*
X137677945Y-102819600D01*
X137677945Y-102819600D02*
X137820802Y-102867219D01*
X137820802Y-102867219D02*
X137916040Y-102867219D01*
X136773183Y-101867219D02*
X136773183Y-102581504D01*
X136773183Y-102581504D02*
X136820802Y-102724361D01*
X136820802Y-102724361D02*
X136916040Y-102819600D01*
X136916040Y-102819600D02*
X137058897Y-102867219D01*
X137058897Y-102867219D02*
X137154135Y-102867219D01*
X135677944Y-102200552D02*
X135296992Y-102200552D01*
X135535087Y-102867219D02*
X135535087Y-102010076D01*
X135535087Y-102010076D02*
X135487468Y-101914838D01*
X135487468Y-101914838D02*
X135392230Y-101867219D01*
X135392230Y-101867219D02*
X135296992Y-101867219D01*
X134820801Y-102867219D02*
X134916039Y-102819600D01*
X134916039Y-102819600D02*
X134963658Y-102771980D01*
X134963658Y-102771980D02*
X135011277Y-102676742D01*
X135011277Y-102676742D02*
X135011277Y-102391028D01*
X135011277Y-102391028D02*
X134963658Y-102295790D01*
X134963658Y-102295790D02*
X134916039Y-102248171D01*
X134916039Y-102248171D02*
X134820801Y-102200552D01*
X134820801Y-102200552D02*
X134677944Y-102200552D01*
X134677944Y-102200552D02*
X134582706Y-102248171D01*
X134582706Y-102248171D02*
X134535087Y-102295790D01*
X134535087Y-102295790D02*
X134487468Y-102391028D01*
X134487468Y-102391028D02*
X134487468Y-102676742D01*
X134487468Y-102676742D02*
X134535087Y-102771980D01*
X134535087Y-102771980D02*
X134582706Y-102819600D01*
X134582706Y-102819600D02*
X134677944Y-102867219D01*
X134677944Y-102867219D02*
X134820801Y-102867219D01*
X134058896Y-102867219D02*
X134058896Y-102200552D01*
X134058896Y-102391028D02*
X134011277Y-102295790D01*
X134011277Y-102295790D02*
X133963658Y-102248171D01*
X133963658Y-102248171D02*
X133868420Y-102200552D01*
X133868420Y-102200552D02*
X133773182Y-102200552D01*
X132820800Y-101867219D02*
X132487467Y-102867219D01*
X132487467Y-102867219D02*
X132154134Y-101867219D01*
X131820800Y-102867219D02*
X131820800Y-101867219D01*
X131249372Y-102867219D02*
X131677943Y-102295790D01*
X131249372Y-101867219D02*
X131820800Y-102438647D01*
X130392229Y-102200552D02*
X130392229Y-102867219D01*
X130630324Y-101819600D02*
X130868419Y-102533885D01*
X130868419Y-102533885D02*
X130249372Y-102533885D01*
X129868419Y-102867219D02*
X129868419Y-101867219D01*
X129296991Y-102867219D02*
X129725562Y-102295790D01*
X129296991Y-101867219D02*
X129868419Y-102438647D01*
X128963657Y-101867219D02*
X128725562Y-102867219D01*
X128725562Y-102867219D02*
X128535086Y-102152933D01*
X128535086Y-102152933D02*
X128344610Y-102867219D01*
X128344610Y-102867219D02*
X128106515Y-101867219D01*
D11*
%TO.C,G\u002A\u002A\u002A*%
G36*
X136187870Y-91976393D02*
G01*
X136309340Y-92001225D01*
X136421296Y-92040530D01*
X136534827Y-92101564D01*
X136646848Y-92183814D01*
X136754013Y-92284710D01*
X136854814Y-92402486D01*
X136947745Y-92535381D01*
X137031298Y-92681631D01*
X137103968Y-92839471D01*
X137109031Y-92851958D01*
X137174692Y-93038622D01*
X137228544Y-93241255D01*
X137269999Y-93456835D01*
X137298468Y-93682338D01*
X137313363Y-93914740D01*
X137316667Y-94012814D01*
X137202778Y-94016857D01*
X137154690Y-94018018D01*
X137116382Y-94017158D01*
X137095325Y-94013685D01*
X137088889Y-94007380D01*
X137088614Y-93995294D01*
X137084229Y-93944022D01*
X137075311Y-93878590D01*
X137062908Y-93804549D01*
X137048068Y-93727451D01*
X137031840Y-93652847D01*
X137015271Y-93586291D01*
X136999409Y-93533333D01*
X136983109Y-93487925D01*
X136937051Y-93382038D01*
X136882631Y-93289309D01*
X136815710Y-93203301D01*
X136732150Y-93117574D01*
X136698201Y-93087200D01*
X136589568Y-93008804D01*
X136471558Y-92950442D01*
X136343709Y-92911914D01*
X136205556Y-92893023D01*
X136160453Y-92891491D01*
X136039987Y-92901418D01*
X135924979Y-92932197D01*
X135815300Y-92983944D01*
X135710822Y-93056774D01*
X135611416Y-93150803D01*
X135516954Y-93266146D01*
X135427307Y-93402919D01*
X135342346Y-93561237D01*
X135261944Y-93741216D01*
X135210538Y-93874212D01*
X135146192Y-94062277D01*
X135083611Y-94269550D01*
X135023266Y-94494352D01*
X134965630Y-94735005D01*
X134911174Y-94989830D01*
X134887455Y-95107439D01*
X135025612Y-95406497D01*
X135056000Y-95472240D01*
X135101976Y-95571605D01*
X135149935Y-95675155D01*
X135197055Y-95776797D01*
X135240511Y-95870442D01*
X135277483Y-95950000D01*
X135290173Y-95977279D01*
X135311387Y-96022888D01*
X135331917Y-96067037D01*
X135352432Y-96111166D01*
X135373602Y-96156718D01*
X135396096Y-96205133D01*
X135420582Y-96257853D01*
X135447730Y-96316319D01*
X135478208Y-96381972D01*
X135512686Y-96456254D01*
X135551833Y-96540605D01*
X135596317Y-96636468D01*
X135646808Y-96745282D01*
X135703976Y-96868490D01*
X135768488Y-97007533D01*
X135841014Y-97163852D01*
X135922223Y-97338888D01*
X135977626Y-97458303D01*
X136053270Y-97621345D01*
X136120690Y-97766660D01*
X136180564Y-97895708D01*
X136233569Y-98009947D01*
X136280380Y-98110835D01*
X136321676Y-98199832D01*
X136358133Y-98278396D01*
X136390429Y-98347985D01*
X136419239Y-98410059D01*
X136445242Y-98466075D01*
X136469114Y-98517493D01*
X136491532Y-98565771D01*
X136513173Y-98612367D01*
X136534714Y-98658740D01*
X136556833Y-98706350D01*
X136580205Y-98756654D01*
X136605508Y-98811111D01*
X136622953Y-98848656D01*
X136703026Y-99021013D01*
X136786187Y-99200055D01*
X136870656Y-99381947D01*
X136954653Y-99562857D01*
X137036400Y-99738950D01*
X137114116Y-99906394D01*
X137186020Y-100061355D01*
X137250335Y-100200000D01*
X137287277Y-100279614D01*
X137331757Y-100375389D01*
X137376790Y-100472279D01*
X137419901Y-100564964D01*
X137458619Y-100648125D01*
X137490469Y-100716441D01*
X137499498Y-100735823D01*
X137527972Y-100797449D01*
X137552538Y-100851367D01*
X137571807Y-100894479D01*
X137584387Y-100923685D01*
X137588889Y-100935886D01*
X137585724Y-100936765D01*
X137563829Y-100938329D01*
X137522825Y-100939778D01*
X137464738Y-100941083D01*
X137391590Y-100942216D01*
X137305408Y-100943148D01*
X137208214Y-100943849D01*
X137102033Y-100944290D01*
X136988889Y-100944444D01*
X136927256Y-100944393D01*
X136817608Y-100944043D01*
X136716012Y-100943387D01*
X136624492Y-100942458D01*
X136545073Y-100941288D01*
X136479779Y-100939909D01*
X136430634Y-100938354D01*
X136399663Y-100936656D01*
X136388889Y-100934846D01*
X136388185Y-100932280D01*
X136380549Y-100912719D01*
X136365404Y-100876442D01*
X136343849Y-100826010D01*
X136316983Y-100763984D01*
X136285906Y-100692928D01*
X136251719Y-100615401D01*
X136243678Y-100597238D01*
X136213486Y-100529022D01*
X136185180Y-100465040D01*
X136157776Y-100403060D01*
X136130288Y-100340846D01*
X136101730Y-100276165D01*
X136071118Y-100206783D01*
X136037466Y-100130466D01*
X135999787Y-100044980D01*
X135957098Y-99948091D01*
X135908412Y-99837565D01*
X135852744Y-99711168D01*
X135789109Y-99566666D01*
X135755569Y-99490524D01*
X135710915Y-99389197D01*
X135662466Y-99279300D01*
X135612998Y-99167124D01*
X135565284Y-99058963D01*
X135522100Y-98961111D01*
X135487958Y-98883763D01*
X135425314Y-98741817D01*
X135362055Y-98598445D01*
X135299378Y-98456366D01*
X135238485Y-98318300D01*
X135180573Y-98186966D01*
X135126842Y-98065083D01*
X135078491Y-97955370D01*
X135036719Y-97860547D01*
X135002725Y-97783333D01*
X134996049Y-97768165D01*
X134969041Y-97706850D01*
X134935545Y-97630859D01*
X134897471Y-97544518D01*
X134856725Y-97452155D01*
X134815217Y-97358095D01*
X134774854Y-97266666D01*
X134758236Y-97229015D01*
X134719357Y-97140794D01*
X134681440Y-97054587D01*
X134646091Y-96974056D01*
X134614915Y-96902862D01*
X134589520Y-96844667D01*
X134571512Y-96803132D01*
X134570039Y-96799719D01*
X134549361Y-96752854D01*
X134531908Y-96715174D01*
X134519477Y-96690443D01*
X134513867Y-96682430D01*
X134510801Y-96691419D01*
X134503811Y-96718236D01*
X134494210Y-96758305D01*
X134483121Y-96807075D01*
X134477118Y-96834135D01*
X134466650Y-96881366D01*
X134452078Y-96947127D01*
X134433755Y-97029832D01*
X134412032Y-97127894D01*
X134387259Y-97239728D01*
X134359790Y-97363747D01*
X134329974Y-97498365D01*
X134298163Y-97641997D01*
X134264708Y-97793056D01*
X134229961Y-97949956D01*
X134194273Y-98111111D01*
X134148636Y-98316986D01*
X134103201Y-98521330D01*
X134061841Y-98706465D01*
X134024224Y-98873697D01*
X133990018Y-99024333D01*
X133958891Y-99159679D01*
X133930510Y-99281042D01*
X133904545Y-99389729D01*
X133880663Y-99487046D01*
X133858533Y-99574300D01*
X133837822Y-99652797D01*
X133818199Y-99723844D01*
X133799331Y-99788748D01*
X133780888Y-99848815D01*
X133762536Y-99905352D01*
X133743944Y-99959666D01*
X133724781Y-100013062D01*
X133704714Y-100066849D01*
X133683411Y-100122332D01*
X133663067Y-100173786D01*
X133602293Y-100315011D01*
X133540825Y-100437296D01*
X133476718Y-100543048D01*
X133408032Y-100634670D01*
X133332821Y-100714567D01*
X133249143Y-100785145D01*
X133155055Y-100848808D01*
X133048614Y-100907960D01*
X133034050Y-100915330D01*
X132959262Y-100950977D01*
X132893184Y-100977653D01*
X132827602Y-100998377D01*
X132754301Y-101016170D01*
X132734669Y-101019971D01*
X132658459Y-101028961D01*
X132571302Y-101032493D01*
X132481309Y-101030659D01*
X132396593Y-101023552D01*
X132325268Y-101011265D01*
X132231417Y-100983374D01*
X132102473Y-100925900D01*
X131982390Y-100848975D01*
X131872023Y-100753483D01*
X131772228Y-100640310D01*
X131683860Y-100510340D01*
X131607774Y-100364460D01*
X131544826Y-100203553D01*
X131540928Y-100191705D01*
X131507576Y-100076669D01*
X131477429Y-99948874D01*
X131452309Y-99816789D01*
X131434040Y-99688888D01*
X131432898Y-99678584D01*
X131428063Y-99627585D01*
X131422770Y-99562395D01*
X131417354Y-99488203D01*
X131412150Y-99410199D01*
X131407494Y-99333576D01*
X131403720Y-99263522D01*
X131401162Y-99205230D01*
X131400157Y-99163888D01*
X131400000Y-99122222D01*
X131515986Y-99122222D01*
X131631972Y-99122222D01*
X131638907Y-99175000D01*
X131639026Y-99175901D01*
X131650874Y-99254311D01*
X131666058Y-99337856D01*
X131683157Y-99419728D01*
X131700750Y-99493118D01*
X131717416Y-99551219D01*
X131731745Y-99592538D01*
X131785649Y-99715812D01*
X131851020Y-99824889D01*
X131926458Y-99917961D01*
X132010568Y-99993219D01*
X132101950Y-100048855D01*
X132160166Y-100073695D01*
X132279929Y-100107550D01*
X132402475Y-100120792D01*
X132525711Y-100113960D01*
X132647547Y-100087592D01*
X132765892Y-100042224D01*
X132878655Y-99978396D01*
X132983744Y-99896644D01*
X133079070Y-99797508D01*
X133097992Y-99774314D01*
X133154167Y-99699013D01*
X133207875Y-99616472D01*
X133259556Y-99525456D01*
X133309649Y-99424732D01*
X133358591Y-99313066D01*
X133406821Y-99189224D01*
X133454777Y-99051973D01*
X133502899Y-98900078D01*
X133551624Y-98732307D01*
X133601391Y-98547425D01*
X133652638Y-98344198D01*
X133705804Y-98121394D01*
X133761328Y-97877777D01*
X133779931Y-97794536D01*
X133805211Y-97681468D01*
X133830901Y-97566623D01*
X133855949Y-97454694D01*
X133879306Y-97350374D01*
X133899921Y-97258356D01*
X133916743Y-97183333D01*
X133923622Y-97152671D01*
X133939823Y-97080439D01*
X133959823Y-96991247D01*
X133982932Y-96888172D01*
X134008460Y-96774290D01*
X134035719Y-96652678D01*
X134064019Y-96526412D01*
X134092670Y-96398568D01*
X134120982Y-96272222D01*
X134164127Y-96079959D01*
X134235013Y-95765571D01*
X134301786Y-95471608D01*
X134364691Y-95197226D01*
X134423974Y-94941579D01*
X134479879Y-94703821D01*
X134532651Y-94483107D01*
X134582537Y-94278592D01*
X134629781Y-94089431D01*
X134674629Y-93914777D01*
X134717325Y-93753786D01*
X134758115Y-93605613D01*
X134797244Y-93469412D01*
X134834958Y-93344337D01*
X134871501Y-93229544D01*
X134907118Y-93124186D01*
X134942056Y-93027420D01*
X134976559Y-92938399D01*
X135010872Y-92856277D01*
X135045241Y-92780211D01*
X135079911Y-92709353D01*
X135115127Y-92642860D01*
X135151134Y-92579885D01*
X135188178Y-92519584D01*
X135226503Y-92461111D01*
X135313125Y-92347691D01*
X135412948Y-92243892D01*
X135521927Y-92153522D01*
X135637123Y-92078741D01*
X135755598Y-92021710D01*
X135874416Y-91984588D01*
X135942919Y-91972861D01*
X136063519Y-91966712D01*
X136187870Y-91976393D01*
G37*
%TD*%
%LPC*%
D12*
%TO.C,*%
X175750000Y-66000000D03*
%TD*%
D13*
%TO.C,J3*%
X143500000Y-108500000D03*
X140960000Y-108500000D03*
X138420000Y-108500000D03*
X135880000Y-108500000D03*
X133340000Y-108500000D03*
X130800000Y-108500000D03*
X128260000Y-108500000D03*
D14*
X125720000Y-108500000D03*
%TD*%
D12*
%TO.C,*%
X94500000Y-112750000D03*
%TD*%
%TO.C,REF\u002A\u002A*%
X94750000Y-65500000D03*
%TD*%
D13*
%TO.C,TP14*%
X92500000Y-73750000D03*
%TD*%
D12*
%TO.C,*%
X175750000Y-113000000D03*
%TD*%
D14*
%TO.C,J1*%
X102500000Y-108500000D03*
D13*
X105040000Y-108500000D03*
X107580000Y-108500000D03*
X110120000Y-108500000D03*
X112660000Y-108500000D03*
X115200000Y-108500000D03*
X117740000Y-108500000D03*
X120280000Y-108500000D03*
%TD*%
D14*
%TO.C,J5*%
X166000000Y-81920000D03*
D13*
X166000000Y-84460000D03*
X166000000Y-87000000D03*
%TD*%
D14*
%TO.C,J2*%
X165100000Y-106790000D03*
D13*
X165100000Y-104250000D03*
X165100000Y-101710000D03*
X165100000Y-99170000D03*
%TD*%
D14*
%TO.C,J4*%
X104650000Y-86725000D03*
D13*
X104650000Y-89265000D03*
%TD*%
%LPD*%
M02*
