M48
; DRILL file {KiCad 8.0.5} date 2024-09-20T11:31:44+1000
; FORMAT={-:-/ absolute / metric / decimal}
; #@! TF.CreationDate,2024-09-20T11:31:44+10:00
; #@! TF.GenerationSoftware,Kicad,Pcbnew,8.0.5
; #@! TF.FileFunction,Plated,1,2,PTH
FMAT,2
METRIC
; #@! TA.AperFunction,Plated,PTH,ViaDrill
T1C0.300
; #@! TA.AperFunction,Plated,PTH,ComponentDrill
T2C0.300
; #@! TA.AperFunction,Plated,PTH,ComponentDrill
T3C1.000
; #@! TA.AperFunction,Plated,PTH,ComponentDrill
T4C1.200
; #@! TA.AperFunction,Plated,PTH,ComponentDrill
T5C3.200
%
G90
G05
T1
X102.45Y-98.45
X102.7Y-85.95
X109.825Y-90.175
X112.1Y-90.25
X114.4Y-87.8
X115.375Y-87.775
X118.5Y-84.1
X120.5Y-97.05
X121.0Y-84.075
X125.25Y-90.15
X126.0Y-84.1
X126.05Y-97.0
X128.5Y-80.475
X146.025Y-80.5
X146.05Y-102.3
X150.975Y-105.75
X159.675Y-95.725
X160.35Y-100.8
X162.7Y-94.1
X165.167Y-94.085
T2
X134.35Y-87.48
X134.35Y-88.88
X135.05Y-86.78
X135.05Y-88.18
X135.05Y-89.58
X135.75Y-87.48
X135.75Y-88.88
X136.45Y-86.78
X136.45Y-88.18
X136.45Y-89.58
X137.15Y-87.48
X137.15Y-88.88
T3
X94.75Y-74.0
T4
X94.675Y-93.36
X94.675Y-95.9
X102.5Y-108.5
X105.04Y-108.5
X107.58Y-108.5
X110.12Y-108.5
X112.66Y-108.5
X115.2Y-108.5
X117.74Y-108.5
X120.28Y-108.5
X125.72Y-108.5
X128.26Y-108.5
X130.8Y-108.5
X133.34Y-108.5
X135.88Y-108.5
X138.42Y-108.5
X140.96Y-108.5
X143.5Y-108.5
X165.1Y-99.17
X165.1Y-101.71
X165.1Y-104.25
X165.1Y-106.79
X166.0Y-81.92
X166.0Y-84.46
X166.0Y-87.0
T5
X94.5Y-112.75
X94.75Y-65.5
X175.75Y-66.0
X175.75Y-113.0
M30
