%TF.GenerationSoftware,KiCad,Pcbnew,8.0.5*%
%TF.CreationDate,2024-09-20T11:31:42+10:00*%
%TF.ProjectId,relay_to_rs485,72656c61-795f-4746-9f5f-72733438352e,rev?*%
%TF.SameCoordinates,Original*%
%TF.FileFunction,Soldermask,Top*%
%TF.FilePolarity,Negative*%
%FSLAX46Y46*%
G04 Gerber Fmt 4.6, Leading zero omitted, Abs format (unit mm)*
G04 Created by KiCad (PCBNEW 8.0.5) date 2024-09-20 11:31:42*
%MOMM*%
%LPD*%
G01*
G04 APERTURE LIST*
G04 Aperture macros list*
%AMRoundRect*
0 Rectangle with rounded corners*
0 $1 Rounding radius*
0 $2 $3 $4 $5 $6 $7 $8 $9 X,Y pos of 4 corners*
0 Add a 4 corners polygon primitive as box body*
4,1,4,$2,$3,$4,$5,$6,$7,$8,$9,$2,$3,0*
0 Add four circle primitives for the rounded corners*
1,1,$1+$1,$2,$3*
1,1,$1+$1,$4,$5*
1,1,$1+$1,$6,$7*
1,1,$1+$1,$8,$9*
0 Add four rect primitives between the rounded corners*
20,1,$1+$1,$2,$3,$4,$5,0*
20,1,$1+$1,$4,$5,$6,$7,0*
20,1,$1+$1,$6,$7,$8,$9,0*
20,1,$1+$1,$8,$9,$2,$3,0*%
%AMFreePoly0*
4,1,19,0.500000,-0.750000,0.000000,-0.750000,0.000000,-0.744911,-0.071157,-0.744911,-0.207708,-0.704816,-0.327430,-0.627875,-0.420627,-0.520320,-0.479746,-0.390866,-0.500000,-0.250000,-0.500000,0.250000,-0.479746,0.390866,-0.420627,0.520320,-0.327430,0.627875,-0.207708,0.704816,-0.071157,0.744911,0.000000,0.744911,0.000000,0.750000,0.500000,0.750000,0.500000,-0.750000,0.500000,-0.750000,
$1*%
%AMFreePoly1*
4,1,19,0.000000,0.744911,0.071157,0.744911,0.207708,0.704816,0.327430,0.627875,0.420627,0.520320,0.479746,0.390866,0.500000,0.250000,0.500000,-0.250000,0.479746,-0.390866,0.420627,-0.520320,0.327430,-0.627875,0.207708,-0.704816,0.071157,-0.744911,0.000000,-0.744911,0.000000,-0.750000,-0.500000,-0.750000,-0.500000,0.750000,0.000000,0.750000,0.000000,0.744911,0.000000,0.744911,
$1*%
G04 Aperture macros list end*
%ADD10RoundRect,0.225000X0.375000X-0.225000X0.375000X0.225000X-0.375000X0.225000X-0.375000X-0.225000X0*%
%ADD11R,1.500000X1.500000*%
%ADD12FreePoly0,0.000000*%
%ADD13FreePoly1,0.000000*%
%ADD14RoundRect,0.250000X-0.475000X0.337500X-0.475000X-0.337500X0.475000X-0.337500X0.475000X0.337500X0*%
%ADD15RoundRect,0.250000X0.350000X0.450000X-0.350000X0.450000X-0.350000X-0.450000X0.350000X-0.450000X0*%
%ADD16C,5.700000*%
%ADD17RoundRect,0.250000X0.450000X-0.350000X0.450000X0.350000X-0.450000X0.350000X-0.450000X-0.350000X0*%
%ADD18RoundRect,0.375000X-0.625000X-0.375000X0.625000X-0.375000X0.625000X0.375000X-0.625000X0.375000X0*%
%ADD19RoundRect,0.500000X-0.500000X-1.400000X0.500000X-1.400000X0.500000X1.400000X-0.500000X1.400000X0*%
%ADD20R,2.000000X2.000000*%
%ADD21C,2.000000*%
%ADD22RoundRect,0.200000X0.250000X0.200000X-0.250000X0.200000X-0.250000X-0.200000X0.250000X-0.200000X0*%
%ADD23RoundRect,0.250000X0.475000X-0.337500X0.475000X0.337500X-0.475000X0.337500X-0.475000X-0.337500X0*%
%ADD24FreePoly0,270.000000*%
%ADD25FreePoly1,270.000000*%
%ADD26RoundRect,0.150000X-0.825000X-0.150000X0.825000X-0.150000X0.825000X0.150000X-0.825000X0.150000X0*%
%ADD27RoundRect,0.250000X-0.450000X0.325000X-0.450000X-0.325000X0.450000X-0.325000X0.450000X0.325000X0*%
%ADD28RoundRect,0.250000X-0.350000X0.275000X-0.350000X-0.275000X0.350000X-0.275000X0.350000X0.275000X0*%
%ADD29RoundRect,0.250000X-0.337500X-0.475000X0.337500X-0.475000X0.337500X0.475000X-0.337500X0.475000X0*%
%ADD30C,0.600000*%
%ADD31R,3.900000X3.900000*%
%ADD32R,1.500000X0.900000*%
%ADD33R,0.900000X1.500000*%
G04 APERTURE END LIST*
D10*
%TO.C,DZ1*%
X102650000Y-89250000D03*
X102650000Y-85950000D03*
%TD*%
D11*
%TO.C,TP12*%
X151250000Y-98250000D03*
%TD*%
%TO.C,TP9_A*%
X152850000Y-108975000D03*
%TD*%
D12*
%TO.C,JP1*%
X123950000Y-90150000D03*
D13*
X125250000Y-90150000D03*
%TD*%
D14*
%TO.C,C2*%
X118500000Y-81962500D03*
X118500000Y-84037500D03*
%TD*%
%TO.C,C9*%
X126000000Y-82000000D03*
X126000000Y-84075000D03*
%TD*%
D11*
%TO.C,TP15_VCC1*%
X114825000Y-95200000D03*
%TD*%
%TO.C,TP16_TX*%
X159450000Y-83500000D03*
%TD*%
D15*
%TO.C,R6*%
X149600000Y-95700000D03*
X151600000Y-95700000D03*
%TD*%
D16*
%TO.C,*%
X175750000Y-66000000D03*
%TD*%
D17*
%TO.C,R1*%
X160400000Y-106800000D03*
X160400000Y-104800000D03*
%TD*%
D11*
%TO.C,TP3_C1*%
X107750000Y-114000000D03*
%TD*%
D18*
%TO.C,U3*%
X114850000Y-92300000D03*
D19*
X121150000Y-90000000D03*
D18*
X114850000Y-90000000D03*
X114850000Y-87700000D03*
%TD*%
D11*
%TO.C,TP2_B1*%
X105000000Y-114000000D03*
%TD*%
D20*
%TO.C,J3*%
X125720000Y-108500000D03*
D21*
X128260000Y-108500000D03*
X130800000Y-108500000D03*
X133340000Y-108500000D03*
X135880000Y-108500000D03*
X138420000Y-108500000D03*
X140960000Y-108500000D03*
X143500000Y-108500000D03*
%TD*%
D22*
%TO.C,D1*%
X153000000Y-106700000D03*
X153000000Y-104800000D03*
X151000000Y-105750000D03*
%TD*%
D16*
%TO.C,*%
X94500000Y-112750000D03*
%TD*%
D14*
%TO.C,C1*%
X121000000Y-82000000D03*
X121000000Y-84075000D03*
%TD*%
D23*
%TO.C,C4*%
X109850000Y-90187500D03*
X109850000Y-92262500D03*
%TD*%
D16*
%TO.C,REF\u002A\u002A*%
X94750000Y-65500000D03*
%TD*%
D15*
%TO.C,R7*%
X152000000Y-84075000D03*
X150000000Y-84075000D03*
%TD*%
D24*
%TO.C,JP2*%
X146000000Y-100900000D03*
D25*
X146000000Y-102200000D03*
%TD*%
D21*
%TO.C,TP14_GND1*%
X94750000Y-74000000D03*
%TD*%
D11*
%TO.C,TP17_RX*%
X159450000Y-86075000D03*
%TD*%
D17*
%TO.C,R4*%
X160400000Y-110850000D03*
X160400000Y-108850000D03*
%TD*%
D16*
%TO.C,*%
X175750000Y-113000000D03*
%TD*%
D11*
%TO.C,TP7_G1*%
X118750000Y-114000000D03*
%TD*%
D26*
%TO.C,U2*%
X159642224Y-91880000D03*
X159642224Y-93150000D03*
X159642224Y-94420000D03*
X159642224Y-95690000D03*
X154692224Y-95690000D03*
X154692224Y-94420000D03*
X154692224Y-93150000D03*
X154692224Y-91880000D03*
%TD*%
D11*
%TO.C,TP10_B*%
X152875000Y-102525000D03*
%TD*%
D27*
%TO.C,R3*%
X102450000Y-98375000D03*
X102450000Y-96325000D03*
%TD*%
D28*
%TO.C,L1*%
X123500000Y-82050000D03*
X123500000Y-84350000D03*
%TD*%
D20*
%TO.C,J1*%
X102500000Y-108500000D03*
D21*
X105040000Y-108500000D03*
X107580000Y-108500000D03*
X110120000Y-108500000D03*
X112660000Y-108500000D03*
X115200000Y-108500000D03*
X117740000Y-108500000D03*
X120280000Y-108500000D03*
%TD*%
D29*
%TO.C,C3*%
X123962500Y-97000000D03*
X126037500Y-97000000D03*
%TD*%
D20*
%TO.C,J5*%
X166000000Y-81920000D03*
D21*
X166000000Y-84460000D03*
X166000000Y-87000000D03*
%TD*%
D17*
%TO.C,R5*%
X160375000Y-102800000D03*
X160375000Y-100800000D03*
%TD*%
D11*
%TO.C,TP8_H1*%
X121500000Y-114000000D03*
%TD*%
D14*
%TO.C,C6*%
X120500000Y-95000000D03*
X120500000Y-97075000D03*
%TD*%
D11*
%TO.C,TP4_D1*%
X110500000Y-114000000D03*
%TD*%
D17*
%TO.C,R2*%
X124000000Y-95000000D03*
X124000000Y-93000000D03*
%TD*%
D11*
%TO.C,TP5_E1*%
X113250000Y-114000000D03*
%TD*%
%TO.C,TP6_F1*%
X116000000Y-114000000D03*
%TD*%
%TO.C,TP13_3V3*%
X115950000Y-82350000D03*
%TD*%
D20*
%TO.C,J2*%
X165100000Y-106790000D03*
D21*
X165100000Y-104250000D03*
X165100000Y-101710000D03*
X165100000Y-99170000D03*
%TD*%
D14*
%TO.C,C8*%
X162500000Y-94037500D03*
X162500000Y-91962500D03*
%TD*%
D11*
%TO.C,TP11*%
X151000000Y-88750000D03*
%TD*%
D22*
%TO.C,Q1*%
X100650000Y-93300000D03*
X102650000Y-92350000D03*
X102650000Y-94250000D03*
%TD*%
D14*
%TO.C,C7*%
X165167224Y-91960000D03*
X165167224Y-94035000D03*
%TD*%
D21*
%TO.C,J4*%
X94675000Y-95900000D03*
D20*
X94675000Y-93360000D03*
%TD*%
D23*
%TO.C,C5*%
X112125000Y-92287500D03*
X112125000Y-90212500D03*
%TD*%
D11*
%TO.C,TP1_A1*%
X102250000Y-114000000D03*
%TD*%
D30*
%TO.C,U1*%
X137150000Y-88880000D03*
X137150000Y-87480000D03*
X136450000Y-89580000D03*
X136450000Y-88180000D03*
X136450000Y-86780000D03*
X135750000Y-88880000D03*
D31*
X135750000Y-88180000D03*
D30*
X135750000Y-87480000D03*
X135050000Y-89580000D03*
X135050000Y-88180000D03*
X135050000Y-86780000D03*
X134350000Y-88880000D03*
X134350000Y-87480000D03*
D32*
X146000000Y-80460000D03*
X146000000Y-81730000D03*
X146000000Y-83000000D03*
X146000000Y-84270000D03*
X146000000Y-85540000D03*
X146000000Y-86810000D03*
X146000000Y-88080000D03*
X146000000Y-89350000D03*
X146000000Y-90620000D03*
X146000000Y-91890000D03*
X146000000Y-93160000D03*
X146000000Y-94430000D03*
X146000000Y-95700000D03*
X146000000Y-96970000D03*
D33*
X144235000Y-98220000D03*
X142965000Y-98220000D03*
X141695000Y-98220000D03*
X140425000Y-98220000D03*
X139155000Y-98220000D03*
X137885000Y-98220000D03*
X136615000Y-98220000D03*
X135345000Y-98220000D03*
X134075000Y-98220000D03*
X132805000Y-98220000D03*
X131535000Y-98220000D03*
X130265000Y-98220000D03*
D32*
X128500000Y-96970000D03*
X128500000Y-95700000D03*
X128500000Y-94430000D03*
X128500000Y-93160000D03*
X128500000Y-91890000D03*
X128500000Y-90620000D03*
X128500000Y-89350000D03*
X128500000Y-88080000D03*
X128500000Y-86810000D03*
X128500000Y-85540000D03*
X128500000Y-84270000D03*
X128500000Y-83000000D03*
X128500000Y-81730000D03*
X128500000Y-80460000D03*
%TD*%
M02*
