%TF.GenerationSoftware,KiCad,Pcbnew,8.0.4*%
%TF.CreationDate,2024-09-07T06:58:54+10:00*%
%TF.ProjectId,relay_to_rs485,72656c61-795f-4746-9f5f-72733438352e,rev?*%
%TF.SameCoordinates,Original*%
%TF.FileFunction,Legend,Top*%
%TF.FilePolarity,Positive*%
%FSLAX46Y46*%
G04 Gerber Fmt 4.6, Leading zero omitted, Abs format (unit mm)*
G04 Created by KiCad (PCBNEW 8.0.4) date 2024-09-07 06:58:54*
%MOMM*%
%LPD*%
G01*
G04 APERTURE LIST*
G04 Aperture macros list*
%AMRoundRect*
0 Rectangle with rounded corners*
0 $1 Rounding radius*
0 $2 $3 $4 $5 $6 $7 $8 $9 X,Y pos of 4 corners*
0 Add a 4 corners polygon primitive as box body*
4,1,4,$2,$3,$4,$5,$6,$7,$8,$9,$2,$3,0*
0 Add four circle primitives for the rounded corners*
1,1,$1+$1,$2,$3*
1,1,$1+$1,$4,$5*
1,1,$1+$1,$6,$7*
1,1,$1+$1,$8,$9*
0 Add four rect primitives between the rounded corners*
20,1,$1+$1,$2,$3,$4,$5,0*
20,1,$1+$1,$4,$5,$6,$7,0*
20,1,$1+$1,$6,$7,$8,$9,0*
20,1,$1+$1,$8,$9,$2,$3,0*%
%AMFreePoly0*
4,1,19,0.500000,-0.750000,0.000000,-0.750000,0.000000,-0.744911,-0.071157,-0.744911,-0.207708,-0.704816,-0.327430,-0.627875,-0.420627,-0.520320,-0.479746,-0.390866,-0.500000,-0.250000,-0.500000,0.250000,-0.479746,0.390866,-0.420627,0.520320,-0.327430,0.627875,-0.207708,0.704816,-0.071157,0.744911,0.000000,0.744911,0.000000,0.750000,0.500000,0.750000,0.500000,-0.750000,0.500000,-0.750000,
$1*%
%AMFreePoly1*
4,1,19,0.000000,0.744911,0.071157,0.744911,0.207708,0.704816,0.327430,0.627875,0.420627,0.520320,0.479746,0.390866,0.500000,0.250000,0.500000,-0.250000,0.479746,-0.390866,0.420627,-0.520320,0.327430,-0.627875,0.207708,-0.704816,0.071157,-0.744911,0.000000,-0.744911,0.000000,-0.750000,-0.500000,-0.750000,-0.500000,0.750000,0.000000,0.750000,0.000000,0.744911,0.000000,0.744911,
$1*%
G04 Aperture macros list end*
%ADD10C,0.100000*%
%ADD11C,0.200000*%
%ADD12C,0.170000*%
%ADD13C,0.120000*%
%ADD14R,1.500000X1.500000*%
%ADD15FreePoly0,270.000000*%
%ADD16FreePoly1,270.000000*%
%ADD17RoundRect,0.250000X-0.475000X0.337500X-0.475000X-0.337500X0.475000X-0.337500X0.475000X0.337500X0*%
%ADD18C,5.700000*%
%ADD19RoundRect,0.250000X0.450000X-0.350000X0.450000X0.350000X-0.450000X0.350000X-0.450000X-0.350000X0*%
%ADD20RoundRect,0.375000X-0.625000X-0.375000X0.625000X-0.375000X0.625000X0.375000X-0.625000X0.375000X0*%
%ADD21RoundRect,0.500000X-0.500000X-1.400000X0.500000X-1.400000X0.500000X1.400000X-0.500000X1.400000X0*%
%ADD22R,2.000000X2.000000*%
%ADD23C,2.000000*%
%ADD24RoundRect,0.200000X0.250000X0.200000X-0.250000X0.200000X-0.250000X-0.200000X0.250000X-0.200000X0*%
%ADD25RoundRect,0.250000X0.337500X0.475000X-0.337500X0.475000X-0.337500X-0.475000X0.337500X-0.475000X0*%
%ADD26FreePoly0,0.000000*%
%ADD27FreePoly1,0.000000*%
%ADD28RoundRect,0.150000X-0.825000X-0.150000X0.825000X-0.150000X0.825000X0.150000X-0.825000X0.150000X0*%
%ADD29RoundRect,0.250000X0.450000X-0.325000X0.450000X0.325000X-0.450000X0.325000X-0.450000X-0.325000X0*%
%ADD30RoundRect,0.250000X-0.337500X-0.475000X0.337500X-0.475000X0.337500X0.475000X-0.337500X0.475000X0*%
%ADD31RoundRect,0.200000X-0.200000X0.250000X-0.200000X-0.250000X0.200000X-0.250000X0.200000X0.250000X0*%
%ADD32R,1.500000X0.900000*%
%ADD33R,0.900000X1.500000*%
%ADD34C,0.600000*%
%ADD35R,3.900000X3.900000*%
G04 APERTURE END LIST*
D10*
X95500000Y-91000000D02*
X97350000Y-91000000D01*
X104000000Y-84500000D02*
X105000000Y-84500000D01*
X96425000Y-90000000D02*
X96425000Y-91925000D01*
X162750000Y-70250000D02*
X172750000Y-70250000D01*
X172750000Y-72750000D01*
X162750000Y-72750000D01*
X162750000Y-70250000D01*
G36*
X162750000Y-70250000D02*
G01*
X172750000Y-70250000D01*
X172750000Y-72750000D01*
X162750000Y-72750000D01*
X162750000Y-70250000D01*
G37*
X104500000Y-84200000D02*
X104500000Y-84800000D01*
X96425000Y-85925000D02*
X96425000Y-84075000D01*
D11*
G36*
X121152212Y-104826409D02*
G01*
X120158562Y-104826409D01*
X120158562Y-103617219D01*
X120269673Y-103617219D01*
X120269673Y-104617219D01*
X120271594Y-104636728D01*
X120286526Y-104672776D01*
X120314116Y-104700366D01*
X120350164Y-104715298D01*
X120389182Y-104715298D01*
X120425230Y-104700366D01*
X120452820Y-104672776D01*
X120467752Y-104636728D01*
X120469673Y-104617219D01*
X120469673Y-104193409D01*
X120841101Y-104193409D01*
X120841101Y-104617219D01*
X120843022Y-104636728D01*
X120857954Y-104672776D01*
X120885544Y-104700366D01*
X120921592Y-104715298D01*
X120960610Y-104715298D01*
X120996658Y-104700366D01*
X121024248Y-104672776D01*
X121039180Y-104636728D01*
X121041101Y-104617219D01*
X121041101Y-103617219D01*
X121039180Y-103597710D01*
X121024248Y-103561662D01*
X120996658Y-103534072D01*
X120960610Y-103519140D01*
X120921592Y-103519140D01*
X120885544Y-103534072D01*
X120857954Y-103561662D01*
X120843022Y-103597710D01*
X120841101Y-103617219D01*
X120841101Y-103993409D01*
X120469673Y-103993409D01*
X120469673Y-103617219D01*
X120467752Y-103597710D01*
X120452820Y-103561662D01*
X120425230Y-103534072D01*
X120389182Y-103519140D01*
X120350164Y-103519140D01*
X120314116Y-103534072D01*
X120286526Y-103561662D01*
X120271594Y-103597710D01*
X120269673Y-103617219D01*
X120158562Y-103617219D01*
X120158562Y-103408029D01*
X121152212Y-103408029D01*
X121152212Y-104826409D01*
G37*
G36*
X125659502Y-104231504D02*
G01*
X125460797Y-104231504D01*
X125560149Y-103933446D01*
X125659502Y-104231504D01*
G37*
G36*
X126103808Y-104827545D02*
G01*
X125016490Y-104827545D01*
X125016490Y-104604712D01*
X125127601Y-104604712D01*
X125130367Y-104643632D01*
X125147817Y-104678531D01*
X125177293Y-104704096D01*
X125214309Y-104716434D01*
X125253229Y-104713668D01*
X125288128Y-104696218D01*
X125313693Y-104666742D01*
X125321684Y-104648842D01*
X125394130Y-104431504D01*
X125726168Y-104431504D01*
X125798614Y-104648841D01*
X125806605Y-104666742D01*
X125832170Y-104696218D01*
X125867069Y-104713667D01*
X125905989Y-104716434D01*
X125943005Y-104704095D01*
X125972481Y-104678530D01*
X125989931Y-104643631D01*
X125992697Y-104604711D01*
X125988350Y-104585596D01*
X125655017Y-103585596D01*
X125647026Y-103567696D01*
X125642341Y-103562294D01*
X125639148Y-103555908D01*
X125629679Y-103547695D01*
X125621461Y-103538220D01*
X125615069Y-103535023D01*
X125609672Y-103530343D01*
X125597778Y-103526378D01*
X125586562Y-103520770D01*
X125579434Y-103520263D01*
X125572656Y-103518004D01*
X125560151Y-103518893D01*
X125547642Y-103518004D01*
X125540860Y-103520264D01*
X125533736Y-103520771D01*
X125522527Y-103526374D01*
X125510626Y-103530342D01*
X125505225Y-103535025D01*
X125498837Y-103538220D01*
X125490621Y-103547691D01*
X125481150Y-103555907D01*
X125477955Y-103562296D01*
X125473272Y-103567696D01*
X125465281Y-103585597D01*
X125131948Y-104585596D01*
X125127601Y-104604712D01*
X125016490Y-104604712D01*
X125016490Y-103406893D01*
X126103808Y-103406893D01*
X126103808Y-104827545D01*
G37*
X118250625Y-66244838D02*
X117583958Y-65292457D01*
X117107768Y-66244838D02*
X117107768Y-64244838D01*
X117107768Y-64244838D02*
X117869673Y-64244838D01*
X117869673Y-64244838D02*
X118060149Y-64340076D01*
X118060149Y-64340076D02*
X118155387Y-64435314D01*
X118155387Y-64435314D02*
X118250625Y-64625790D01*
X118250625Y-64625790D02*
X118250625Y-64911504D01*
X118250625Y-64911504D02*
X118155387Y-65101980D01*
X118155387Y-65101980D02*
X118060149Y-65197219D01*
X118060149Y-65197219D02*
X117869673Y-65292457D01*
X117869673Y-65292457D02*
X117107768Y-65292457D01*
X119869673Y-66149600D02*
X119679197Y-66244838D01*
X119679197Y-66244838D02*
X119298244Y-66244838D01*
X119298244Y-66244838D02*
X119107768Y-66149600D01*
X119107768Y-66149600D02*
X119012530Y-65959123D01*
X119012530Y-65959123D02*
X119012530Y-65197219D01*
X119012530Y-65197219D02*
X119107768Y-65006742D01*
X119107768Y-65006742D02*
X119298244Y-64911504D01*
X119298244Y-64911504D02*
X119679197Y-64911504D01*
X119679197Y-64911504D02*
X119869673Y-65006742D01*
X119869673Y-65006742D02*
X119964911Y-65197219D01*
X119964911Y-65197219D02*
X119964911Y-65387695D01*
X119964911Y-65387695D02*
X119012530Y-65578171D01*
X121107768Y-66244838D02*
X120917292Y-66149600D01*
X120917292Y-66149600D02*
X120822054Y-65959123D01*
X120822054Y-65959123D02*
X120822054Y-64244838D01*
X122726816Y-66244838D02*
X122726816Y-65197219D01*
X122726816Y-65197219D02*
X122631578Y-65006742D01*
X122631578Y-65006742D02*
X122441102Y-64911504D01*
X122441102Y-64911504D02*
X122060149Y-64911504D01*
X122060149Y-64911504D02*
X121869673Y-65006742D01*
X122726816Y-66149600D02*
X122536340Y-66244838D01*
X122536340Y-66244838D02*
X122060149Y-66244838D01*
X122060149Y-66244838D02*
X121869673Y-66149600D01*
X121869673Y-66149600D02*
X121774435Y-65959123D01*
X121774435Y-65959123D02*
X121774435Y-65768647D01*
X121774435Y-65768647D02*
X121869673Y-65578171D01*
X121869673Y-65578171D02*
X122060149Y-65482933D01*
X122060149Y-65482933D02*
X122536340Y-65482933D01*
X122536340Y-65482933D02*
X122726816Y-65387695D01*
X123488721Y-64911504D02*
X123964911Y-66244838D01*
X124441102Y-64911504D02*
X123964911Y-66244838D01*
X123964911Y-66244838D02*
X123774435Y-66721028D01*
X123774435Y-66721028D02*
X123679197Y-66816266D01*
X123679197Y-66816266D02*
X123488721Y-66911504D01*
X126441103Y-64911504D02*
X127203007Y-64911504D01*
X126726817Y-64244838D02*
X126726817Y-65959123D01*
X126726817Y-65959123D02*
X126822055Y-66149600D01*
X126822055Y-66149600D02*
X127012531Y-66244838D01*
X127012531Y-66244838D02*
X127203007Y-66244838D01*
X128155388Y-66244838D02*
X127964912Y-66149600D01*
X127964912Y-66149600D02*
X127869674Y-66054361D01*
X127869674Y-66054361D02*
X127774436Y-65863885D01*
X127774436Y-65863885D02*
X127774436Y-65292457D01*
X127774436Y-65292457D02*
X127869674Y-65101980D01*
X127869674Y-65101980D02*
X127964912Y-65006742D01*
X127964912Y-65006742D02*
X128155388Y-64911504D01*
X128155388Y-64911504D02*
X128441103Y-64911504D01*
X128441103Y-64911504D02*
X128631579Y-65006742D01*
X128631579Y-65006742D02*
X128726817Y-65101980D01*
X128726817Y-65101980D02*
X128822055Y-65292457D01*
X128822055Y-65292457D02*
X128822055Y-65863885D01*
X128822055Y-65863885D02*
X128726817Y-66054361D01*
X128726817Y-66054361D02*
X128631579Y-66149600D01*
X128631579Y-66149600D02*
X128441103Y-66244838D01*
X128441103Y-66244838D02*
X128155388Y-66244838D01*
X132345865Y-66244838D02*
X131679198Y-65292457D01*
X131203008Y-66244838D02*
X131203008Y-64244838D01*
X131203008Y-64244838D02*
X131964913Y-64244838D01*
X131964913Y-64244838D02*
X132155389Y-64340076D01*
X132155389Y-64340076D02*
X132250627Y-64435314D01*
X132250627Y-64435314D02*
X132345865Y-64625790D01*
X132345865Y-64625790D02*
X132345865Y-64911504D01*
X132345865Y-64911504D02*
X132250627Y-65101980D01*
X132250627Y-65101980D02*
X132155389Y-65197219D01*
X132155389Y-65197219D02*
X131964913Y-65292457D01*
X131964913Y-65292457D02*
X131203008Y-65292457D01*
X133107770Y-66149600D02*
X133393484Y-66244838D01*
X133393484Y-66244838D02*
X133869675Y-66244838D01*
X133869675Y-66244838D02*
X134060151Y-66149600D01*
X134060151Y-66149600D02*
X134155389Y-66054361D01*
X134155389Y-66054361D02*
X134250627Y-65863885D01*
X134250627Y-65863885D02*
X134250627Y-65673409D01*
X134250627Y-65673409D02*
X134155389Y-65482933D01*
X134155389Y-65482933D02*
X134060151Y-65387695D01*
X134060151Y-65387695D02*
X133869675Y-65292457D01*
X133869675Y-65292457D02*
X133488722Y-65197219D01*
X133488722Y-65197219D02*
X133298246Y-65101980D01*
X133298246Y-65101980D02*
X133203008Y-65006742D01*
X133203008Y-65006742D02*
X133107770Y-64816266D01*
X133107770Y-64816266D02*
X133107770Y-64625790D01*
X133107770Y-64625790D02*
X133203008Y-64435314D01*
X133203008Y-64435314D02*
X133298246Y-64340076D01*
X133298246Y-64340076D02*
X133488722Y-64244838D01*
X133488722Y-64244838D02*
X133964913Y-64244838D01*
X133964913Y-64244838D02*
X134250627Y-64340076D01*
X135964913Y-64911504D02*
X135964913Y-66244838D01*
X135488722Y-64149600D02*
X135012532Y-65578171D01*
X135012532Y-65578171D02*
X136250627Y-65578171D01*
X137298246Y-65101980D02*
X137107770Y-65006742D01*
X137107770Y-65006742D02*
X137012532Y-64911504D01*
X137012532Y-64911504D02*
X136917294Y-64721028D01*
X136917294Y-64721028D02*
X136917294Y-64625790D01*
X136917294Y-64625790D02*
X137012532Y-64435314D01*
X137012532Y-64435314D02*
X137107770Y-64340076D01*
X137107770Y-64340076D02*
X137298246Y-64244838D01*
X137298246Y-64244838D02*
X137679199Y-64244838D01*
X137679199Y-64244838D02*
X137869675Y-64340076D01*
X137869675Y-64340076D02*
X137964913Y-64435314D01*
X137964913Y-64435314D02*
X138060151Y-64625790D01*
X138060151Y-64625790D02*
X138060151Y-64721028D01*
X138060151Y-64721028D02*
X137964913Y-64911504D01*
X137964913Y-64911504D02*
X137869675Y-65006742D01*
X137869675Y-65006742D02*
X137679199Y-65101980D01*
X137679199Y-65101980D02*
X137298246Y-65101980D01*
X137298246Y-65101980D02*
X137107770Y-65197219D01*
X137107770Y-65197219D02*
X137012532Y-65292457D01*
X137012532Y-65292457D02*
X136917294Y-65482933D01*
X136917294Y-65482933D02*
X136917294Y-65863885D01*
X136917294Y-65863885D02*
X137012532Y-66054361D01*
X137012532Y-66054361D02*
X137107770Y-66149600D01*
X137107770Y-66149600D02*
X137298246Y-66244838D01*
X137298246Y-66244838D02*
X137679199Y-66244838D01*
X137679199Y-66244838D02*
X137869675Y-66149600D01*
X137869675Y-66149600D02*
X137964913Y-66054361D01*
X137964913Y-66054361D02*
X138060151Y-65863885D01*
X138060151Y-65863885D02*
X138060151Y-65482933D01*
X138060151Y-65482933D02*
X137964913Y-65292457D01*
X137964913Y-65292457D02*
X137869675Y-65197219D01*
X137869675Y-65197219D02*
X137679199Y-65101980D01*
X139869675Y-64244838D02*
X138917294Y-64244838D01*
X138917294Y-64244838D02*
X138822056Y-65197219D01*
X138822056Y-65197219D02*
X138917294Y-65101980D01*
X138917294Y-65101980D02*
X139107770Y-65006742D01*
X139107770Y-65006742D02*
X139583961Y-65006742D01*
X139583961Y-65006742D02*
X139774437Y-65101980D01*
X139774437Y-65101980D02*
X139869675Y-65197219D01*
X139869675Y-65197219D02*
X139964913Y-65387695D01*
X139964913Y-65387695D02*
X139964913Y-65863885D01*
X139964913Y-65863885D02*
X139869675Y-66054361D01*
X139869675Y-66054361D02*
X139774437Y-66149600D01*
X139774437Y-66149600D02*
X139583961Y-66244838D01*
X139583961Y-66244838D02*
X139107770Y-66244838D01*
X139107770Y-66244838D02*
X138917294Y-66149600D01*
X138917294Y-66149600D02*
X138822056Y-66054361D01*
X142345866Y-66244838D02*
X142345866Y-64911504D01*
X142345866Y-64244838D02*
X142250628Y-64340076D01*
X142250628Y-64340076D02*
X142345866Y-64435314D01*
X142345866Y-64435314D02*
X142441104Y-64340076D01*
X142441104Y-64340076D02*
X142345866Y-64244838D01*
X142345866Y-64244838D02*
X142345866Y-64435314D01*
X143298247Y-64911504D02*
X143298247Y-66244838D01*
X143298247Y-65101980D02*
X143393485Y-65006742D01*
X143393485Y-65006742D02*
X143583961Y-64911504D01*
X143583961Y-64911504D02*
X143869676Y-64911504D01*
X143869676Y-64911504D02*
X144060152Y-65006742D01*
X144060152Y-65006742D02*
X144155390Y-65197219D01*
X144155390Y-65197219D02*
X144155390Y-66244838D01*
X144822057Y-64911504D02*
X145583961Y-64911504D01*
X145107771Y-64244838D02*
X145107771Y-65959123D01*
X145107771Y-65959123D02*
X145203009Y-66149600D01*
X145203009Y-66149600D02*
X145393485Y-66244838D01*
X145393485Y-66244838D02*
X145583961Y-66244838D01*
X147012533Y-66149600D02*
X146822057Y-66244838D01*
X146822057Y-66244838D02*
X146441104Y-66244838D01*
X146441104Y-66244838D02*
X146250628Y-66149600D01*
X146250628Y-66149600D02*
X146155390Y-65959123D01*
X146155390Y-65959123D02*
X146155390Y-65197219D01*
X146155390Y-65197219D02*
X146250628Y-65006742D01*
X146250628Y-65006742D02*
X146441104Y-64911504D01*
X146441104Y-64911504D02*
X146822057Y-64911504D01*
X146822057Y-64911504D02*
X147012533Y-65006742D01*
X147012533Y-65006742D02*
X147107771Y-65197219D01*
X147107771Y-65197219D02*
X147107771Y-65387695D01*
X147107771Y-65387695D02*
X146155390Y-65578171D01*
X147964914Y-66244838D02*
X147964914Y-64911504D01*
X147964914Y-65292457D02*
X148060152Y-65101980D01*
X148060152Y-65101980D02*
X148155390Y-65006742D01*
X148155390Y-65006742D02*
X148345866Y-64911504D01*
X148345866Y-64911504D02*
X148536343Y-64911504D01*
X148917295Y-64911504D02*
X149679199Y-64911504D01*
X149203009Y-66244838D02*
X149203009Y-64530552D01*
X149203009Y-64530552D02*
X149298247Y-64340076D01*
X149298247Y-64340076D02*
X149488723Y-64244838D01*
X149488723Y-64244838D02*
X149679199Y-64244838D01*
X151203009Y-66244838D02*
X151203009Y-65197219D01*
X151203009Y-65197219D02*
X151107771Y-65006742D01*
X151107771Y-65006742D02*
X150917295Y-64911504D01*
X150917295Y-64911504D02*
X150536342Y-64911504D01*
X150536342Y-64911504D02*
X150345866Y-65006742D01*
X151203009Y-66149600D02*
X151012533Y-66244838D01*
X151012533Y-66244838D02*
X150536342Y-66244838D01*
X150536342Y-66244838D02*
X150345866Y-66149600D01*
X150345866Y-66149600D02*
X150250628Y-65959123D01*
X150250628Y-65959123D02*
X150250628Y-65768647D01*
X150250628Y-65768647D02*
X150345866Y-65578171D01*
X150345866Y-65578171D02*
X150536342Y-65482933D01*
X150536342Y-65482933D02*
X151012533Y-65482933D01*
X151012533Y-65482933D02*
X151203009Y-65387695D01*
X153012533Y-66149600D02*
X152822057Y-66244838D01*
X152822057Y-66244838D02*
X152441104Y-66244838D01*
X152441104Y-66244838D02*
X152250628Y-66149600D01*
X152250628Y-66149600D02*
X152155390Y-66054361D01*
X152155390Y-66054361D02*
X152060152Y-65863885D01*
X152060152Y-65863885D02*
X152060152Y-65292457D01*
X152060152Y-65292457D02*
X152155390Y-65101980D01*
X152155390Y-65101980D02*
X152250628Y-65006742D01*
X152250628Y-65006742D02*
X152441104Y-64911504D01*
X152441104Y-64911504D02*
X152822057Y-64911504D01*
X152822057Y-64911504D02*
X153012533Y-65006742D01*
X154631581Y-66149600D02*
X154441105Y-66244838D01*
X154441105Y-66244838D02*
X154060152Y-66244838D01*
X154060152Y-66244838D02*
X153869676Y-66149600D01*
X153869676Y-66149600D02*
X153774438Y-65959123D01*
X153774438Y-65959123D02*
X153774438Y-65197219D01*
X153774438Y-65197219D02*
X153869676Y-65006742D01*
X153869676Y-65006742D02*
X154060152Y-64911504D01*
X154060152Y-64911504D02*
X154441105Y-64911504D01*
X154441105Y-64911504D02*
X154631581Y-65006742D01*
X154631581Y-65006742D02*
X154726819Y-65197219D01*
X154726819Y-65197219D02*
X154726819Y-65387695D01*
X154726819Y-65387695D02*
X153774438Y-65578171D01*
X170701885Y-108828571D02*
X170701885Y-108257143D01*
X171044742Y-108942857D02*
X169844742Y-108542857D01*
X169844742Y-108542857D02*
X171044742Y-108142857D01*
X169787600Y-106885714D02*
X171330457Y-107914286D01*
X170416171Y-106085714D02*
X170473314Y-105914286D01*
X170473314Y-105914286D02*
X170530457Y-105857143D01*
X170530457Y-105857143D02*
X170644742Y-105800000D01*
X170644742Y-105800000D02*
X170816171Y-105800000D01*
X170816171Y-105800000D02*
X170930457Y-105857143D01*
X170930457Y-105857143D02*
X170987600Y-105914286D01*
X170987600Y-105914286D02*
X171044742Y-106028571D01*
X171044742Y-106028571D02*
X171044742Y-106485714D01*
X171044742Y-106485714D02*
X169844742Y-106485714D01*
X169844742Y-106485714D02*
X169844742Y-106085714D01*
X169844742Y-106085714D02*
X169901885Y-105971429D01*
X169901885Y-105971429D02*
X169959028Y-105914286D01*
X169959028Y-105914286D02*
X170073314Y-105857143D01*
X170073314Y-105857143D02*
X170187600Y-105857143D01*
X170187600Y-105857143D02*
X170301885Y-105914286D01*
X170301885Y-105914286D02*
X170359028Y-105971429D01*
X170359028Y-105971429D02*
X170416171Y-106085714D01*
X170416171Y-106085714D02*
X170416171Y-106485714D01*
X169787600Y-104428571D02*
X171330457Y-105457143D01*
X169901885Y-103400000D02*
X169844742Y-103514286D01*
X169844742Y-103514286D02*
X169844742Y-103685714D01*
X169844742Y-103685714D02*
X169901885Y-103857143D01*
X169901885Y-103857143D02*
X170016171Y-103971428D01*
X170016171Y-103971428D02*
X170130457Y-104028571D01*
X170130457Y-104028571D02*
X170359028Y-104085714D01*
X170359028Y-104085714D02*
X170530457Y-104085714D01*
X170530457Y-104085714D02*
X170759028Y-104028571D01*
X170759028Y-104028571D02*
X170873314Y-103971428D01*
X170873314Y-103971428D02*
X170987600Y-103857143D01*
X170987600Y-103857143D02*
X171044742Y-103685714D01*
X171044742Y-103685714D02*
X171044742Y-103571428D01*
X171044742Y-103571428D02*
X170987600Y-103400000D01*
X170987600Y-103400000D02*
X170930457Y-103342857D01*
X170930457Y-103342857D02*
X170530457Y-103342857D01*
X170530457Y-103342857D02*
X170530457Y-103571428D01*
X171044742Y-102828571D02*
X169844742Y-102828571D01*
X169844742Y-102828571D02*
X171044742Y-102142857D01*
X171044742Y-102142857D02*
X169844742Y-102142857D01*
X171044742Y-101571428D02*
X169844742Y-101571428D01*
X169844742Y-101571428D02*
X169844742Y-101285714D01*
X169844742Y-101285714D02*
X169901885Y-101114285D01*
X169901885Y-101114285D02*
X170016171Y-101000000D01*
X170016171Y-101000000D02*
X170130457Y-100942857D01*
X170130457Y-100942857D02*
X170359028Y-100885714D01*
X170359028Y-100885714D02*
X170530457Y-100885714D01*
X170530457Y-100885714D02*
X170759028Y-100942857D01*
X170759028Y-100942857D02*
X170873314Y-101000000D01*
X170873314Y-101000000D02*
X170987600Y-101114285D01*
X170987600Y-101114285D02*
X171044742Y-101285714D01*
X171044742Y-101285714D02*
X171044742Y-101571428D01*
X169787600Y-99514285D02*
X171330457Y-100542857D01*
X171044742Y-99114285D02*
X169844742Y-99114285D01*
X169844742Y-99114285D02*
X171044742Y-98428571D01*
X171044742Y-98428571D02*
X169844742Y-98428571D01*
X170930457Y-97171428D02*
X170987600Y-97228571D01*
X170987600Y-97228571D02*
X171044742Y-97399999D01*
X171044742Y-97399999D02*
X171044742Y-97514285D01*
X171044742Y-97514285D02*
X170987600Y-97685714D01*
X170987600Y-97685714D02*
X170873314Y-97799999D01*
X170873314Y-97799999D02*
X170759028Y-97857142D01*
X170759028Y-97857142D02*
X170530457Y-97914285D01*
X170530457Y-97914285D02*
X170359028Y-97914285D01*
X170359028Y-97914285D02*
X170130457Y-97857142D01*
X170130457Y-97857142D02*
X170016171Y-97799999D01*
X170016171Y-97799999D02*
X169901885Y-97685714D01*
X169901885Y-97685714D02*
X169844742Y-97514285D01*
X169844742Y-97514285D02*
X169844742Y-97399999D01*
X169844742Y-97399999D02*
X169901885Y-97228571D01*
X169901885Y-97228571D02*
X169959028Y-97171428D01*
X149310149Y-115367219D02*
X149405387Y-115367219D01*
X149405387Y-115367219D02*
X149500625Y-115414838D01*
X149500625Y-115414838D02*
X149548244Y-115462457D01*
X149548244Y-115462457D02*
X149595863Y-115557695D01*
X149595863Y-115557695D02*
X149643482Y-115748171D01*
X149643482Y-115748171D02*
X149643482Y-115986266D01*
X149643482Y-115986266D02*
X149595863Y-116176742D01*
X149595863Y-116176742D02*
X149548244Y-116271980D01*
X149548244Y-116271980D02*
X149500625Y-116319600D01*
X149500625Y-116319600D02*
X149405387Y-116367219D01*
X149405387Y-116367219D02*
X149310149Y-116367219D01*
X149310149Y-116367219D02*
X149214911Y-116319600D01*
X149214911Y-116319600D02*
X149167292Y-116271980D01*
X149167292Y-116271980D02*
X149119673Y-116176742D01*
X149119673Y-116176742D02*
X149072054Y-115986266D01*
X149072054Y-115986266D02*
X149072054Y-115748171D01*
X149072054Y-115748171D02*
X149119673Y-115557695D01*
X149119673Y-115557695D02*
X149167292Y-115462457D01*
X149167292Y-115462457D02*
X149214911Y-115414838D01*
X149214911Y-115414838D02*
X149310149Y-115367219D01*
X150119673Y-116367219D02*
X150310149Y-116367219D01*
X150310149Y-116367219D02*
X150405387Y-116319600D01*
X150405387Y-116319600D02*
X150453006Y-116271980D01*
X150453006Y-116271980D02*
X150548244Y-116129123D01*
X150548244Y-116129123D02*
X150595863Y-115938647D01*
X150595863Y-115938647D02*
X150595863Y-115557695D01*
X150595863Y-115557695D02*
X150548244Y-115462457D01*
X150548244Y-115462457D02*
X150500625Y-115414838D01*
X150500625Y-115414838D02*
X150405387Y-115367219D01*
X150405387Y-115367219D02*
X150214911Y-115367219D01*
X150214911Y-115367219D02*
X150119673Y-115414838D01*
X150119673Y-115414838D02*
X150072054Y-115462457D01*
X150072054Y-115462457D02*
X150024435Y-115557695D01*
X150024435Y-115557695D02*
X150024435Y-115795790D01*
X150024435Y-115795790D02*
X150072054Y-115891028D01*
X150072054Y-115891028D02*
X150119673Y-115938647D01*
X150119673Y-115938647D02*
X150214911Y-115986266D01*
X150214911Y-115986266D02*
X150405387Y-115986266D01*
X150405387Y-115986266D02*
X150500625Y-115938647D01*
X150500625Y-115938647D02*
X150548244Y-115891028D01*
X150548244Y-115891028D02*
X150595863Y-115795790D01*
X151738720Y-115319600D02*
X150881578Y-116605314D01*
X152024435Y-115462457D02*
X152072054Y-115414838D01*
X152072054Y-115414838D02*
X152167292Y-115367219D01*
X152167292Y-115367219D02*
X152405387Y-115367219D01*
X152405387Y-115367219D02*
X152500625Y-115414838D01*
X152500625Y-115414838D02*
X152548244Y-115462457D01*
X152548244Y-115462457D02*
X152595863Y-115557695D01*
X152595863Y-115557695D02*
X152595863Y-115652933D01*
X152595863Y-115652933D02*
X152548244Y-115795790D01*
X152548244Y-115795790D02*
X151976816Y-116367219D01*
X151976816Y-116367219D02*
X152595863Y-116367219D01*
X153453006Y-115700552D02*
X153453006Y-116367219D01*
X153214911Y-115319600D02*
X152976816Y-116033885D01*
X152976816Y-116033885D02*
X153595863Y-116033885D01*
X155310149Y-116367219D02*
X154976816Y-115891028D01*
X154738721Y-116367219D02*
X154738721Y-115367219D01*
X154738721Y-115367219D02*
X155119673Y-115367219D01*
X155119673Y-115367219D02*
X155214911Y-115414838D01*
X155214911Y-115414838D02*
X155262530Y-115462457D01*
X155262530Y-115462457D02*
X155310149Y-115557695D01*
X155310149Y-115557695D02*
X155310149Y-115700552D01*
X155310149Y-115700552D02*
X155262530Y-115795790D01*
X155262530Y-115795790D02*
X155214911Y-115843409D01*
X155214911Y-115843409D02*
X155119673Y-115891028D01*
X155119673Y-115891028D02*
X154738721Y-115891028D01*
X155738721Y-115843409D02*
X156072054Y-115843409D01*
X156214911Y-116367219D02*
X155738721Y-116367219D01*
X155738721Y-116367219D02*
X155738721Y-115367219D01*
X155738721Y-115367219D02*
X156214911Y-115367219D01*
X156500626Y-115367219D02*
X156833959Y-116367219D01*
X156833959Y-116367219D02*
X157167292Y-115367219D01*
X158214912Y-116081504D02*
X158691102Y-116081504D01*
X158119674Y-116367219D02*
X158453007Y-115367219D01*
X158453007Y-115367219D02*
X158786340Y-116367219D01*
G36*
X144152212Y-104826409D02*
G01*
X143158562Y-104826409D01*
X143158562Y-103617219D01*
X143269673Y-103617219D01*
X143269673Y-104617219D01*
X143271594Y-104636728D01*
X143286526Y-104672776D01*
X143314116Y-104700366D01*
X143350164Y-104715298D01*
X143389182Y-104715298D01*
X143425230Y-104700366D01*
X143452820Y-104672776D01*
X143467752Y-104636728D01*
X143469673Y-104617219D01*
X143469673Y-104193409D01*
X143841101Y-104193409D01*
X143841101Y-104617219D01*
X143843022Y-104636728D01*
X143857954Y-104672776D01*
X143885544Y-104700366D01*
X143921592Y-104715298D01*
X143960610Y-104715298D01*
X143996658Y-104700366D01*
X144024248Y-104672776D01*
X144039180Y-104636728D01*
X144041101Y-104617219D01*
X144041101Y-103617219D01*
X144039180Y-103597710D01*
X144024248Y-103561662D01*
X143996658Y-103534072D01*
X143960610Y-103519140D01*
X143921592Y-103519140D01*
X143885544Y-103534072D01*
X143857954Y-103561662D01*
X143843022Y-103597710D01*
X143841101Y-103617219D01*
X143841101Y-103993409D01*
X143469673Y-103993409D01*
X143469673Y-103617219D01*
X143467752Y-103597710D01*
X143452820Y-103561662D01*
X143425230Y-103534072D01*
X143389182Y-103519140D01*
X143350164Y-103519140D01*
X143314116Y-103534072D01*
X143286526Y-103561662D01*
X143271594Y-103597710D01*
X143269673Y-103617219D01*
X143158562Y-103617219D01*
X143158562Y-103408029D01*
X144152212Y-103408029D01*
X144152212Y-104826409D01*
G37*
X171147780Y-80090476D02*
X171147780Y-80661904D01*
X170147780Y-80376190D02*
X171147780Y-80376190D01*
X171147780Y-80900000D02*
X170147780Y-81566666D01*
X171147780Y-81566666D02*
X170147780Y-80900000D01*
X171195400Y-82661904D02*
X169909685Y-81804762D01*
X170147780Y-83566666D02*
X170623971Y-83233333D01*
X170147780Y-82995238D02*
X171147780Y-82995238D01*
X171147780Y-82995238D02*
X171147780Y-83376190D01*
X171147780Y-83376190D02*
X171100161Y-83471428D01*
X171100161Y-83471428D02*
X171052542Y-83519047D01*
X171052542Y-83519047D02*
X170957304Y-83566666D01*
X170957304Y-83566666D02*
X170814447Y-83566666D01*
X170814447Y-83566666D02*
X170719209Y-83519047D01*
X170719209Y-83519047D02*
X170671590Y-83471428D01*
X170671590Y-83471428D02*
X170623971Y-83376190D01*
X170623971Y-83376190D02*
X170623971Y-82995238D01*
X171147780Y-83900000D02*
X170147780Y-84566666D01*
X171147780Y-84566666D02*
X170147780Y-83900000D01*
X171195400Y-85661904D02*
X169909685Y-84804762D01*
X171100161Y-86519047D02*
X171147780Y-86423809D01*
X171147780Y-86423809D02*
X171147780Y-86280952D01*
X171147780Y-86280952D02*
X171100161Y-86138095D01*
X171100161Y-86138095D02*
X171004923Y-86042857D01*
X171004923Y-86042857D02*
X170909685Y-85995238D01*
X170909685Y-85995238D02*
X170719209Y-85947619D01*
X170719209Y-85947619D02*
X170576352Y-85947619D01*
X170576352Y-85947619D02*
X170385876Y-85995238D01*
X170385876Y-85995238D02*
X170290638Y-86042857D01*
X170290638Y-86042857D02*
X170195400Y-86138095D01*
X170195400Y-86138095D02*
X170147780Y-86280952D01*
X170147780Y-86280952D02*
X170147780Y-86376190D01*
X170147780Y-86376190D02*
X170195400Y-86519047D01*
X170195400Y-86519047D02*
X170243019Y-86566666D01*
X170243019Y-86566666D02*
X170576352Y-86566666D01*
X170576352Y-86566666D02*
X170576352Y-86376190D01*
X170147780Y-86995238D02*
X171147780Y-86995238D01*
X171147780Y-86995238D02*
X170147780Y-87566666D01*
X170147780Y-87566666D02*
X171147780Y-87566666D01*
X170147780Y-88042857D02*
X171147780Y-88042857D01*
X171147780Y-88042857D02*
X171147780Y-88280952D01*
X171147780Y-88280952D02*
X171100161Y-88423809D01*
X171100161Y-88423809D02*
X171004923Y-88519047D01*
X171004923Y-88519047D02*
X170909685Y-88566666D01*
X170909685Y-88566666D02*
X170719209Y-88614285D01*
X170719209Y-88614285D02*
X170576352Y-88614285D01*
X170576352Y-88614285D02*
X170385876Y-88566666D01*
X170385876Y-88566666D02*
X170290638Y-88519047D01*
X170290638Y-88519047D02*
X170195400Y-88423809D01*
X170195400Y-88423809D02*
X170147780Y-88280952D01*
X170147780Y-88280952D02*
X170147780Y-88042857D01*
G36*
X102659502Y-104231504D02*
G01*
X102460797Y-104231504D01*
X102560149Y-103933446D01*
X102659502Y-104231504D01*
G37*
G36*
X103103808Y-104827545D02*
G01*
X102016490Y-104827545D01*
X102016490Y-104604712D01*
X102127601Y-104604712D01*
X102130367Y-104643632D01*
X102147817Y-104678531D01*
X102177293Y-104704096D01*
X102214309Y-104716434D01*
X102253229Y-104713668D01*
X102288128Y-104696218D01*
X102313693Y-104666742D01*
X102321684Y-104648842D01*
X102394130Y-104431504D01*
X102726168Y-104431504D01*
X102798614Y-104648841D01*
X102806605Y-104666742D01*
X102832170Y-104696218D01*
X102867069Y-104713667D01*
X102905989Y-104716434D01*
X102943005Y-104704095D01*
X102972481Y-104678530D01*
X102989931Y-104643631D01*
X102992697Y-104604711D01*
X102988350Y-104585596D01*
X102655017Y-103585596D01*
X102647026Y-103567696D01*
X102642341Y-103562294D01*
X102639148Y-103555908D01*
X102629679Y-103547695D01*
X102621461Y-103538220D01*
X102615069Y-103535023D01*
X102609672Y-103530343D01*
X102597778Y-103526378D01*
X102586562Y-103520770D01*
X102579434Y-103520263D01*
X102572656Y-103518004D01*
X102560151Y-103518893D01*
X102547642Y-103518004D01*
X102540860Y-103520264D01*
X102533736Y-103520771D01*
X102522527Y-103526374D01*
X102510626Y-103530342D01*
X102505225Y-103535025D01*
X102498837Y-103538220D01*
X102490621Y-103547691D01*
X102481150Y-103555907D01*
X102477955Y-103562296D01*
X102473272Y-103567696D01*
X102465281Y-103585597D01*
X102131948Y-104585596D01*
X102127601Y-104604712D01*
X102016490Y-104604712D01*
X102016490Y-103406893D01*
X103103808Y-103406893D01*
X103103808Y-104827545D01*
G37*
X106869673Y-116617219D02*
X106869673Y-115617219D01*
X107345863Y-116617219D02*
X107345863Y-115617219D01*
X107345863Y-115617219D02*
X107917291Y-116617219D01*
X107917291Y-116617219D02*
X107917291Y-115617219D01*
X108393482Y-116617219D02*
X108393482Y-115617219D01*
X108393482Y-115617219D02*
X108774434Y-115617219D01*
X108774434Y-115617219D02*
X108869672Y-115664838D01*
X108869672Y-115664838D02*
X108917291Y-115712457D01*
X108917291Y-115712457D02*
X108964910Y-115807695D01*
X108964910Y-115807695D02*
X108964910Y-115950552D01*
X108964910Y-115950552D02*
X108917291Y-116045790D01*
X108917291Y-116045790D02*
X108869672Y-116093409D01*
X108869672Y-116093409D02*
X108774434Y-116141028D01*
X108774434Y-116141028D02*
X108393482Y-116141028D01*
X109393482Y-115617219D02*
X109393482Y-116426742D01*
X109393482Y-116426742D02*
X109441101Y-116521980D01*
X109441101Y-116521980D02*
X109488720Y-116569600D01*
X109488720Y-116569600D02*
X109583958Y-116617219D01*
X109583958Y-116617219D02*
X109774434Y-116617219D01*
X109774434Y-116617219D02*
X109869672Y-116569600D01*
X109869672Y-116569600D02*
X109917291Y-116521980D01*
X109917291Y-116521980D02*
X109964910Y-116426742D01*
X109964910Y-116426742D02*
X109964910Y-115617219D01*
X110298244Y-115617219D02*
X110869672Y-115617219D01*
X110583958Y-116617219D02*
X110583958Y-115617219D01*
X111822054Y-115617219D02*
X112393482Y-115617219D01*
X112107768Y-116617219D02*
X112107768Y-115617219D01*
X112726816Y-116617219D02*
X112726816Y-115617219D01*
X112726816Y-115617219D02*
X113107768Y-115617219D01*
X113107768Y-115617219D02*
X113203006Y-115664838D01*
X113203006Y-115664838D02*
X113250625Y-115712457D01*
X113250625Y-115712457D02*
X113298244Y-115807695D01*
X113298244Y-115807695D02*
X113298244Y-115950552D01*
X113298244Y-115950552D02*
X113250625Y-116045790D01*
X113250625Y-116045790D02*
X113203006Y-116093409D01*
X113203006Y-116093409D02*
X113107768Y-116141028D01*
X113107768Y-116141028D02*
X112726816Y-116141028D01*
X114441102Y-116331504D02*
X114917292Y-116331504D01*
X114345864Y-116617219D02*
X114679197Y-115617219D01*
X114679197Y-115617219D02*
X115012530Y-116617219D01*
X115345864Y-116236266D02*
X116107769Y-116236266D01*
X116583959Y-116617219D02*
X116583959Y-115617219D01*
X116583959Y-116093409D02*
X117155387Y-116093409D01*
X117155387Y-116617219D02*
X117155387Y-115617219D01*
X154261905Y-85952219D02*
X154833333Y-85952219D01*
X154547619Y-86952219D02*
X154547619Y-85952219D01*
X155166667Y-86952219D02*
X155166667Y-85952219D01*
X155166667Y-85952219D02*
X155547619Y-85952219D01*
X155547619Y-85952219D02*
X155642857Y-85999838D01*
X155642857Y-85999838D02*
X155690476Y-86047457D01*
X155690476Y-86047457D02*
X155738095Y-86142695D01*
X155738095Y-86142695D02*
X155738095Y-86285552D01*
X155738095Y-86285552D02*
X155690476Y-86380790D01*
X155690476Y-86380790D02*
X155642857Y-86428409D01*
X155642857Y-86428409D02*
X155547619Y-86476028D01*
X155547619Y-86476028D02*
X155166667Y-86476028D01*
X156690476Y-86952219D02*
X156119048Y-86952219D01*
X156404762Y-86952219D02*
X156404762Y-85952219D01*
X156404762Y-85952219D02*
X156309524Y-86095076D01*
X156309524Y-86095076D02*
X156214286Y-86190314D01*
X156214286Y-86190314D02*
X156119048Y-86237933D01*
X157071429Y-86047457D02*
X157119048Y-85999838D01*
X157119048Y-85999838D02*
X157214286Y-85952219D01*
X157214286Y-85952219D02*
X157452381Y-85952219D01*
X157452381Y-85952219D02*
X157547619Y-85999838D01*
X157547619Y-85999838D02*
X157595238Y-86047457D01*
X157595238Y-86047457D02*
X157642857Y-86142695D01*
X157642857Y-86142695D02*
X157642857Y-86237933D01*
X157642857Y-86237933D02*
X157595238Y-86380790D01*
X157595238Y-86380790D02*
X157023810Y-86952219D01*
X157023810Y-86952219D02*
X157642857Y-86952219D01*
X155988095Y-108452219D02*
X156559523Y-108452219D01*
X156273809Y-109452219D02*
X156273809Y-108452219D01*
X156892857Y-109452219D02*
X156892857Y-108452219D01*
X156892857Y-108452219D02*
X157273809Y-108452219D01*
X157273809Y-108452219D02*
X157369047Y-108499838D01*
X157369047Y-108499838D02*
X157416666Y-108547457D01*
X157416666Y-108547457D02*
X157464285Y-108642695D01*
X157464285Y-108642695D02*
X157464285Y-108785552D01*
X157464285Y-108785552D02*
X157416666Y-108880790D01*
X157416666Y-108880790D02*
X157369047Y-108928409D01*
X157369047Y-108928409D02*
X157273809Y-108976028D01*
X157273809Y-108976028D02*
X156892857Y-108976028D01*
X157940476Y-109452219D02*
X158130952Y-109452219D01*
X158130952Y-109452219D02*
X158226190Y-109404600D01*
X158226190Y-109404600D02*
X158273809Y-109356980D01*
X158273809Y-109356980D02*
X158369047Y-109214123D01*
X158369047Y-109214123D02*
X158416666Y-109023647D01*
X158416666Y-109023647D02*
X158416666Y-108642695D01*
X158416666Y-108642695D02*
X158369047Y-108547457D01*
X158369047Y-108547457D02*
X158321428Y-108499838D01*
X158321428Y-108499838D02*
X158226190Y-108452219D01*
X158226190Y-108452219D02*
X158035714Y-108452219D01*
X158035714Y-108452219D02*
X157940476Y-108499838D01*
X157940476Y-108499838D02*
X157892857Y-108547457D01*
X157892857Y-108547457D02*
X157845238Y-108642695D01*
X157845238Y-108642695D02*
X157845238Y-108880790D01*
X157845238Y-108880790D02*
X157892857Y-108976028D01*
X157892857Y-108976028D02*
X157940476Y-109023647D01*
X157940476Y-109023647D02*
X158035714Y-109071266D01*
X158035714Y-109071266D02*
X158226190Y-109071266D01*
X158226190Y-109071266D02*
X158321428Y-109023647D01*
X158321428Y-109023647D02*
X158369047Y-108976028D01*
X158369047Y-108976028D02*
X158416666Y-108880790D01*
X121023809Y-87228409D02*
X121357142Y-87228409D01*
X121499999Y-87752219D02*
X121023809Y-87752219D01*
X121023809Y-87752219D02*
X121023809Y-86752219D01*
X121023809Y-86752219D02*
X121499999Y-86752219D01*
X121928571Y-87752219D02*
X121928571Y-86752219D01*
X121928571Y-86752219D02*
X122499999Y-87752219D01*
X122499999Y-87752219D02*
X122499999Y-86752219D01*
X122738095Y-87847457D02*
X123499999Y-87847457D01*
X124309523Y-87752219D02*
X123976190Y-87276028D01*
X123738095Y-87752219D02*
X123738095Y-86752219D01*
X123738095Y-86752219D02*
X124119047Y-86752219D01*
X124119047Y-86752219D02*
X124214285Y-86799838D01*
X124214285Y-86799838D02*
X124261904Y-86847457D01*
X124261904Y-86847457D02*
X124309523Y-86942695D01*
X124309523Y-86942695D02*
X124309523Y-87085552D01*
X124309523Y-87085552D02*
X124261904Y-87180790D01*
X124261904Y-87180790D02*
X124214285Y-87228409D01*
X124214285Y-87228409D02*
X124119047Y-87276028D01*
X124119047Y-87276028D02*
X123738095Y-87276028D01*
X124690476Y-87704600D02*
X124833333Y-87752219D01*
X124833333Y-87752219D02*
X125071428Y-87752219D01*
X125071428Y-87752219D02*
X125166666Y-87704600D01*
X125166666Y-87704600D02*
X125214285Y-87656980D01*
X125214285Y-87656980D02*
X125261904Y-87561742D01*
X125261904Y-87561742D02*
X125261904Y-87466504D01*
X125261904Y-87466504D02*
X125214285Y-87371266D01*
X125214285Y-87371266D02*
X125166666Y-87323647D01*
X125166666Y-87323647D02*
X125071428Y-87276028D01*
X125071428Y-87276028D02*
X124880952Y-87228409D01*
X124880952Y-87228409D02*
X124785714Y-87180790D01*
X124785714Y-87180790D02*
X124738095Y-87133171D01*
X124738095Y-87133171D02*
X124690476Y-87037933D01*
X124690476Y-87037933D02*
X124690476Y-86942695D01*
X124690476Y-86942695D02*
X124738095Y-86847457D01*
X124738095Y-86847457D02*
X124785714Y-86799838D01*
X124785714Y-86799838D02*
X124880952Y-86752219D01*
X124880952Y-86752219D02*
X125119047Y-86752219D01*
X125119047Y-86752219D02*
X125261904Y-86799838D01*
X125547619Y-86752219D02*
X126119047Y-86752219D01*
X125833333Y-87752219D02*
X125833333Y-86752219D01*
X120833333Y-86106980D02*
X120785714Y-86154600D01*
X120785714Y-86154600D02*
X120642857Y-86202219D01*
X120642857Y-86202219D02*
X120547619Y-86202219D01*
X120547619Y-86202219D02*
X120404762Y-86154600D01*
X120404762Y-86154600D02*
X120309524Y-86059361D01*
X120309524Y-86059361D02*
X120261905Y-85964123D01*
X120261905Y-85964123D02*
X120214286Y-85773647D01*
X120214286Y-85773647D02*
X120214286Y-85630790D01*
X120214286Y-85630790D02*
X120261905Y-85440314D01*
X120261905Y-85440314D02*
X120309524Y-85345076D01*
X120309524Y-85345076D02*
X120404762Y-85249838D01*
X120404762Y-85249838D02*
X120547619Y-85202219D01*
X120547619Y-85202219D02*
X120642857Y-85202219D01*
X120642857Y-85202219D02*
X120785714Y-85249838D01*
X120785714Y-85249838D02*
X120833333Y-85297457D01*
X121214286Y-85297457D02*
X121261905Y-85249838D01*
X121261905Y-85249838D02*
X121357143Y-85202219D01*
X121357143Y-85202219D02*
X121595238Y-85202219D01*
X121595238Y-85202219D02*
X121690476Y-85249838D01*
X121690476Y-85249838D02*
X121738095Y-85297457D01*
X121738095Y-85297457D02*
X121785714Y-85392695D01*
X121785714Y-85392695D02*
X121785714Y-85487933D01*
X121785714Y-85487933D02*
X121738095Y-85630790D01*
X121738095Y-85630790D02*
X121166667Y-86202219D01*
X121166667Y-86202219D02*
X121785714Y-86202219D01*
X118952380Y-80452219D02*
X118380952Y-80452219D01*
X118666666Y-80452219D02*
X118666666Y-79452219D01*
X118666666Y-79452219D02*
X118571428Y-79595076D01*
X118571428Y-79595076D02*
X118476190Y-79690314D01*
X118476190Y-79690314D02*
X118380952Y-79737933D01*
X119571428Y-79452219D02*
X119666666Y-79452219D01*
X119666666Y-79452219D02*
X119761904Y-79499838D01*
X119761904Y-79499838D02*
X119809523Y-79547457D01*
X119809523Y-79547457D02*
X119857142Y-79642695D01*
X119857142Y-79642695D02*
X119904761Y-79833171D01*
X119904761Y-79833171D02*
X119904761Y-80071266D01*
X119904761Y-80071266D02*
X119857142Y-80261742D01*
X119857142Y-80261742D02*
X119809523Y-80356980D01*
X119809523Y-80356980D02*
X119761904Y-80404600D01*
X119761904Y-80404600D02*
X119666666Y-80452219D01*
X119666666Y-80452219D02*
X119571428Y-80452219D01*
X119571428Y-80452219D02*
X119476190Y-80404600D01*
X119476190Y-80404600D02*
X119428571Y-80356980D01*
X119428571Y-80356980D02*
X119380952Y-80261742D01*
X119380952Y-80261742D02*
X119333333Y-80071266D01*
X119333333Y-80071266D02*
X119333333Y-79833171D01*
X119333333Y-79833171D02*
X119380952Y-79642695D01*
X119380952Y-79642695D02*
X119428571Y-79547457D01*
X119428571Y-79547457D02*
X119476190Y-79499838D01*
X119476190Y-79499838D02*
X119571428Y-79452219D01*
X120523809Y-79452219D02*
X120619047Y-79452219D01*
X120619047Y-79452219D02*
X120714285Y-79499838D01*
X120714285Y-79499838D02*
X120761904Y-79547457D01*
X120761904Y-79547457D02*
X120809523Y-79642695D01*
X120809523Y-79642695D02*
X120857142Y-79833171D01*
X120857142Y-79833171D02*
X120857142Y-80071266D01*
X120857142Y-80071266D02*
X120809523Y-80261742D01*
X120809523Y-80261742D02*
X120761904Y-80356980D01*
X120761904Y-80356980D02*
X120714285Y-80404600D01*
X120714285Y-80404600D02*
X120619047Y-80452219D01*
X120619047Y-80452219D02*
X120523809Y-80452219D01*
X120523809Y-80452219D02*
X120428571Y-80404600D01*
X120428571Y-80404600D02*
X120380952Y-80356980D01*
X120380952Y-80356980D02*
X120333333Y-80261742D01*
X120333333Y-80261742D02*
X120285714Y-80071266D01*
X120285714Y-80071266D02*
X120285714Y-79833171D01*
X120285714Y-79833171D02*
X120333333Y-79642695D01*
X120333333Y-79642695D02*
X120380952Y-79547457D01*
X120380952Y-79547457D02*
X120428571Y-79499838D01*
X120428571Y-79499838D02*
X120523809Y-79452219D01*
X121714285Y-79785552D02*
X121714285Y-80452219D01*
X121285714Y-79785552D02*
X121285714Y-80309361D01*
X121285714Y-80309361D02*
X121333333Y-80404600D01*
X121333333Y-80404600D02*
X121428571Y-80452219D01*
X121428571Y-80452219D02*
X121571428Y-80452219D01*
X121571428Y-80452219D02*
X121666666Y-80404600D01*
X121666666Y-80404600D02*
X121714285Y-80356980D01*
X122523809Y-79928409D02*
X122190476Y-79928409D01*
X122190476Y-80452219D02*
X122190476Y-79452219D01*
X122190476Y-79452219D02*
X122666666Y-79452219D01*
X101904762Y-74702219D02*
X102476190Y-74702219D01*
X102190476Y-75702219D02*
X102190476Y-74702219D01*
X102809524Y-75702219D02*
X102809524Y-74702219D01*
X102809524Y-74702219D02*
X103190476Y-74702219D01*
X103190476Y-74702219D02*
X103285714Y-74749838D01*
X103285714Y-74749838D02*
X103333333Y-74797457D01*
X103333333Y-74797457D02*
X103380952Y-74892695D01*
X103380952Y-74892695D02*
X103380952Y-75035552D01*
X103380952Y-75035552D02*
X103333333Y-75130790D01*
X103333333Y-75130790D02*
X103285714Y-75178409D01*
X103285714Y-75178409D02*
X103190476Y-75226028D01*
X103190476Y-75226028D02*
X102809524Y-75226028D01*
X103571429Y-75797457D02*
X104333333Y-75797457D01*
X104428572Y-74702219D02*
X104761905Y-75702219D01*
X104761905Y-75702219D02*
X105095238Y-74702219D01*
X106000000Y-75606980D02*
X105952381Y-75654600D01*
X105952381Y-75654600D02*
X105809524Y-75702219D01*
X105809524Y-75702219D02*
X105714286Y-75702219D01*
X105714286Y-75702219D02*
X105571429Y-75654600D01*
X105571429Y-75654600D02*
X105476191Y-75559361D01*
X105476191Y-75559361D02*
X105428572Y-75464123D01*
X105428572Y-75464123D02*
X105380953Y-75273647D01*
X105380953Y-75273647D02*
X105380953Y-75130790D01*
X105380953Y-75130790D02*
X105428572Y-74940314D01*
X105428572Y-74940314D02*
X105476191Y-74845076D01*
X105476191Y-74845076D02*
X105571429Y-74749838D01*
X105571429Y-74749838D02*
X105714286Y-74702219D01*
X105714286Y-74702219D02*
X105809524Y-74702219D01*
X105809524Y-74702219D02*
X105952381Y-74749838D01*
X105952381Y-74749838D02*
X106000000Y-74797457D01*
X107000000Y-75606980D02*
X106952381Y-75654600D01*
X106952381Y-75654600D02*
X106809524Y-75702219D01*
X106809524Y-75702219D02*
X106714286Y-75702219D01*
X106714286Y-75702219D02*
X106571429Y-75654600D01*
X106571429Y-75654600D02*
X106476191Y-75559361D01*
X106476191Y-75559361D02*
X106428572Y-75464123D01*
X106428572Y-75464123D02*
X106380953Y-75273647D01*
X106380953Y-75273647D02*
X106380953Y-75130790D01*
X106380953Y-75130790D02*
X106428572Y-74940314D01*
X106428572Y-74940314D02*
X106476191Y-74845076D01*
X106476191Y-74845076D02*
X106571429Y-74749838D01*
X106571429Y-74749838D02*
X106714286Y-74702219D01*
X106714286Y-74702219D02*
X106809524Y-74702219D01*
X106809524Y-74702219D02*
X106952381Y-74749838D01*
X106952381Y-74749838D02*
X107000000Y-74797457D01*
X157761905Y-79952219D02*
X158333333Y-79952219D01*
X158047619Y-80952219D02*
X158047619Y-79952219D01*
X158666667Y-80952219D02*
X158666667Y-79952219D01*
X158666667Y-79952219D02*
X159047619Y-79952219D01*
X159047619Y-79952219D02*
X159142857Y-79999838D01*
X159142857Y-79999838D02*
X159190476Y-80047457D01*
X159190476Y-80047457D02*
X159238095Y-80142695D01*
X159238095Y-80142695D02*
X159238095Y-80285552D01*
X159238095Y-80285552D02*
X159190476Y-80380790D01*
X159190476Y-80380790D02*
X159142857Y-80428409D01*
X159142857Y-80428409D02*
X159047619Y-80476028D01*
X159047619Y-80476028D02*
X158666667Y-80476028D01*
X160190476Y-80952219D02*
X159619048Y-80952219D01*
X159904762Y-80952219D02*
X159904762Y-79952219D01*
X159904762Y-79952219D02*
X159809524Y-80095076D01*
X159809524Y-80095076D02*
X159714286Y-80190314D01*
X159714286Y-80190314D02*
X159619048Y-80237933D01*
X161047619Y-79952219D02*
X160857143Y-79952219D01*
X160857143Y-79952219D02*
X160761905Y-79999838D01*
X160761905Y-79999838D02*
X160714286Y-80047457D01*
X160714286Y-80047457D02*
X160619048Y-80190314D01*
X160619048Y-80190314D02*
X160571429Y-80380790D01*
X160571429Y-80380790D02*
X160571429Y-80761742D01*
X160571429Y-80761742D02*
X160619048Y-80856980D01*
X160619048Y-80856980D02*
X160666667Y-80904600D01*
X160666667Y-80904600D02*
X160761905Y-80952219D01*
X160761905Y-80952219D02*
X160952381Y-80952219D01*
X160952381Y-80952219D02*
X161047619Y-80904600D01*
X161047619Y-80904600D02*
X161095238Y-80856980D01*
X161095238Y-80856980D02*
X161142857Y-80761742D01*
X161142857Y-80761742D02*
X161142857Y-80523647D01*
X161142857Y-80523647D02*
X161095238Y-80428409D01*
X161095238Y-80428409D02*
X161047619Y-80380790D01*
X161047619Y-80380790D02*
X160952381Y-80333171D01*
X160952381Y-80333171D02*
X160761905Y-80333171D01*
X160761905Y-80333171D02*
X160666667Y-80380790D01*
X160666667Y-80380790D02*
X160619048Y-80428409D01*
X160619048Y-80428409D02*
X160571429Y-80523647D01*
X146857819Y-106211666D02*
X146381628Y-106544999D01*
X146857819Y-106783094D02*
X145857819Y-106783094D01*
X145857819Y-106783094D02*
X145857819Y-106402142D01*
X145857819Y-106402142D02*
X145905438Y-106306904D01*
X145905438Y-106306904D02*
X145953057Y-106259285D01*
X145953057Y-106259285D02*
X146048295Y-106211666D01*
X146048295Y-106211666D02*
X146191152Y-106211666D01*
X146191152Y-106211666D02*
X146286390Y-106259285D01*
X146286390Y-106259285D02*
X146334009Y-106306904D01*
X146334009Y-106306904D02*
X146381628Y-106402142D01*
X146381628Y-106402142D02*
X146381628Y-106783094D01*
X146857819Y-105259285D02*
X146857819Y-105830713D01*
X146857819Y-105544999D02*
X145857819Y-105544999D01*
X145857819Y-105544999D02*
X146000676Y-105640237D01*
X146000676Y-105640237D02*
X146095914Y-105735475D01*
X146095914Y-105735475D02*
X146143533Y-105830713D01*
X148702219Y-111416666D02*
X148702219Y-111988094D01*
X148702219Y-111702380D02*
X147702219Y-111702380D01*
X147702219Y-111702380D02*
X147845076Y-111797618D01*
X147845076Y-111797618D02*
X147940314Y-111892856D01*
X147940314Y-111892856D02*
X147987933Y-111988094D01*
X147702219Y-110797618D02*
X147702219Y-110702380D01*
X147702219Y-110702380D02*
X147749838Y-110607142D01*
X147749838Y-110607142D02*
X147797457Y-110559523D01*
X147797457Y-110559523D02*
X147892695Y-110511904D01*
X147892695Y-110511904D02*
X148083171Y-110464285D01*
X148083171Y-110464285D02*
X148321266Y-110464285D01*
X148321266Y-110464285D02*
X148511742Y-110511904D01*
X148511742Y-110511904D02*
X148606980Y-110559523D01*
X148606980Y-110559523D02*
X148654600Y-110607142D01*
X148654600Y-110607142D02*
X148702219Y-110702380D01*
X148702219Y-110702380D02*
X148702219Y-110797618D01*
X148702219Y-110797618D02*
X148654600Y-110892856D01*
X148654600Y-110892856D02*
X148606980Y-110940475D01*
X148606980Y-110940475D02*
X148511742Y-110988094D01*
X148511742Y-110988094D02*
X148321266Y-111035713D01*
X148321266Y-111035713D02*
X148083171Y-111035713D01*
X148083171Y-111035713D02*
X147892695Y-110988094D01*
X147892695Y-110988094D02*
X147797457Y-110940475D01*
X147797457Y-110940475D02*
X147749838Y-110892856D01*
X147749838Y-110892856D02*
X147702219Y-110797618D01*
X147702219Y-109845237D02*
X147702219Y-109749999D01*
X147702219Y-109749999D02*
X147749838Y-109654761D01*
X147749838Y-109654761D02*
X147797457Y-109607142D01*
X147797457Y-109607142D02*
X147892695Y-109559523D01*
X147892695Y-109559523D02*
X148083171Y-109511904D01*
X148083171Y-109511904D02*
X148321266Y-109511904D01*
X148321266Y-109511904D02*
X148511742Y-109559523D01*
X148511742Y-109559523D02*
X148606980Y-109607142D01*
X148606980Y-109607142D02*
X148654600Y-109654761D01*
X148654600Y-109654761D02*
X148702219Y-109749999D01*
X148702219Y-109749999D02*
X148702219Y-109845237D01*
X148702219Y-109845237D02*
X148654600Y-109940475D01*
X148654600Y-109940475D02*
X148606980Y-109988094D01*
X148606980Y-109988094D02*
X148511742Y-110035713D01*
X148511742Y-110035713D02*
X148321266Y-110083332D01*
X148321266Y-110083332D02*
X148083171Y-110083332D01*
X148083171Y-110083332D02*
X147892695Y-110035713D01*
X147892695Y-110035713D02*
X147797457Y-109988094D01*
X147797457Y-109988094D02*
X147749838Y-109940475D01*
X147749838Y-109940475D02*
X147702219Y-109845237D01*
X148702219Y-108511904D02*
X148226028Y-108845237D01*
X148702219Y-109083332D02*
X147702219Y-109083332D01*
X147702219Y-109083332D02*
X147702219Y-108702380D01*
X147702219Y-108702380D02*
X147749838Y-108607142D01*
X147749838Y-108607142D02*
X147797457Y-108559523D01*
X147797457Y-108559523D02*
X147892695Y-108511904D01*
X147892695Y-108511904D02*
X148035552Y-108511904D01*
X148035552Y-108511904D02*
X148130790Y-108559523D01*
X148130790Y-108559523D02*
X148178409Y-108607142D01*
X148178409Y-108607142D02*
X148226028Y-108702380D01*
X148226028Y-108702380D02*
X148226028Y-109083332D01*
X115088095Y-84952219D02*
X115088095Y-85761742D01*
X115088095Y-85761742D02*
X115135714Y-85856980D01*
X115135714Y-85856980D02*
X115183333Y-85904600D01*
X115183333Y-85904600D02*
X115278571Y-85952219D01*
X115278571Y-85952219D02*
X115469047Y-85952219D01*
X115469047Y-85952219D02*
X115564285Y-85904600D01*
X115564285Y-85904600D02*
X115611904Y-85856980D01*
X115611904Y-85856980D02*
X115659523Y-85761742D01*
X115659523Y-85761742D02*
X115659523Y-84952219D01*
X116040476Y-84952219D02*
X116659523Y-84952219D01*
X116659523Y-84952219D02*
X116326190Y-85333171D01*
X116326190Y-85333171D02*
X116469047Y-85333171D01*
X116469047Y-85333171D02*
X116564285Y-85380790D01*
X116564285Y-85380790D02*
X116611904Y-85428409D01*
X116611904Y-85428409D02*
X116659523Y-85523647D01*
X116659523Y-85523647D02*
X116659523Y-85761742D01*
X116659523Y-85761742D02*
X116611904Y-85856980D01*
X116611904Y-85856980D02*
X116564285Y-85904600D01*
X116564285Y-85904600D02*
X116469047Y-85952219D01*
X116469047Y-85952219D02*
X116183333Y-85952219D01*
X116183333Y-85952219D02*
X116088095Y-85904600D01*
X116088095Y-85904600D02*
X116040476Y-85856980D01*
X133416666Y-115452219D02*
X133416666Y-116166504D01*
X133416666Y-116166504D02*
X133369047Y-116309361D01*
X133369047Y-116309361D02*
X133273809Y-116404600D01*
X133273809Y-116404600D02*
X133130952Y-116452219D01*
X133130952Y-116452219D02*
X133035714Y-116452219D01*
X133797619Y-115452219D02*
X134416666Y-115452219D01*
X134416666Y-115452219D02*
X134083333Y-115833171D01*
X134083333Y-115833171D02*
X134226190Y-115833171D01*
X134226190Y-115833171D02*
X134321428Y-115880790D01*
X134321428Y-115880790D02*
X134369047Y-115928409D01*
X134369047Y-115928409D02*
X134416666Y-116023647D01*
X134416666Y-116023647D02*
X134416666Y-116261742D01*
X134416666Y-116261742D02*
X134369047Y-116356980D01*
X134369047Y-116356980D02*
X134321428Y-116404600D01*
X134321428Y-116404600D02*
X134226190Y-116452219D01*
X134226190Y-116452219D02*
X133940476Y-116452219D01*
X133940476Y-116452219D02*
X133845238Y-116404600D01*
X133845238Y-116404600D02*
X133797619Y-116356980D01*
X152452219Y-110238094D02*
X151452219Y-110238094D01*
X151452219Y-110238094D02*
X151452219Y-109999999D01*
X151452219Y-109999999D02*
X151499838Y-109857142D01*
X151499838Y-109857142D02*
X151595076Y-109761904D01*
X151595076Y-109761904D02*
X151690314Y-109714285D01*
X151690314Y-109714285D02*
X151880790Y-109666666D01*
X151880790Y-109666666D02*
X152023647Y-109666666D01*
X152023647Y-109666666D02*
X152214123Y-109714285D01*
X152214123Y-109714285D02*
X152309361Y-109761904D01*
X152309361Y-109761904D02*
X152404600Y-109857142D01*
X152404600Y-109857142D02*
X152452219Y-109999999D01*
X152452219Y-109999999D02*
X152452219Y-110238094D01*
X152452219Y-108714285D02*
X152452219Y-109285713D01*
X152452219Y-108999999D02*
X151452219Y-108999999D01*
X151452219Y-108999999D02*
X151595076Y-109095237D01*
X151595076Y-109095237D02*
X151690314Y-109190475D01*
X151690314Y-109190475D02*
X151737933Y-109285713D01*
X124433333Y-86156980D02*
X124385714Y-86204600D01*
X124385714Y-86204600D02*
X124242857Y-86252219D01*
X124242857Y-86252219D02*
X124147619Y-86252219D01*
X124147619Y-86252219D02*
X124004762Y-86204600D01*
X124004762Y-86204600D02*
X123909524Y-86109361D01*
X123909524Y-86109361D02*
X123861905Y-86014123D01*
X123861905Y-86014123D02*
X123814286Y-85823647D01*
X123814286Y-85823647D02*
X123814286Y-85680790D01*
X123814286Y-85680790D02*
X123861905Y-85490314D01*
X123861905Y-85490314D02*
X123909524Y-85395076D01*
X123909524Y-85395076D02*
X124004762Y-85299838D01*
X124004762Y-85299838D02*
X124147619Y-85252219D01*
X124147619Y-85252219D02*
X124242857Y-85252219D01*
X124242857Y-85252219D02*
X124385714Y-85299838D01*
X124385714Y-85299838D02*
X124433333Y-85347457D01*
X125385714Y-86252219D02*
X124814286Y-86252219D01*
X125100000Y-86252219D02*
X125100000Y-85252219D01*
X125100000Y-85252219D02*
X125004762Y-85395076D01*
X125004762Y-85395076D02*
X124909524Y-85490314D01*
X124909524Y-85490314D02*
X124814286Y-85537933D01*
X123357143Y-79452219D02*
X123452381Y-79452219D01*
X123452381Y-79452219D02*
X123547619Y-79499838D01*
X123547619Y-79499838D02*
X123595238Y-79547457D01*
X123595238Y-79547457D02*
X123642857Y-79642695D01*
X123642857Y-79642695D02*
X123690476Y-79833171D01*
X123690476Y-79833171D02*
X123690476Y-80071266D01*
X123690476Y-80071266D02*
X123642857Y-80261742D01*
X123642857Y-80261742D02*
X123595238Y-80356980D01*
X123595238Y-80356980D02*
X123547619Y-80404600D01*
X123547619Y-80404600D02*
X123452381Y-80452219D01*
X123452381Y-80452219D02*
X123357143Y-80452219D01*
X123357143Y-80452219D02*
X123261905Y-80404600D01*
X123261905Y-80404600D02*
X123214286Y-80356980D01*
X123214286Y-80356980D02*
X123166667Y-80261742D01*
X123166667Y-80261742D02*
X123119048Y-80071266D01*
X123119048Y-80071266D02*
X123119048Y-79833171D01*
X123119048Y-79833171D02*
X123166667Y-79642695D01*
X123166667Y-79642695D02*
X123214286Y-79547457D01*
X123214286Y-79547457D02*
X123261905Y-79499838D01*
X123261905Y-79499838D02*
X123357143Y-79452219D01*
X124119048Y-80356980D02*
X124166667Y-80404600D01*
X124166667Y-80404600D02*
X124119048Y-80452219D01*
X124119048Y-80452219D02*
X124071429Y-80404600D01*
X124071429Y-80404600D02*
X124119048Y-80356980D01*
X124119048Y-80356980D02*
X124119048Y-80452219D01*
X125119047Y-80452219D02*
X124547619Y-80452219D01*
X124833333Y-80452219D02*
X124833333Y-79452219D01*
X124833333Y-79452219D02*
X124738095Y-79595076D01*
X124738095Y-79595076D02*
X124642857Y-79690314D01*
X124642857Y-79690314D02*
X124547619Y-79737933D01*
X125976190Y-79785552D02*
X125976190Y-80452219D01*
X125547619Y-79785552D02*
X125547619Y-80309361D01*
X125547619Y-80309361D02*
X125595238Y-80404600D01*
X125595238Y-80404600D02*
X125690476Y-80452219D01*
X125690476Y-80452219D02*
X125833333Y-80452219D01*
X125833333Y-80452219D02*
X125928571Y-80404600D01*
X125928571Y-80404600D02*
X125976190Y-80356980D01*
X126785714Y-79928409D02*
X126452381Y-79928409D01*
X126452381Y-80452219D02*
X126452381Y-79452219D01*
X126452381Y-79452219D02*
X126928571Y-79452219D01*
X106333333Y-83356980D02*
X106285714Y-83404600D01*
X106285714Y-83404600D02*
X106142857Y-83452219D01*
X106142857Y-83452219D02*
X106047619Y-83452219D01*
X106047619Y-83452219D02*
X105904762Y-83404600D01*
X105904762Y-83404600D02*
X105809524Y-83309361D01*
X105809524Y-83309361D02*
X105761905Y-83214123D01*
X105761905Y-83214123D02*
X105714286Y-83023647D01*
X105714286Y-83023647D02*
X105714286Y-82880790D01*
X105714286Y-82880790D02*
X105761905Y-82690314D01*
X105761905Y-82690314D02*
X105809524Y-82595076D01*
X105809524Y-82595076D02*
X105904762Y-82499838D01*
X105904762Y-82499838D02*
X106047619Y-82452219D01*
X106047619Y-82452219D02*
X106142857Y-82452219D01*
X106142857Y-82452219D02*
X106285714Y-82499838D01*
X106285714Y-82499838D02*
X106333333Y-82547457D01*
X107190476Y-82785552D02*
X107190476Y-83452219D01*
X106952381Y-82404600D02*
X106714286Y-83118885D01*
X106714286Y-83118885D02*
X107333333Y-83118885D01*
X97452380Y-83452219D02*
X96880952Y-83452219D01*
X97166666Y-83452219D02*
X97166666Y-82452219D01*
X97166666Y-82452219D02*
X97071428Y-82595076D01*
X97071428Y-82595076D02*
X96976190Y-82690314D01*
X96976190Y-82690314D02*
X96880952Y-82737933D01*
X98071428Y-82452219D02*
X98166666Y-82452219D01*
X98166666Y-82452219D02*
X98261904Y-82499838D01*
X98261904Y-82499838D02*
X98309523Y-82547457D01*
X98309523Y-82547457D02*
X98357142Y-82642695D01*
X98357142Y-82642695D02*
X98404761Y-82833171D01*
X98404761Y-82833171D02*
X98404761Y-83071266D01*
X98404761Y-83071266D02*
X98357142Y-83261742D01*
X98357142Y-83261742D02*
X98309523Y-83356980D01*
X98309523Y-83356980D02*
X98261904Y-83404600D01*
X98261904Y-83404600D02*
X98166666Y-83452219D01*
X98166666Y-83452219D02*
X98071428Y-83452219D01*
X98071428Y-83452219D02*
X97976190Y-83404600D01*
X97976190Y-83404600D02*
X97928571Y-83356980D01*
X97928571Y-83356980D02*
X97880952Y-83261742D01*
X97880952Y-83261742D02*
X97833333Y-83071266D01*
X97833333Y-83071266D02*
X97833333Y-82833171D01*
X97833333Y-82833171D02*
X97880952Y-82642695D01*
X97880952Y-82642695D02*
X97928571Y-82547457D01*
X97928571Y-82547457D02*
X97976190Y-82499838D01*
X97976190Y-82499838D02*
X98071428Y-82452219D01*
X99023809Y-82452219D02*
X99119047Y-82452219D01*
X99119047Y-82452219D02*
X99214285Y-82499838D01*
X99214285Y-82499838D02*
X99261904Y-82547457D01*
X99261904Y-82547457D02*
X99309523Y-82642695D01*
X99309523Y-82642695D02*
X99357142Y-82833171D01*
X99357142Y-82833171D02*
X99357142Y-83071266D01*
X99357142Y-83071266D02*
X99309523Y-83261742D01*
X99309523Y-83261742D02*
X99261904Y-83356980D01*
X99261904Y-83356980D02*
X99214285Y-83404600D01*
X99214285Y-83404600D02*
X99119047Y-83452219D01*
X99119047Y-83452219D02*
X99023809Y-83452219D01*
X99023809Y-83452219D02*
X98928571Y-83404600D01*
X98928571Y-83404600D02*
X98880952Y-83356980D01*
X98880952Y-83356980D02*
X98833333Y-83261742D01*
X98833333Y-83261742D02*
X98785714Y-83071266D01*
X98785714Y-83071266D02*
X98785714Y-82833171D01*
X98785714Y-82833171D02*
X98833333Y-82642695D01*
X98833333Y-82642695D02*
X98880952Y-82547457D01*
X98880952Y-82547457D02*
X98928571Y-82499838D01*
X98928571Y-82499838D02*
X99023809Y-82452219D01*
X100214285Y-82785552D02*
X100214285Y-83452219D01*
X99785714Y-82785552D02*
X99785714Y-83309361D01*
X99785714Y-83309361D02*
X99833333Y-83404600D01*
X99833333Y-83404600D02*
X99928571Y-83452219D01*
X99928571Y-83452219D02*
X100071428Y-83452219D01*
X100071428Y-83452219D02*
X100166666Y-83404600D01*
X100166666Y-83404600D02*
X100214285Y-83356980D01*
X101023809Y-82928409D02*
X100690476Y-82928409D01*
X100690476Y-83452219D02*
X100690476Y-82452219D01*
X100690476Y-82452219D02*
X101166666Y-82452219D01*
D12*
G36*
X149740125Y-101471255D02*
G01*
X149808962Y-101540092D01*
X149848333Y-101697575D01*
X149848333Y-102009981D01*
X149808961Y-102167465D01*
X149740124Y-102236303D01*
X149675173Y-102268779D01*
X149524827Y-102268779D01*
X149459875Y-102236303D01*
X149391038Y-102167465D01*
X149351667Y-102009981D01*
X149351667Y-101697576D01*
X149391038Y-101540092D01*
X149459875Y-101471255D01*
X149524827Y-101438779D01*
X149675173Y-101438779D01*
X149740125Y-101471255D01*
G37*
G36*
X148740125Y-101471255D02*
G01*
X148768238Y-101499368D01*
X148800714Y-101564320D01*
X148800714Y-101667047D01*
X148768238Y-101731999D01*
X148740125Y-101760112D01*
X148675173Y-101792588D01*
X148399286Y-101792588D01*
X148399286Y-101438779D01*
X148675173Y-101438779D01*
X148740125Y-101471255D01*
G37*
G36*
X147740125Y-101471255D02*
G01*
X147768238Y-101499368D01*
X147800714Y-101564320D01*
X147800714Y-101667047D01*
X147768238Y-101731999D01*
X147740125Y-101760112D01*
X147675173Y-101792588D01*
X147399286Y-101792588D01*
X147399286Y-101438779D01*
X147675173Y-101438779D01*
X147740125Y-101471255D01*
G37*
G36*
X151129444Y-102549890D02*
G01*
X147118175Y-102549890D01*
X147118175Y-101353779D01*
X147229286Y-101353779D01*
X147229286Y-102353779D01*
X147230919Y-102370362D01*
X147243611Y-102401002D01*
X147267063Y-102424454D01*
X147297703Y-102437146D01*
X147330869Y-102437146D01*
X147361509Y-102424454D01*
X147384961Y-102401002D01*
X147397653Y-102370362D01*
X147399286Y-102353779D01*
X147399286Y-101962588D01*
X147695238Y-101962588D01*
X147711821Y-101960955D01*
X147714642Y-101959786D01*
X147717689Y-101959570D01*
X147733251Y-101953614D01*
X147828489Y-101905995D01*
X147835627Y-101901502D01*
X147837699Y-101900644D01*
X147840030Y-101898730D01*
X147842591Y-101897119D01*
X147844064Y-101895420D01*
X147850580Y-101890073D01*
X147898199Y-101842454D01*
X147903547Y-101835936D01*
X147905245Y-101834465D01*
X147906854Y-101831908D01*
X147908770Y-101829574D01*
X147909629Y-101827499D01*
X147914121Y-101820363D01*
X147961740Y-101725125D01*
X147967696Y-101709563D01*
X147967912Y-101706516D01*
X147969081Y-101703695D01*
X147970714Y-101687112D01*
X147970714Y-101544255D01*
X147969081Y-101527672D01*
X147967912Y-101524850D01*
X147967696Y-101521804D01*
X147961740Y-101506242D01*
X147914121Y-101411004D01*
X147909629Y-101403867D01*
X147908770Y-101401793D01*
X147906854Y-101399458D01*
X147905245Y-101396902D01*
X147903547Y-101395430D01*
X147898199Y-101388913D01*
X147863065Y-101353779D01*
X148229286Y-101353779D01*
X148229286Y-102353779D01*
X148230919Y-102370362D01*
X148243611Y-102401002D01*
X148267063Y-102424454D01*
X148297703Y-102437146D01*
X148330869Y-102437146D01*
X148361509Y-102424454D01*
X148384961Y-102401002D01*
X148397653Y-102370362D01*
X148399286Y-102353779D01*
X148399286Y-101962588D01*
X148508125Y-101962588D01*
X148816079Y-102402523D01*
X148826927Y-102415172D01*
X148854895Y-102432995D01*
X148887557Y-102438759D01*
X148919937Y-102431586D01*
X148947107Y-102412566D01*
X148964930Y-102384598D01*
X148970694Y-102351936D01*
X148963521Y-102319557D01*
X148955349Y-102305035D01*
X148713892Y-101960096D01*
X148714642Y-101959786D01*
X148717689Y-101959570D01*
X148733251Y-101953614D01*
X148828489Y-101905995D01*
X148835627Y-101901502D01*
X148837699Y-101900644D01*
X148840030Y-101898730D01*
X148842591Y-101897119D01*
X148844064Y-101895420D01*
X148850580Y-101890073D01*
X148898199Y-101842454D01*
X148903547Y-101835936D01*
X148905245Y-101834465D01*
X148906854Y-101831908D01*
X148908770Y-101829574D01*
X148909629Y-101827499D01*
X148914121Y-101820363D01*
X148961740Y-101725125D01*
X148967696Y-101709563D01*
X148967912Y-101706516D01*
X148969081Y-101703695D01*
X148970714Y-101687112D01*
X149181667Y-101687112D01*
X149181667Y-102020445D01*
X149181951Y-102023336D01*
X149181767Y-102024577D01*
X149182685Y-102030786D01*
X149183300Y-102037028D01*
X149183779Y-102038186D01*
X149184205Y-102041061D01*
X149231824Y-102231536D01*
X149237430Y-102247228D01*
X149241191Y-102252304D01*
X149243610Y-102258144D01*
X149254182Y-102271025D01*
X149349420Y-102366264D01*
X149355935Y-102371611D01*
X149357409Y-102373310D01*
X149359969Y-102374921D01*
X149362301Y-102376835D01*
X149364373Y-102377693D01*
X149371511Y-102382186D01*
X149466749Y-102429805D01*
X149482311Y-102435761D01*
X149485357Y-102435977D01*
X149488179Y-102437146D01*
X149504762Y-102438779D01*
X149695238Y-102438779D01*
X149711821Y-102437146D01*
X149714642Y-102435977D01*
X149717689Y-102435761D01*
X149733251Y-102429805D01*
X149828489Y-102382186D01*
X149835625Y-102377694D01*
X149837700Y-102376835D01*
X149840034Y-102374919D01*
X149842591Y-102373310D01*
X149844062Y-102371612D01*
X149850580Y-102366264D01*
X149945819Y-102271024D01*
X149956390Y-102258144D01*
X149958808Y-102252304D01*
X149962570Y-102247228D01*
X149968176Y-102231537D01*
X150015795Y-102041061D01*
X150016220Y-102038186D01*
X150016700Y-102037028D01*
X150017314Y-102030786D01*
X150018233Y-102024577D01*
X150018048Y-102023336D01*
X150018333Y-102020445D01*
X150018333Y-101782350D01*
X150229286Y-101782350D01*
X150229286Y-101925207D01*
X150229570Y-101928098D01*
X150229386Y-101929339D01*
X150230304Y-101935545D01*
X150230919Y-101941790D01*
X150231398Y-101942948D01*
X150231824Y-101945823D01*
X150279443Y-102136298D01*
X150279879Y-102137519D01*
X150279923Y-102138134D01*
X150282565Y-102145039D01*
X150285049Y-102151990D01*
X150285415Y-102152484D01*
X150285879Y-102153696D01*
X150333498Y-102248934D01*
X150337987Y-102256067D01*
X150338848Y-102258144D01*
X150340765Y-102260479D01*
X150342374Y-102263036D01*
X150344070Y-102264507D01*
X150349420Y-102271025D01*
X150444658Y-102366264D01*
X150457539Y-102376835D01*
X150460358Y-102378003D01*
X150462667Y-102380005D01*
X150477883Y-102386798D01*
X150620739Y-102434417D01*
X150628962Y-102436286D01*
X150631036Y-102437146D01*
X150634041Y-102437441D01*
X150636988Y-102438112D01*
X150639228Y-102437952D01*
X150647619Y-102438779D01*
X150742857Y-102438779D01*
X150751247Y-102437952D01*
X150753488Y-102438112D01*
X150756434Y-102437441D01*
X150759440Y-102437146D01*
X150761514Y-102436286D01*
X150769736Y-102434417D01*
X150912593Y-102386798D01*
X150927809Y-102380005D01*
X150930116Y-102378003D01*
X150932938Y-102376835D01*
X150945819Y-102366263D01*
X150993438Y-102318644D01*
X151004009Y-102305763D01*
X151015479Y-102278070D01*
X151016700Y-102275123D01*
X151018333Y-102258540D01*
X151018333Y-101925207D01*
X151016700Y-101908624D01*
X151004008Y-101877984D01*
X150980556Y-101854532D01*
X150949916Y-101841840D01*
X150933333Y-101840207D01*
X150742857Y-101840207D01*
X150726274Y-101841840D01*
X150695634Y-101854532D01*
X150672182Y-101877984D01*
X150659490Y-101908624D01*
X150659490Y-101941790D01*
X150672182Y-101972430D01*
X150695634Y-101995882D01*
X150726274Y-102008574D01*
X150742857Y-102010207D01*
X150848333Y-102010207D01*
X150848333Y-102223332D01*
X150839798Y-102231867D01*
X150729064Y-102268779D01*
X150661412Y-102268779D01*
X150550677Y-102231867D01*
X150479381Y-102160570D01*
X150442104Y-102086017D01*
X150399286Y-101914743D01*
X150399286Y-101792814D01*
X150442104Y-101621540D01*
X150479381Y-101546987D01*
X150550677Y-101475690D01*
X150661412Y-101438779D01*
X150770411Y-101438779D01*
X150847701Y-101477424D01*
X150863263Y-101483380D01*
X150896344Y-101485730D01*
X150927809Y-101475242D01*
X150952863Y-101453513D01*
X150967696Y-101423848D01*
X150970046Y-101390767D01*
X150959558Y-101359303D01*
X150937829Y-101334248D01*
X150923727Y-101325372D01*
X150828489Y-101277753D01*
X150812927Y-101271797D01*
X150809880Y-101271580D01*
X150807059Y-101270412D01*
X150790476Y-101268779D01*
X150647619Y-101268779D01*
X150639228Y-101269605D01*
X150636988Y-101269446D01*
X150634041Y-101270116D01*
X150631036Y-101270412D01*
X150628962Y-101271271D01*
X150620739Y-101273141D01*
X150477883Y-101320760D01*
X150462667Y-101327553D01*
X150460358Y-101329554D01*
X150457539Y-101330723D01*
X150444658Y-101341294D01*
X150349420Y-101436532D01*
X150344072Y-101443047D01*
X150342374Y-101444521D01*
X150340762Y-101447081D01*
X150338849Y-101449413D01*
X150337990Y-101451484D01*
X150333498Y-101458623D01*
X150285879Y-101553861D01*
X150285415Y-101555072D01*
X150285049Y-101555567D01*
X150282565Y-101562517D01*
X150279923Y-101569423D01*
X150279879Y-101570037D01*
X150279443Y-101571259D01*
X150231824Y-101761734D01*
X150231398Y-101764608D01*
X150230919Y-101765767D01*
X150230304Y-101772008D01*
X150229386Y-101778218D01*
X150229570Y-101779458D01*
X150229286Y-101782350D01*
X150018333Y-101782350D01*
X150018333Y-101687112D01*
X150018048Y-101684220D01*
X150018233Y-101682980D01*
X150017314Y-101676770D01*
X150016700Y-101670529D01*
X150016220Y-101669370D01*
X150015795Y-101666496D01*
X149968176Y-101476020D01*
X149962570Y-101460329D01*
X149958807Y-101455250D01*
X149956389Y-101449413D01*
X149945818Y-101436532D01*
X149850580Y-101341294D01*
X149844064Y-101335946D01*
X149842591Y-101334248D01*
X149840030Y-101332636D01*
X149837699Y-101330723D01*
X149835627Y-101329864D01*
X149828489Y-101325372D01*
X149733251Y-101277753D01*
X149717689Y-101271797D01*
X149714642Y-101271580D01*
X149711821Y-101270412D01*
X149695238Y-101268779D01*
X149504762Y-101268779D01*
X149488179Y-101270412D01*
X149485357Y-101271580D01*
X149482311Y-101271797D01*
X149466749Y-101277753D01*
X149371511Y-101325372D01*
X149364373Y-101329864D01*
X149362301Y-101330723D01*
X149359969Y-101332636D01*
X149357409Y-101334248D01*
X149355935Y-101335946D01*
X149349420Y-101341294D01*
X149254182Y-101436532D01*
X149243611Y-101449413D01*
X149241193Y-101455249D01*
X149237430Y-101460329D01*
X149231824Y-101476021D01*
X149184205Y-101666496D01*
X149183779Y-101669370D01*
X149183300Y-101670529D01*
X149182685Y-101676770D01*
X149181767Y-101682980D01*
X149181951Y-101684220D01*
X149181667Y-101687112D01*
X148970714Y-101687112D01*
X148970714Y-101544255D01*
X148969081Y-101527672D01*
X148967912Y-101524850D01*
X148967696Y-101521804D01*
X148961740Y-101506242D01*
X148914121Y-101411004D01*
X148909629Y-101403867D01*
X148908770Y-101401793D01*
X148906854Y-101399458D01*
X148905245Y-101396902D01*
X148903547Y-101395430D01*
X148898199Y-101388913D01*
X148850580Y-101341294D01*
X148844064Y-101335946D01*
X148842591Y-101334248D01*
X148840030Y-101332636D01*
X148837699Y-101330723D01*
X148835627Y-101329864D01*
X148828489Y-101325372D01*
X148733251Y-101277753D01*
X148717689Y-101271797D01*
X148714642Y-101271580D01*
X148711821Y-101270412D01*
X148695238Y-101268779D01*
X148314286Y-101268779D01*
X148297703Y-101270412D01*
X148267063Y-101283104D01*
X148243611Y-101306556D01*
X148230919Y-101337196D01*
X148229286Y-101353779D01*
X147863065Y-101353779D01*
X147850580Y-101341294D01*
X147844064Y-101335946D01*
X147842591Y-101334248D01*
X147840030Y-101332636D01*
X147837699Y-101330723D01*
X147835627Y-101329864D01*
X147828489Y-101325372D01*
X147733251Y-101277753D01*
X147717689Y-101271797D01*
X147714642Y-101271580D01*
X147711821Y-101270412D01*
X147695238Y-101268779D01*
X147314286Y-101268779D01*
X147297703Y-101270412D01*
X147267063Y-101283104D01*
X147243611Y-101306556D01*
X147230919Y-101337196D01*
X147229286Y-101353779D01*
X147118175Y-101353779D01*
X147118175Y-101157668D01*
X151129444Y-101157668D01*
X151129444Y-102549890D01*
G37*
D11*
X91059524Y-70452219D02*
X91630952Y-70452219D01*
X91345238Y-71452219D02*
X91345238Y-70452219D01*
X91964286Y-71452219D02*
X91964286Y-70452219D01*
X91964286Y-70452219D02*
X92345238Y-70452219D01*
X92345238Y-70452219D02*
X92440476Y-70499838D01*
X92440476Y-70499838D02*
X92488095Y-70547457D01*
X92488095Y-70547457D02*
X92535714Y-70642695D01*
X92535714Y-70642695D02*
X92535714Y-70785552D01*
X92535714Y-70785552D02*
X92488095Y-70880790D01*
X92488095Y-70880790D02*
X92440476Y-70928409D01*
X92440476Y-70928409D02*
X92345238Y-70976028D01*
X92345238Y-70976028D02*
X91964286Y-70976028D01*
X92726191Y-71547457D02*
X93488095Y-71547457D01*
X94250000Y-70499838D02*
X94154762Y-70452219D01*
X94154762Y-70452219D02*
X94011905Y-70452219D01*
X94011905Y-70452219D02*
X93869048Y-70499838D01*
X93869048Y-70499838D02*
X93773810Y-70595076D01*
X93773810Y-70595076D02*
X93726191Y-70690314D01*
X93726191Y-70690314D02*
X93678572Y-70880790D01*
X93678572Y-70880790D02*
X93678572Y-71023647D01*
X93678572Y-71023647D02*
X93726191Y-71214123D01*
X93726191Y-71214123D02*
X93773810Y-71309361D01*
X93773810Y-71309361D02*
X93869048Y-71404600D01*
X93869048Y-71404600D02*
X94011905Y-71452219D01*
X94011905Y-71452219D02*
X94107143Y-71452219D01*
X94107143Y-71452219D02*
X94250000Y-71404600D01*
X94250000Y-71404600D02*
X94297619Y-71356980D01*
X94297619Y-71356980D02*
X94297619Y-71023647D01*
X94297619Y-71023647D02*
X94107143Y-71023647D01*
X94726191Y-71452219D02*
X94726191Y-70452219D01*
X94726191Y-70452219D02*
X95297619Y-71452219D01*
X95297619Y-71452219D02*
X95297619Y-70452219D01*
X95773810Y-71452219D02*
X95773810Y-70452219D01*
X95773810Y-70452219D02*
X96011905Y-70452219D01*
X96011905Y-70452219D02*
X96154762Y-70499838D01*
X96154762Y-70499838D02*
X96250000Y-70595076D01*
X96250000Y-70595076D02*
X96297619Y-70690314D01*
X96297619Y-70690314D02*
X96345238Y-70880790D01*
X96345238Y-70880790D02*
X96345238Y-71023647D01*
X96345238Y-71023647D02*
X96297619Y-71214123D01*
X96297619Y-71214123D02*
X96250000Y-71309361D01*
X96250000Y-71309361D02*
X96154762Y-71404600D01*
X96154762Y-71404600D02*
X96011905Y-71452219D01*
X96011905Y-71452219D02*
X95773810Y-71452219D01*
X165261905Y-75452219D02*
X165833333Y-75452219D01*
X165547619Y-76452219D02*
X165547619Y-75452219D01*
X166166667Y-76452219D02*
X166166667Y-75452219D01*
X166166667Y-75452219D02*
X166547619Y-75452219D01*
X166547619Y-75452219D02*
X166642857Y-75499838D01*
X166642857Y-75499838D02*
X166690476Y-75547457D01*
X166690476Y-75547457D02*
X166738095Y-75642695D01*
X166738095Y-75642695D02*
X166738095Y-75785552D01*
X166738095Y-75785552D02*
X166690476Y-75880790D01*
X166690476Y-75880790D02*
X166642857Y-75928409D01*
X166642857Y-75928409D02*
X166547619Y-75976028D01*
X166547619Y-75976028D02*
X166166667Y-75976028D01*
X167690476Y-76452219D02*
X167119048Y-76452219D01*
X167404762Y-76452219D02*
X167404762Y-75452219D01*
X167404762Y-75452219D02*
X167309524Y-75595076D01*
X167309524Y-75595076D02*
X167214286Y-75690314D01*
X167214286Y-75690314D02*
X167119048Y-75737933D01*
X168023810Y-75452219D02*
X168690476Y-75452219D01*
X168690476Y-75452219D02*
X168261905Y-76452219D01*
X160952219Y-106166666D02*
X160476028Y-106499999D01*
X160952219Y-106738094D02*
X159952219Y-106738094D01*
X159952219Y-106738094D02*
X159952219Y-106357142D01*
X159952219Y-106357142D02*
X159999838Y-106261904D01*
X159999838Y-106261904D02*
X160047457Y-106214285D01*
X160047457Y-106214285D02*
X160142695Y-106166666D01*
X160142695Y-106166666D02*
X160285552Y-106166666D01*
X160285552Y-106166666D02*
X160380790Y-106214285D01*
X160380790Y-106214285D02*
X160428409Y-106261904D01*
X160428409Y-106261904D02*
X160476028Y-106357142D01*
X160476028Y-106357142D02*
X160476028Y-106738094D01*
X160285552Y-105309523D02*
X160952219Y-105309523D01*
X159904600Y-105547618D02*
X160618885Y-105785713D01*
X160618885Y-105785713D02*
X160618885Y-105166666D01*
X155511905Y-99952219D02*
X156083333Y-99952219D01*
X155797619Y-100952219D02*
X155797619Y-99952219D01*
X156416667Y-100952219D02*
X156416667Y-99952219D01*
X156416667Y-99952219D02*
X156797619Y-99952219D01*
X156797619Y-99952219D02*
X156892857Y-99999838D01*
X156892857Y-99999838D02*
X156940476Y-100047457D01*
X156940476Y-100047457D02*
X156988095Y-100142695D01*
X156988095Y-100142695D02*
X156988095Y-100285552D01*
X156988095Y-100285552D02*
X156940476Y-100380790D01*
X156940476Y-100380790D02*
X156892857Y-100428409D01*
X156892857Y-100428409D02*
X156797619Y-100476028D01*
X156797619Y-100476028D02*
X156416667Y-100476028D01*
X157940476Y-100952219D02*
X157369048Y-100952219D01*
X157654762Y-100952219D02*
X157654762Y-99952219D01*
X157654762Y-99952219D02*
X157559524Y-100095076D01*
X157559524Y-100095076D02*
X157464286Y-100190314D01*
X157464286Y-100190314D02*
X157369048Y-100237933D01*
X158559524Y-99952219D02*
X158654762Y-99952219D01*
X158654762Y-99952219D02*
X158750000Y-99999838D01*
X158750000Y-99999838D02*
X158797619Y-100047457D01*
X158797619Y-100047457D02*
X158845238Y-100142695D01*
X158845238Y-100142695D02*
X158892857Y-100333171D01*
X158892857Y-100333171D02*
X158892857Y-100571266D01*
X158892857Y-100571266D02*
X158845238Y-100761742D01*
X158845238Y-100761742D02*
X158797619Y-100856980D01*
X158797619Y-100856980D02*
X158750000Y-100904600D01*
X158750000Y-100904600D02*
X158654762Y-100952219D01*
X158654762Y-100952219D02*
X158559524Y-100952219D01*
X158559524Y-100952219D02*
X158464286Y-100904600D01*
X158464286Y-100904600D02*
X158416667Y-100856980D01*
X158416667Y-100856980D02*
X158369048Y-100761742D01*
X158369048Y-100761742D02*
X158321429Y-100571266D01*
X158321429Y-100571266D02*
X158321429Y-100333171D01*
X158321429Y-100333171D02*
X158369048Y-100142695D01*
X158369048Y-100142695D02*
X158416667Y-100047457D01*
X158416667Y-100047457D02*
X158464286Y-99999838D01*
X158464286Y-99999838D02*
X158559524Y-99952219D01*
X110452219Y-83166666D02*
X109976028Y-83499999D01*
X110452219Y-83738094D02*
X109452219Y-83738094D01*
X109452219Y-83738094D02*
X109452219Y-83357142D01*
X109452219Y-83357142D02*
X109499838Y-83261904D01*
X109499838Y-83261904D02*
X109547457Y-83214285D01*
X109547457Y-83214285D02*
X109642695Y-83166666D01*
X109642695Y-83166666D02*
X109785552Y-83166666D01*
X109785552Y-83166666D02*
X109880790Y-83214285D01*
X109880790Y-83214285D02*
X109928409Y-83261904D01*
X109928409Y-83261904D02*
X109976028Y-83357142D01*
X109976028Y-83357142D02*
X109976028Y-83738094D01*
X109452219Y-82833332D02*
X109452219Y-82214285D01*
X109452219Y-82214285D02*
X109833171Y-82547618D01*
X109833171Y-82547618D02*
X109833171Y-82404761D01*
X109833171Y-82404761D02*
X109880790Y-82309523D01*
X109880790Y-82309523D02*
X109928409Y-82261904D01*
X109928409Y-82261904D02*
X110023647Y-82214285D01*
X110023647Y-82214285D02*
X110261742Y-82214285D01*
X110261742Y-82214285D02*
X110356980Y-82261904D01*
X110356980Y-82261904D02*
X110404600Y-82309523D01*
X110404600Y-82309523D02*
X110452219Y-82404761D01*
X110452219Y-82404761D02*
X110452219Y-82690475D01*
X110452219Y-82690475D02*
X110404600Y-82785713D01*
X110404600Y-82785713D02*
X110356980Y-82833332D01*
X114452219Y-83690476D02*
X114452219Y-84261904D01*
X114452219Y-83976190D02*
X113452219Y-83976190D01*
X113452219Y-83976190D02*
X113595076Y-84071428D01*
X113595076Y-84071428D02*
X113690314Y-84166666D01*
X113690314Y-84166666D02*
X113737933Y-84261904D01*
X113452219Y-83071428D02*
X113452219Y-82976190D01*
X113452219Y-82976190D02*
X113499838Y-82880952D01*
X113499838Y-82880952D02*
X113547457Y-82833333D01*
X113547457Y-82833333D02*
X113642695Y-82785714D01*
X113642695Y-82785714D02*
X113833171Y-82738095D01*
X113833171Y-82738095D02*
X114071266Y-82738095D01*
X114071266Y-82738095D02*
X114261742Y-82785714D01*
X114261742Y-82785714D02*
X114356980Y-82833333D01*
X114356980Y-82833333D02*
X114404600Y-82880952D01*
X114404600Y-82880952D02*
X114452219Y-82976190D01*
X114452219Y-82976190D02*
X114452219Y-83071428D01*
X114452219Y-83071428D02*
X114404600Y-83166666D01*
X114404600Y-83166666D02*
X114356980Y-83214285D01*
X114356980Y-83214285D02*
X114261742Y-83261904D01*
X114261742Y-83261904D02*
X114071266Y-83309523D01*
X114071266Y-83309523D02*
X113833171Y-83309523D01*
X113833171Y-83309523D02*
X113642695Y-83261904D01*
X113642695Y-83261904D02*
X113547457Y-83214285D01*
X113547457Y-83214285D02*
X113499838Y-83166666D01*
X113499838Y-83166666D02*
X113452219Y-83071428D01*
X114452219Y-81738095D02*
X113976028Y-82071428D01*
X114452219Y-82309523D02*
X113452219Y-82309523D01*
X113452219Y-82309523D02*
X113452219Y-81928571D01*
X113452219Y-81928571D02*
X113499838Y-81833333D01*
X113499838Y-81833333D02*
X113547457Y-81785714D01*
X113547457Y-81785714D02*
X113642695Y-81738095D01*
X113642695Y-81738095D02*
X113785552Y-81738095D01*
X113785552Y-81738095D02*
X113880790Y-81785714D01*
X113880790Y-81785714D02*
X113928409Y-81833333D01*
X113928409Y-81833333D02*
X113976028Y-81928571D01*
X113976028Y-81928571D02*
X113976028Y-82309523D01*
X98666666Y-107952219D02*
X98666666Y-108666504D01*
X98666666Y-108666504D02*
X98619047Y-108809361D01*
X98619047Y-108809361D02*
X98523809Y-108904600D01*
X98523809Y-108904600D02*
X98380952Y-108952219D01*
X98380952Y-108952219D02*
X98285714Y-108952219D01*
X99666666Y-108952219D02*
X99095238Y-108952219D01*
X99380952Y-108952219D02*
X99380952Y-107952219D01*
X99380952Y-107952219D02*
X99285714Y-108095076D01*
X99285714Y-108095076D02*
X99190476Y-108190314D01*
X99190476Y-108190314D02*
X99095238Y-108237933D01*
X122756980Y-97166666D02*
X122804600Y-97214285D01*
X122804600Y-97214285D02*
X122852219Y-97357142D01*
X122852219Y-97357142D02*
X122852219Y-97452380D01*
X122852219Y-97452380D02*
X122804600Y-97595237D01*
X122804600Y-97595237D02*
X122709361Y-97690475D01*
X122709361Y-97690475D02*
X122614123Y-97738094D01*
X122614123Y-97738094D02*
X122423647Y-97785713D01*
X122423647Y-97785713D02*
X122280790Y-97785713D01*
X122280790Y-97785713D02*
X122090314Y-97738094D01*
X122090314Y-97738094D02*
X121995076Y-97690475D01*
X121995076Y-97690475D02*
X121899838Y-97595237D01*
X121899838Y-97595237D02*
X121852219Y-97452380D01*
X121852219Y-97452380D02*
X121852219Y-97357142D01*
X121852219Y-97357142D02*
X121899838Y-97214285D01*
X121899838Y-97214285D02*
X121947457Y-97166666D01*
X121852219Y-96833332D02*
X121852219Y-96214285D01*
X121852219Y-96214285D02*
X122233171Y-96547618D01*
X122233171Y-96547618D02*
X122233171Y-96404761D01*
X122233171Y-96404761D02*
X122280790Y-96309523D01*
X122280790Y-96309523D02*
X122328409Y-96261904D01*
X122328409Y-96261904D02*
X122423647Y-96214285D01*
X122423647Y-96214285D02*
X122661742Y-96214285D01*
X122661742Y-96214285D02*
X122756980Y-96261904D01*
X122756980Y-96261904D02*
X122804600Y-96309523D01*
X122804600Y-96309523D02*
X122852219Y-96404761D01*
X122852219Y-96404761D02*
X122852219Y-96690475D01*
X122852219Y-96690475D02*
X122804600Y-96785713D01*
X122804600Y-96785713D02*
X122756980Y-96833332D01*
X123357143Y-98052219D02*
X123452381Y-98052219D01*
X123452381Y-98052219D02*
X123547619Y-98099838D01*
X123547619Y-98099838D02*
X123595238Y-98147457D01*
X123595238Y-98147457D02*
X123642857Y-98242695D01*
X123642857Y-98242695D02*
X123690476Y-98433171D01*
X123690476Y-98433171D02*
X123690476Y-98671266D01*
X123690476Y-98671266D02*
X123642857Y-98861742D01*
X123642857Y-98861742D02*
X123595238Y-98956980D01*
X123595238Y-98956980D02*
X123547619Y-99004600D01*
X123547619Y-99004600D02*
X123452381Y-99052219D01*
X123452381Y-99052219D02*
X123357143Y-99052219D01*
X123357143Y-99052219D02*
X123261905Y-99004600D01*
X123261905Y-99004600D02*
X123214286Y-98956980D01*
X123214286Y-98956980D02*
X123166667Y-98861742D01*
X123166667Y-98861742D02*
X123119048Y-98671266D01*
X123119048Y-98671266D02*
X123119048Y-98433171D01*
X123119048Y-98433171D02*
X123166667Y-98242695D01*
X123166667Y-98242695D02*
X123214286Y-98147457D01*
X123214286Y-98147457D02*
X123261905Y-98099838D01*
X123261905Y-98099838D02*
X123357143Y-98052219D01*
X124119048Y-98956980D02*
X124166667Y-99004600D01*
X124166667Y-99004600D02*
X124119048Y-99052219D01*
X124119048Y-99052219D02*
X124071429Y-99004600D01*
X124071429Y-99004600D02*
X124119048Y-98956980D01*
X124119048Y-98956980D02*
X124119048Y-99052219D01*
X125119047Y-99052219D02*
X124547619Y-99052219D01*
X124833333Y-99052219D02*
X124833333Y-98052219D01*
X124833333Y-98052219D02*
X124738095Y-98195076D01*
X124738095Y-98195076D02*
X124642857Y-98290314D01*
X124642857Y-98290314D02*
X124547619Y-98337933D01*
X125976190Y-98385552D02*
X125976190Y-99052219D01*
X125547619Y-98385552D02*
X125547619Y-98909361D01*
X125547619Y-98909361D02*
X125595238Y-99004600D01*
X125595238Y-99004600D02*
X125690476Y-99052219D01*
X125690476Y-99052219D02*
X125833333Y-99052219D01*
X125833333Y-99052219D02*
X125928571Y-99004600D01*
X125928571Y-99004600D02*
X125976190Y-98956980D01*
X126785714Y-98528409D02*
X126452381Y-98528409D01*
X126452381Y-99052219D02*
X126452381Y-98052219D01*
X126452381Y-98052219D02*
X126928571Y-98052219D01*
X160952219Y-99166666D02*
X160476028Y-99499999D01*
X160952219Y-99738094D02*
X159952219Y-99738094D01*
X159952219Y-99738094D02*
X159952219Y-99357142D01*
X159952219Y-99357142D02*
X159999838Y-99261904D01*
X159999838Y-99261904D02*
X160047457Y-99214285D01*
X160047457Y-99214285D02*
X160142695Y-99166666D01*
X160142695Y-99166666D02*
X160285552Y-99166666D01*
X160285552Y-99166666D02*
X160380790Y-99214285D01*
X160380790Y-99214285D02*
X160428409Y-99261904D01*
X160428409Y-99261904D02*
X160476028Y-99357142D01*
X160476028Y-99357142D02*
X160476028Y-99738094D01*
X159952219Y-98261904D02*
X159952219Y-98738094D01*
X159952219Y-98738094D02*
X160428409Y-98785713D01*
X160428409Y-98785713D02*
X160380790Y-98738094D01*
X160380790Y-98738094D02*
X160333171Y-98642856D01*
X160333171Y-98642856D02*
X160333171Y-98404761D01*
X160333171Y-98404761D02*
X160380790Y-98309523D01*
X160380790Y-98309523D02*
X160428409Y-98261904D01*
X160428409Y-98261904D02*
X160523647Y-98214285D01*
X160523647Y-98214285D02*
X160761742Y-98214285D01*
X160761742Y-98214285D02*
X160856980Y-98261904D01*
X160856980Y-98261904D02*
X160904600Y-98309523D01*
X160904600Y-98309523D02*
X160952219Y-98404761D01*
X160952219Y-98404761D02*
X160952219Y-98642856D01*
X160952219Y-98642856D02*
X160904600Y-98738094D01*
X160904600Y-98738094D02*
X160856980Y-98785713D01*
X120233333Y-98956980D02*
X120185714Y-99004600D01*
X120185714Y-99004600D02*
X120042857Y-99052219D01*
X120042857Y-99052219D02*
X119947619Y-99052219D01*
X119947619Y-99052219D02*
X119804762Y-99004600D01*
X119804762Y-99004600D02*
X119709524Y-98909361D01*
X119709524Y-98909361D02*
X119661905Y-98814123D01*
X119661905Y-98814123D02*
X119614286Y-98623647D01*
X119614286Y-98623647D02*
X119614286Y-98480790D01*
X119614286Y-98480790D02*
X119661905Y-98290314D01*
X119661905Y-98290314D02*
X119709524Y-98195076D01*
X119709524Y-98195076D02*
X119804762Y-98099838D01*
X119804762Y-98099838D02*
X119947619Y-98052219D01*
X119947619Y-98052219D02*
X120042857Y-98052219D01*
X120042857Y-98052219D02*
X120185714Y-98099838D01*
X120185714Y-98099838D02*
X120233333Y-98147457D01*
X121090476Y-98052219D02*
X120900000Y-98052219D01*
X120900000Y-98052219D02*
X120804762Y-98099838D01*
X120804762Y-98099838D02*
X120757143Y-98147457D01*
X120757143Y-98147457D02*
X120661905Y-98290314D01*
X120661905Y-98290314D02*
X120614286Y-98480790D01*
X120614286Y-98480790D02*
X120614286Y-98861742D01*
X120614286Y-98861742D02*
X120661905Y-98956980D01*
X120661905Y-98956980D02*
X120709524Y-99004600D01*
X120709524Y-99004600D02*
X120804762Y-99052219D01*
X120804762Y-99052219D02*
X120995238Y-99052219D01*
X120995238Y-99052219D02*
X121090476Y-99004600D01*
X121090476Y-99004600D02*
X121138095Y-98956980D01*
X121138095Y-98956980D02*
X121185714Y-98861742D01*
X121185714Y-98861742D02*
X121185714Y-98623647D01*
X121185714Y-98623647D02*
X121138095Y-98528409D01*
X121138095Y-98528409D02*
X121090476Y-98480790D01*
X121090476Y-98480790D02*
X120995238Y-98433171D01*
X120995238Y-98433171D02*
X120804762Y-98433171D01*
X120804762Y-98433171D02*
X120709524Y-98480790D01*
X120709524Y-98480790D02*
X120661905Y-98528409D01*
X120661905Y-98528409D02*
X120614286Y-98623647D01*
X117947457Y-98842856D02*
X117899838Y-98795237D01*
X117899838Y-98795237D02*
X117852219Y-98699999D01*
X117852219Y-98699999D02*
X117852219Y-98461904D01*
X117852219Y-98461904D02*
X117899838Y-98366666D01*
X117899838Y-98366666D02*
X117947457Y-98319047D01*
X117947457Y-98319047D02*
X118042695Y-98271428D01*
X118042695Y-98271428D02*
X118137933Y-98271428D01*
X118137933Y-98271428D02*
X118280790Y-98319047D01*
X118280790Y-98319047D02*
X118852219Y-98890475D01*
X118852219Y-98890475D02*
X118852219Y-98271428D01*
X117947457Y-97890475D02*
X117899838Y-97842856D01*
X117899838Y-97842856D02*
X117852219Y-97747618D01*
X117852219Y-97747618D02*
X117852219Y-97509523D01*
X117852219Y-97509523D02*
X117899838Y-97414285D01*
X117899838Y-97414285D02*
X117947457Y-97366666D01*
X117947457Y-97366666D02*
X118042695Y-97319047D01*
X118042695Y-97319047D02*
X118137933Y-97319047D01*
X118137933Y-97319047D02*
X118280790Y-97366666D01*
X118280790Y-97366666D02*
X118852219Y-97938094D01*
X118852219Y-97938094D02*
X118852219Y-97319047D01*
X118185552Y-96461904D02*
X118852219Y-96461904D01*
X118185552Y-96890475D02*
X118709361Y-96890475D01*
X118709361Y-96890475D02*
X118804600Y-96842856D01*
X118804600Y-96842856D02*
X118852219Y-96747618D01*
X118852219Y-96747618D02*
X118852219Y-96604761D01*
X118852219Y-96604761D02*
X118804600Y-96509523D01*
X118804600Y-96509523D02*
X118756980Y-96461904D01*
X118328409Y-95652380D02*
X118328409Y-95985713D01*
X118852219Y-95985713D02*
X117852219Y-95985713D01*
X117852219Y-95985713D02*
X117852219Y-95509523D01*
X122852219Y-95166666D02*
X122376028Y-95499999D01*
X122852219Y-95738094D02*
X121852219Y-95738094D01*
X121852219Y-95738094D02*
X121852219Y-95357142D01*
X121852219Y-95357142D02*
X121899838Y-95261904D01*
X121899838Y-95261904D02*
X121947457Y-95214285D01*
X121947457Y-95214285D02*
X122042695Y-95166666D01*
X122042695Y-95166666D02*
X122185552Y-95166666D01*
X122185552Y-95166666D02*
X122280790Y-95214285D01*
X122280790Y-95214285D02*
X122328409Y-95261904D01*
X122328409Y-95261904D02*
X122376028Y-95357142D01*
X122376028Y-95357142D02*
X122376028Y-95738094D01*
X121947457Y-94785713D02*
X121899838Y-94738094D01*
X121899838Y-94738094D02*
X121852219Y-94642856D01*
X121852219Y-94642856D02*
X121852219Y-94404761D01*
X121852219Y-94404761D02*
X121899838Y-94309523D01*
X121899838Y-94309523D02*
X121947457Y-94261904D01*
X121947457Y-94261904D02*
X122042695Y-94214285D01*
X122042695Y-94214285D02*
X122137933Y-94214285D01*
X122137933Y-94214285D02*
X122280790Y-94261904D01*
X122280790Y-94261904D02*
X122852219Y-94833332D01*
X122852219Y-94833332D02*
X122852219Y-94214285D01*
X125652219Y-95652380D02*
X125652219Y-95033333D01*
X125652219Y-95033333D02*
X126033171Y-95366666D01*
X126033171Y-95366666D02*
X126033171Y-95223809D01*
X126033171Y-95223809D02*
X126080790Y-95128571D01*
X126080790Y-95128571D02*
X126128409Y-95080952D01*
X126128409Y-95080952D02*
X126223647Y-95033333D01*
X126223647Y-95033333D02*
X126461742Y-95033333D01*
X126461742Y-95033333D02*
X126556980Y-95080952D01*
X126556980Y-95080952D02*
X126604600Y-95128571D01*
X126604600Y-95128571D02*
X126652219Y-95223809D01*
X126652219Y-95223809D02*
X126652219Y-95509523D01*
X126652219Y-95509523D02*
X126604600Y-95604761D01*
X126604600Y-95604761D02*
X126556980Y-95652380D01*
X126556980Y-94604761D02*
X126604600Y-94557142D01*
X126604600Y-94557142D02*
X126652219Y-94604761D01*
X126652219Y-94604761D02*
X126604600Y-94652380D01*
X126604600Y-94652380D02*
X126556980Y-94604761D01*
X126556980Y-94604761D02*
X126652219Y-94604761D01*
X125652219Y-94223809D02*
X125652219Y-93604762D01*
X125652219Y-93604762D02*
X126033171Y-93938095D01*
X126033171Y-93938095D02*
X126033171Y-93795238D01*
X126033171Y-93795238D02*
X126080790Y-93700000D01*
X126080790Y-93700000D02*
X126128409Y-93652381D01*
X126128409Y-93652381D02*
X126223647Y-93604762D01*
X126223647Y-93604762D02*
X126461742Y-93604762D01*
X126461742Y-93604762D02*
X126556980Y-93652381D01*
X126556980Y-93652381D02*
X126604600Y-93700000D01*
X126604600Y-93700000D02*
X126652219Y-93795238D01*
X126652219Y-93795238D02*
X126652219Y-94080952D01*
X126652219Y-94080952D02*
X126604600Y-94176190D01*
X126604600Y-94176190D02*
X126556980Y-94223809D01*
X126652219Y-93176190D02*
X125652219Y-93176190D01*
X126271266Y-93080952D02*
X126652219Y-92795238D01*
X125985552Y-92795238D02*
X126366504Y-93176190D01*
X114702381Y-80952219D02*
X115273809Y-80952219D01*
X114988095Y-81952219D02*
X114988095Y-80952219D01*
X115607143Y-81952219D02*
X115607143Y-80952219D01*
X115607143Y-80952219D02*
X115988095Y-80952219D01*
X115988095Y-80952219D02*
X116083333Y-80999838D01*
X116083333Y-80999838D02*
X116130952Y-81047457D01*
X116130952Y-81047457D02*
X116178571Y-81142695D01*
X116178571Y-81142695D02*
X116178571Y-81285552D01*
X116178571Y-81285552D02*
X116130952Y-81380790D01*
X116130952Y-81380790D02*
X116083333Y-81428409D01*
X116083333Y-81428409D02*
X115988095Y-81476028D01*
X115988095Y-81476028D02*
X115607143Y-81476028D01*
X116369048Y-82047457D02*
X117130952Y-82047457D01*
X117273810Y-80952219D02*
X117892857Y-80952219D01*
X117892857Y-80952219D02*
X117559524Y-81333171D01*
X117559524Y-81333171D02*
X117702381Y-81333171D01*
X117702381Y-81333171D02*
X117797619Y-81380790D01*
X117797619Y-81380790D02*
X117845238Y-81428409D01*
X117845238Y-81428409D02*
X117892857Y-81523647D01*
X117892857Y-81523647D02*
X117892857Y-81761742D01*
X117892857Y-81761742D02*
X117845238Y-81856980D01*
X117845238Y-81856980D02*
X117797619Y-81904600D01*
X117797619Y-81904600D02*
X117702381Y-81952219D01*
X117702381Y-81952219D02*
X117416667Y-81952219D01*
X117416667Y-81952219D02*
X117321429Y-81904600D01*
X117321429Y-81904600D02*
X117273810Y-81856980D01*
X118178572Y-80952219D02*
X118511905Y-81952219D01*
X118511905Y-81952219D02*
X118845238Y-80952219D01*
X119083334Y-80952219D02*
X119702381Y-80952219D01*
X119702381Y-80952219D02*
X119369048Y-81333171D01*
X119369048Y-81333171D02*
X119511905Y-81333171D01*
X119511905Y-81333171D02*
X119607143Y-81380790D01*
X119607143Y-81380790D02*
X119654762Y-81428409D01*
X119654762Y-81428409D02*
X119702381Y-81523647D01*
X119702381Y-81523647D02*
X119702381Y-81761742D01*
X119702381Y-81761742D02*
X119654762Y-81856980D01*
X119654762Y-81856980D02*
X119607143Y-81904600D01*
X119607143Y-81904600D02*
X119511905Y-81952219D01*
X119511905Y-81952219D02*
X119226191Y-81952219D01*
X119226191Y-81952219D02*
X119130953Y-81904600D01*
X119130953Y-81904600D02*
X119083334Y-81856980D01*
X164452219Y-110333333D02*
X165166504Y-110333333D01*
X165166504Y-110333333D02*
X165309361Y-110380952D01*
X165309361Y-110380952D02*
X165404600Y-110476190D01*
X165404600Y-110476190D02*
X165452219Y-110619047D01*
X165452219Y-110619047D02*
X165452219Y-110714285D01*
X164547457Y-109904761D02*
X164499838Y-109857142D01*
X164499838Y-109857142D02*
X164452219Y-109761904D01*
X164452219Y-109761904D02*
X164452219Y-109523809D01*
X164452219Y-109523809D02*
X164499838Y-109428571D01*
X164499838Y-109428571D02*
X164547457Y-109380952D01*
X164547457Y-109380952D02*
X164642695Y-109333333D01*
X164642695Y-109333333D02*
X164737933Y-109333333D01*
X164737933Y-109333333D02*
X164880790Y-109380952D01*
X164880790Y-109380952D02*
X165452219Y-109952380D01*
X165452219Y-109952380D02*
X165452219Y-109333333D01*
X157356980Y-89166666D02*
X157404600Y-89214285D01*
X157404600Y-89214285D02*
X157452219Y-89357142D01*
X157452219Y-89357142D02*
X157452219Y-89452380D01*
X157452219Y-89452380D02*
X157404600Y-89595237D01*
X157404600Y-89595237D02*
X157309361Y-89690475D01*
X157309361Y-89690475D02*
X157214123Y-89738094D01*
X157214123Y-89738094D02*
X157023647Y-89785713D01*
X157023647Y-89785713D02*
X156880790Y-89785713D01*
X156880790Y-89785713D02*
X156690314Y-89738094D01*
X156690314Y-89738094D02*
X156595076Y-89690475D01*
X156595076Y-89690475D02*
X156499838Y-89595237D01*
X156499838Y-89595237D02*
X156452219Y-89452380D01*
X156452219Y-89452380D02*
X156452219Y-89357142D01*
X156452219Y-89357142D02*
X156499838Y-89214285D01*
X156499838Y-89214285D02*
X156547457Y-89166666D01*
X156880790Y-88595237D02*
X156833171Y-88690475D01*
X156833171Y-88690475D02*
X156785552Y-88738094D01*
X156785552Y-88738094D02*
X156690314Y-88785713D01*
X156690314Y-88785713D02*
X156642695Y-88785713D01*
X156642695Y-88785713D02*
X156547457Y-88738094D01*
X156547457Y-88738094D02*
X156499838Y-88690475D01*
X156499838Y-88690475D02*
X156452219Y-88595237D01*
X156452219Y-88595237D02*
X156452219Y-88404761D01*
X156452219Y-88404761D02*
X156499838Y-88309523D01*
X156499838Y-88309523D02*
X156547457Y-88261904D01*
X156547457Y-88261904D02*
X156642695Y-88214285D01*
X156642695Y-88214285D02*
X156690314Y-88214285D01*
X156690314Y-88214285D02*
X156785552Y-88261904D01*
X156785552Y-88261904D02*
X156833171Y-88309523D01*
X156833171Y-88309523D02*
X156880790Y-88404761D01*
X156880790Y-88404761D02*
X156880790Y-88595237D01*
X156880790Y-88595237D02*
X156928409Y-88690475D01*
X156928409Y-88690475D02*
X156976028Y-88738094D01*
X156976028Y-88738094D02*
X157071266Y-88785713D01*
X157071266Y-88785713D02*
X157261742Y-88785713D01*
X157261742Y-88785713D02*
X157356980Y-88738094D01*
X157356980Y-88738094D02*
X157404600Y-88690475D01*
X157404600Y-88690475D02*
X157452219Y-88595237D01*
X157452219Y-88595237D02*
X157452219Y-88404761D01*
X157452219Y-88404761D02*
X157404600Y-88309523D01*
X157404600Y-88309523D02*
X157356980Y-88261904D01*
X157356980Y-88261904D02*
X157261742Y-88214285D01*
X157261742Y-88214285D02*
X157071266Y-88214285D01*
X157071266Y-88214285D02*
X156976028Y-88261904D01*
X156976028Y-88261904D02*
X156928409Y-88309523D01*
X156928409Y-88309523D02*
X156880790Y-88404761D01*
X156452219Y-98392856D02*
X156452219Y-98297618D01*
X156452219Y-98297618D02*
X156499838Y-98202380D01*
X156499838Y-98202380D02*
X156547457Y-98154761D01*
X156547457Y-98154761D02*
X156642695Y-98107142D01*
X156642695Y-98107142D02*
X156833171Y-98059523D01*
X156833171Y-98059523D02*
X157071266Y-98059523D01*
X157071266Y-98059523D02*
X157261742Y-98107142D01*
X157261742Y-98107142D02*
X157356980Y-98154761D01*
X157356980Y-98154761D02*
X157404600Y-98202380D01*
X157404600Y-98202380D02*
X157452219Y-98297618D01*
X157452219Y-98297618D02*
X157452219Y-98392856D01*
X157452219Y-98392856D02*
X157404600Y-98488094D01*
X157404600Y-98488094D02*
X157356980Y-98535713D01*
X157356980Y-98535713D02*
X157261742Y-98583332D01*
X157261742Y-98583332D02*
X157071266Y-98630951D01*
X157071266Y-98630951D02*
X156833171Y-98630951D01*
X156833171Y-98630951D02*
X156642695Y-98583332D01*
X156642695Y-98583332D02*
X156547457Y-98535713D01*
X156547457Y-98535713D02*
X156499838Y-98488094D01*
X156499838Y-98488094D02*
X156452219Y-98392856D01*
X157356980Y-97630951D02*
X157404600Y-97583332D01*
X157404600Y-97583332D02*
X157452219Y-97630951D01*
X157452219Y-97630951D02*
X157404600Y-97678570D01*
X157404600Y-97678570D02*
X157356980Y-97630951D01*
X157356980Y-97630951D02*
X157452219Y-97630951D01*
X157452219Y-96630952D02*
X157452219Y-97202380D01*
X157452219Y-96916666D02*
X156452219Y-96916666D01*
X156452219Y-96916666D02*
X156595076Y-97011904D01*
X156595076Y-97011904D02*
X156690314Y-97107142D01*
X156690314Y-97107142D02*
X156737933Y-97202380D01*
X156785552Y-95773809D02*
X157452219Y-95773809D01*
X156785552Y-96202380D02*
X157309361Y-96202380D01*
X157309361Y-96202380D02*
X157404600Y-96154761D01*
X157404600Y-96154761D02*
X157452219Y-96059523D01*
X157452219Y-96059523D02*
X157452219Y-95916666D01*
X157452219Y-95916666D02*
X157404600Y-95821428D01*
X157404600Y-95821428D02*
X157356980Y-95773809D01*
X156928409Y-94964285D02*
X156928409Y-95297618D01*
X157452219Y-95297618D02*
X156452219Y-95297618D01*
X156452219Y-95297618D02*
X156452219Y-94821428D01*
X148761905Y-85952219D02*
X149333333Y-85952219D01*
X149047619Y-86952219D02*
X149047619Y-85952219D01*
X149666667Y-86952219D02*
X149666667Y-85952219D01*
X149666667Y-85952219D02*
X150047619Y-85952219D01*
X150047619Y-85952219D02*
X150142857Y-85999838D01*
X150142857Y-85999838D02*
X150190476Y-86047457D01*
X150190476Y-86047457D02*
X150238095Y-86142695D01*
X150238095Y-86142695D02*
X150238095Y-86285552D01*
X150238095Y-86285552D02*
X150190476Y-86380790D01*
X150190476Y-86380790D02*
X150142857Y-86428409D01*
X150142857Y-86428409D02*
X150047619Y-86476028D01*
X150047619Y-86476028D02*
X149666667Y-86476028D01*
X151190476Y-86952219D02*
X150619048Y-86952219D01*
X150904762Y-86952219D02*
X150904762Y-85952219D01*
X150904762Y-85952219D02*
X150809524Y-86095076D01*
X150809524Y-86095076D02*
X150714286Y-86190314D01*
X150714286Y-86190314D02*
X150619048Y-86237933D01*
X152142857Y-86952219D02*
X151571429Y-86952219D01*
X151857143Y-86952219D02*
X151857143Y-85952219D01*
X151857143Y-85952219D02*
X151761905Y-86095076D01*
X151761905Y-86095076D02*
X151666667Y-86190314D01*
X151666667Y-86190314D02*
X151571429Y-86237933D01*
D12*
X110904761Y-90799017D02*
X110809523Y-90751398D01*
X110809523Y-90751398D02*
X110714285Y-90656160D01*
X110714285Y-90656160D02*
X110571428Y-90513302D01*
X110571428Y-90513302D02*
X110476190Y-90465683D01*
X110476190Y-90465683D02*
X110380952Y-90465683D01*
X110428571Y-90703779D02*
X110333333Y-90656160D01*
X110333333Y-90656160D02*
X110238095Y-90560921D01*
X110238095Y-90560921D02*
X110190476Y-90370445D01*
X110190476Y-90370445D02*
X110190476Y-90037112D01*
X110190476Y-90037112D02*
X110238095Y-89846636D01*
X110238095Y-89846636D02*
X110333333Y-89751398D01*
X110333333Y-89751398D02*
X110428571Y-89703779D01*
X110428571Y-89703779D02*
X110619047Y-89703779D01*
X110619047Y-89703779D02*
X110714285Y-89751398D01*
X110714285Y-89751398D02*
X110809523Y-89846636D01*
X110809523Y-89846636D02*
X110857142Y-90037112D01*
X110857142Y-90037112D02*
X110857142Y-90370445D01*
X110857142Y-90370445D02*
X110809523Y-90560921D01*
X110809523Y-90560921D02*
X110714285Y-90656160D01*
X110714285Y-90656160D02*
X110619047Y-90703779D01*
X110619047Y-90703779D02*
X110428571Y-90703779D01*
X111809523Y-90703779D02*
X111238095Y-90703779D01*
X111523809Y-90703779D02*
X111523809Y-89703779D01*
X111523809Y-89703779D02*
X111428571Y-89846636D01*
X111428571Y-89846636D02*
X111333333Y-89941874D01*
X111333333Y-89941874D02*
X111238095Y-89989493D01*
D11*
X159906980Y-89166666D02*
X159954600Y-89214285D01*
X159954600Y-89214285D02*
X160002219Y-89357142D01*
X160002219Y-89357142D02*
X160002219Y-89452380D01*
X160002219Y-89452380D02*
X159954600Y-89595237D01*
X159954600Y-89595237D02*
X159859361Y-89690475D01*
X159859361Y-89690475D02*
X159764123Y-89738094D01*
X159764123Y-89738094D02*
X159573647Y-89785713D01*
X159573647Y-89785713D02*
X159430790Y-89785713D01*
X159430790Y-89785713D02*
X159240314Y-89738094D01*
X159240314Y-89738094D02*
X159145076Y-89690475D01*
X159145076Y-89690475D02*
X159049838Y-89595237D01*
X159049838Y-89595237D02*
X159002219Y-89452380D01*
X159002219Y-89452380D02*
X159002219Y-89357142D01*
X159002219Y-89357142D02*
X159049838Y-89214285D01*
X159049838Y-89214285D02*
X159097457Y-89166666D01*
X159002219Y-88833332D02*
X159002219Y-88166666D01*
X159002219Y-88166666D02*
X160002219Y-88595237D01*
X162052219Y-93747619D02*
X162052219Y-94319047D01*
X162052219Y-94033333D02*
X161052219Y-94033333D01*
X161052219Y-94033333D02*
X161195076Y-94128571D01*
X161195076Y-94128571D02*
X161290314Y-94223809D01*
X161290314Y-94223809D02*
X161337933Y-94319047D01*
X161052219Y-93128571D02*
X161052219Y-93033333D01*
X161052219Y-93033333D02*
X161099838Y-92938095D01*
X161099838Y-92938095D02*
X161147457Y-92890476D01*
X161147457Y-92890476D02*
X161242695Y-92842857D01*
X161242695Y-92842857D02*
X161433171Y-92795238D01*
X161433171Y-92795238D02*
X161671266Y-92795238D01*
X161671266Y-92795238D02*
X161861742Y-92842857D01*
X161861742Y-92842857D02*
X161956980Y-92890476D01*
X161956980Y-92890476D02*
X162004600Y-92938095D01*
X162004600Y-92938095D02*
X162052219Y-93033333D01*
X162052219Y-93033333D02*
X162052219Y-93128571D01*
X162052219Y-93128571D02*
X162004600Y-93223809D01*
X162004600Y-93223809D02*
X161956980Y-93271428D01*
X161956980Y-93271428D02*
X161861742Y-93319047D01*
X161861742Y-93319047D02*
X161671266Y-93366666D01*
X161671266Y-93366666D02*
X161433171Y-93366666D01*
X161433171Y-93366666D02*
X161242695Y-93319047D01*
X161242695Y-93319047D02*
X161147457Y-93271428D01*
X161147457Y-93271428D02*
X161099838Y-93223809D01*
X161099838Y-93223809D02*
X161052219Y-93128571D01*
X161052219Y-92176190D02*
X161052219Y-92080952D01*
X161052219Y-92080952D02*
X161099838Y-91985714D01*
X161099838Y-91985714D02*
X161147457Y-91938095D01*
X161147457Y-91938095D02*
X161242695Y-91890476D01*
X161242695Y-91890476D02*
X161433171Y-91842857D01*
X161433171Y-91842857D02*
X161671266Y-91842857D01*
X161671266Y-91842857D02*
X161861742Y-91890476D01*
X161861742Y-91890476D02*
X161956980Y-91938095D01*
X161956980Y-91938095D02*
X162004600Y-91985714D01*
X162004600Y-91985714D02*
X162052219Y-92080952D01*
X162052219Y-92080952D02*
X162052219Y-92176190D01*
X162052219Y-92176190D02*
X162004600Y-92271428D01*
X162004600Y-92271428D02*
X161956980Y-92319047D01*
X161956980Y-92319047D02*
X161861742Y-92366666D01*
X161861742Y-92366666D02*
X161671266Y-92414285D01*
X161671266Y-92414285D02*
X161433171Y-92414285D01*
X161433171Y-92414285D02*
X161242695Y-92366666D01*
X161242695Y-92366666D02*
X161147457Y-92319047D01*
X161147457Y-92319047D02*
X161099838Y-92271428D01*
X161099838Y-92271428D02*
X161052219Y-92176190D01*
X161385552Y-90985714D02*
X162052219Y-90985714D01*
X161385552Y-91414285D02*
X161909361Y-91414285D01*
X161909361Y-91414285D02*
X162004600Y-91366666D01*
X162004600Y-91366666D02*
X162052219Y-91271428D01*
X162052219Y-91271428D02*
X162052219Y-91128571D01*
X162052219Y-91128571D02*
X162004600Y-91033333D01*
X162004600Y-91033333D02*
X161956980Y-90985714D01*
X161528409Y-90176190D02*
X161528409Y-90509523D01*
X162052219Y-90509523D02*
X161052219Y-90509523D01*
X161052219Y-90509523D02*
X161052219Y-90033333D01*
X99052219Y-90756904D02*
X99766504Y-90756904D01*
X99766504Y-90756904D02*
X99909361Y-90804523D01*
X99909361Y-90804523D02*
X100004600Y-90899761D01*
X100004600Y-90899761D02*
X100052219Y-91042618D01*
X100052219Y-91042618D02*
X100052219Y-91137856D01*
X100052219Y-89852142D02*
X99528409Y-89852142D01*
X99528409Y-89852142D02*
X99433171Y-89899761D01*
X99433171Y-89899761D02*
X99385552Y-89994999D01*
X99385552Y-89994999D02*
X99385552Y-90185475D01*
X99385552Y-90185475D02*
X99433171Y-90280713D01*
X100004600Y-89852142D02*
X100052219Y-89947380D01*
X100052219Y-89947380D02*
X100052219Y-90185475D01*
X100052219Y-90185475D02*
X100004600Y-90280713D01*
X100004600Y-90280713D02*
X99909361Y-90328332D01*
X99909361Y-90328332D02*
X99814123Y-90328332D01*
X99814123Y-90328332D02*
X99718885Y-90280713D01*
X99718885Y-90280713D02*
X99671266Y-90185475D01*
X99671266Y-90185475D02*
X99671266Y-89947380D01*
X99671266Y-89947380D02*
X99623647Y-89852142D01*
X100004600Y-88947380D02*
X100052219Y-89042618D01*
X100052219Y-89042618D02*
X100052219Y-89233094D01*
X100052219Y-89233094D02*
X100004600Y-89328332D01*
X100004600Y-89328332D02*
X99956980Y-89375951D01*
X99956980Y-89375951D02*
X99861742Y-89423570D01*
X99861742Y-89423570D02*
X99576028Y-89423570D01*
X99576028Y-89423570D02*
X99480790Y-89375951D01*
X99480790Y-89375951D02*
X99433171Y-89328332D01*
X99433171Y-89328332D02*
X99385552Y-89233094D01*
X99385552Y-89233094D02*
X99385552Y-89042618D01*
X99385552Y-89042618D02*
X99433171Y-88947380D01*
X100052219Y-88518808D02*
X99052219Y-88518808D01*
X99671266Y-88423570D02*
X100052219Y-88137856D01*
X99385552Y-88137856D02*
X99766504Y-88518808D01*
X99671266Y-87709284D02*
X99671266Y-86947380D01*
X100052219Y-86471189D02*
X99052219Y-86471189D01*
X99052219Y-86471189D02*
X99052219Y-86233094D01*
X99052219Y-86233094D02*
X99099838Y-86090237D01*
X99099838Y-86090237D02*
X99195076Y-85994999D01*
X99195076Y-85994999D02*
X99290314Y-85947380D01*
X99290314Y-85947380D02*
X99480790Y-85899761D01*
X99480790Y-85899761D02*
X99623647Y-85899761D01*
X99623647Y-85899761D02*
X99814123Y-85947380D01*
X99814123Y-85947380D02*
X99909361Y-85994999D01*
X99909361Y-85994999D02*
X100004600Y-86090237D01*
X100004600Y-86090237D02*
X100052219Y-86233094D01*
X100052219Y-86233094D02*
X100052219Y-86471189D01*
X99956980Y-84899761D02*
X100004600Y-84947380D01*
X100004600Y-84947380D02*
X100052219Y-85090237D01*
X100052219Y-85090237D02*
X100052219Y-85185475D01*
X100052219Y-85185475D02*
X100004600Y-85328332D01*
X100004600Y-85328332D02*
X99909361Y-85423570D01*
X99909361Y-85423570D02*
X99814123Y-85471189D01*
X99814123Y-85471189D02*
X99623647Y-85518808D01*
X99623647Y-85518808D02*
X99480790Y-85518808D01*
X99480790Y-85518808D02*
X99290314Y-85471189D01*
X99290314Y-85471189D02*
X99195076Y-85423570D01*
X99195076Y-85423570D02*
X99099838Y-85328332D01*
X99099838Y-85328332D02*
X99052219Y-85185475D01*
X99052219Y-85185475D02*
X99052219Y-85090237D01*
X99052219Y-85090237D02*
X99099838Y-84947380D01*
X99099838Y-84947380D02*
X99147457Y-84899761D01*
D12*
X136318095Y-91223779D02*
X136318095Y-92033302D01*
X136318095Y-92033302D02*
X136365714Y-92128540D01*
X136365714Y-92128540D02*
X136413333Y-92176160D01*
X136413333Y-92176160D02*
X136508571Y-92223779D01*
X136508571Y-92223779D02*
X136699047Y-92223779D01*
X136699047Y-92223779D02*
X136794285Y-92176160D01*
X136794285Y-92176160D02*
X136841904Y-92128540D01*
X136841904Y-92128540D02*
X136889523Y-92033302D01*
X136889523Y-92033302D02*
X136889523Y-91223779D01*
X137889523Y-92223779D02*
X137318095Y-92223779D01*
X137603809Y-92223779D02*
X137603809Y-91223779D01*
X137603809Y-91223779D02*
X137508571Y-91366636D01*
X137508571Y-91366636D02*
X137413333Y-91461874D01*
X137413333Y-91461874D02*
X137318095Y-91509493D01*
D11*
X106333333Y-80856980D02*
X106285714Y-80904600D01*
X106285714Y-80904600D02*
X106142857Y-80952219D01*
X106142857Y-80952219D02*
X106047619Y-80952219D01*
X106047619Y-80952219D02*
X105904762Y-80904600D01*
X105904762Y-80904600D02*
X105809524Y-80809361D01*
X105809524Y-80809361D02*
X105761905Y-80714123D01*
X105761905Y-80714123D02*
X105714286Y-80523647D01*
X105714286Y-80523647D02*
X105714286Y-80380790D01*
X105714286Y-80380790D02*
X105761905Y-80190314D01*
X105761905Y-80190314D02*
X105809524Y-80095076D01*
X105809524Y-80095076D02*
X105904762Y-79999838D01*
X105904762Y-79999838D02*
X106047619Y-79952219D01*
X106047619Y-79952219D02*
X106142857Y-79952219D01*
X106142857Y-79952219D02*
X106285714Y-79999838D01*
X106285714Y-79999838D02*
X106333333Y-80047457D01*
X107238095Y-79952219D02*
X106761905Y-79952219D01*
X106761905Y-79952219D02*
X106714286Y-80428409D01*
X106714286Y-80428409D02*
X106761905Y-80380790D01*
X106761905Y-80380790D02*
X106857143Y-80333171D01*
X106857143Y-80333171D02*
X107095238Y-80333171D01*
X107095238Y-80333171D02*
X107190476Y-80380790D01*
X107190476Y-80380790D02*
X107238095Y-80428409D01*
X107238095Y-80428409D02*
X107285714Y-80523647D01*
X107285714Y-80523647D02*
X107285714Y-80761742D01*
X107285714Y-80761742D02*
X107238095Y-80856980D01*
X107238095Y-80856980D02*
X107190476Y-80904600D01*
X107190476Y-80904600D02*
X107095238Y-80952219D01*
X107095238Y-80952219D02*
X106857143Y-80952219D01*
X106857143Y-80952219D02*
X106761905Y-80904600D01*
X106761905Y-80904600D02*
X106714286Y-80856980D01*
X97357143Y-79952219D02*
X97452381Y-79952219D01*
X97452381Y-79952219D02*
X97547619Y-79999838D01*
X97547619Y-79999838D02*
X97595238Y-80047457D01*
X97595238Y-80047457D02*
X97642857Y-80142695D01*
X97642857Y-80142695D02*
X97690476Y-80333171D01*
X97690476Y-80333171D02*
X97690476Y-80571266D01*
X97690476Y-80571266D02*
X97642857Y-80761742D01*
X97642857Y-80761742D02*
X97595238Y-80856980D01*
X97595238Y-80856980D02*
X97547619Y-80904600D01*
X97547619Y-80904600D02*
X97452381Y-80952219D01*
X97452381Y-80952219D02*
X97357143Y-80952219D01*
X97357143Y-80952219D02*
X97261905Y-80904600D01*
X97261905Y-80904600D02*
X97214286Y-80856980D01*
X97214286Y-80856980D02*
X97166667Y-80761742D01*
X97166667Y-80761742D02*
X97119048Y-80571266D01*
X97119048Y-80571266D02*
X97119048Y-80333171D01*
X97119048Y-80333171D02*
X97166667Y-80142695D01*
X97166667Y-80142695D02*
X97214286Y-80047457D01*
X97214286Y-80047457D02*
X97261905Y-79999838D01*
X97261905Y-79999838D02*
X97357143Y-79952219D01*
X98119048Y-80856980D02*
X98166667Y-80904600D01*
X98166667Y-80904600D02*
X98119048Y-80952219D01*
X98119048Y-80952219D02*
X98071429Y-80904600D01*
X98071429Y-80904600D02*
X98119048Y-80856980D01*
X98119048Y-80856980D02*
X98119048Y-80952219D01*
X99119047Y-80952219D02*
X98547619Y-80952219D01*
X98833333Y-80952219D02*
X98833333Y-79952219D01*
X98833333Y-79952219D02*
X98738095Y-80095076D01*
X98738095Y-80095076D02*
X98642857Y-80190314D01*
X98642857Y-80190314D02*
X98547619Y-80237933D01*
X99976190Y-80285552D02*
X99976190Y-80952219D01*
X99547619Y-80285552D02*
X99547619Y-80809361D01*
X99547619Y-80809361D02*
X99595238Y-80904600D01*
X99595238Y-80904600D02*
X99690476Y-80952219D01*
X99690476Y-80952219D02*
X99833333Y-80952219D01*
X99833333Y-80952219D02*
X99928571Y-80904600D01*
X99928571Y-80904600D02*
X99976190Y-80856980D01*
X100785714Y-80428409D02*
X100452381Y-80428409D01*
X100452381Y-80952219D02*
X100452381Y-79952219D01*
X100452381Y-79952219D02*
X100928571Y-79952219D01*
D13*
%TO.C,TP12*%
X153550000Y-87800000D02*
X155450000Y-87800000D01*
X153550000Y-89700000D02*
X153550000Y-87800000D01*
X155450000Y-87800000D02*
X155450000Y-89700000D01*
X155450000Y-89700000D02*
X153550000Y-89700000D01*
%TO.C,TP9*%
X156300000Y-105850000D02*
X158200000Y-105850000D01*
X156300000Y-107750000D02*
X156300000Y-105850000D01*
X158200000Y-105850000D02*
X158200000Y-107750000D01*
X158200000Y-107750000D02*
X156300000Y-107750000D01*
%TO.C,JP1*%
X123000000Y-90850000D02*
X123000000Y-89450000D01*
X123700000Y-88750000D02*
X124300000Y-88750000D01*
X124300000Y-91550000D02*
X123700000Y-91550000D01*
X125000000Y-89450000D02*
X125000000Y-90850000D01*
X123000000Y-89450000D02*
G75*
G02*
X123700000Y-88750000I699999J1D01*
G01*
X123700000Y-91550000D02*
G75*
G02*
X123000000Y-90850000I0J700000D01*
G01*
X124300000Y-88750000D02*
G75*
G02*
X125000000Y-89450000I1J-699999D01*
G01*
X125000000Y-90850000D02*
G75*
G02*
X124300000Y-91550000I-700000J0D01*
G01*
%TO.C,C2*%
X120265000Y-82738748D02*
X120265000Y-83261252D01*
X121735000Y-82738748D02*
X121735000Y-83261252D01*
%TO.C,TP15*%
X103550000Y-76550000D02*
X105450000Y-76550000D01*
X103550000Y-78450000D02*
X103550000Y-76550000D01*
X105450000Y-76550000D02*
X105450000Y-78450000D01*
X105450000Y-78450000D02*
X103550000Y-78450000D01*
%TO.C,TP16*%
X158550000Y-81550000D02*
X160450000Y-81550000D01*
X158550000Y-83450000D02*
X158550000Y-81550000D01*
X160450000Y-81550000D02*
X160450000Y-83450000D01*
X160450000Y-83450000D02*
X158550000Y-83450000D01*
%TO.C,R1*%
X147515000Y-105977064D02*
X147515000Y-105522936D01*
X148985000Y-105977064D02*
X148985000Y-105522936D01*
%TO.C,TP3_C1*%
X106800000Y-113050000D02*
X108700000Y-113050000D01*
X106800000Y-114950000D02*
X106800000Y-113050000D01*
X108700000Y-113050000D02*
X108700000Y-114950000D01*
X108700000Y-114950000D02*
X106800000Y-114950000D01*
%TO.C,U3*%
X116150000Y-86590000D02*
X119910000Y-86590000D01*
X116150000Y-93410000D02*
X119910000Y-93410000D01*
X119910000Y-86590000D02*
X119910000Y-87850000D01*
X119910000Y-93410000D02*
X119910000Y-92150000D01*
X114870000Y-86690000D02*
X114630000Y-86360000D01*
X115110000Y-86360000D01*
X114870000Y-86690000D01*
G36*
X114870000Y-86690000D02*
G01*
X114630000Y-86360000D01*
X115110000Y-86360000D01*
X114870000Y-86690000D01*
G37*
%TO.C,TP2_B1*%
X104050000Y-113050000D02*
X105950000Y-113050000D01*
X104050000Y-114950000D02*
X104050000Y-113050000D01*
X105950000Y-113050000D02*
X105950000Y-114950000D01*
X105950000Y-114950000D02*
X104050000Y-114950000D01*
%TO.C,J3*%
X123840000Y-111220000D02*
X123840000Y-112260000D01*
X123840000Y-112260000D02*
X124640000Y-112260000D01*
X124080000Y-105280000D02*
X124080000Y-112020000D01*
X124080000Y-105280000D02*
X145140000Y-105280000D01*
X124080000Y-106999000D02*
X145140000Y-106999000D01*
X124080000Y-110100000D02*
X145140000Y-110100000D01*
X124080000Y-111100000D02*
X145140000Y-111100000D01*
X124080000Y-112020000D02*
X145140000Y-112020000D01*
X145140000Y-105280000D02*
X145140000Y-112020000D01*
%TO.C,D1*%
X150200000Y-103950000D02*
X150200000Y-107550000D01*
X150200000Y-107550000D02*
X153800000Y-107550000D01*
X153800000Y-103950000D02*
X150200000Y-103950000D01*
X153800000Y-107550000D02*
X153800000Y-103950000D01*
%TO.C,C1*%
X123765000Y-82738748D02*
X123765000Y-83261252D01*
X125235000Y-82738748D02*
X125235000Y-83261252D01*
%TO.C,C4*%
X103761252Y-82265000D02*
X103238748Y-82265000D01*
X103761252Y-83735000D02*
X103238748Y-83735000D01*
%TO.C,JP2*%
X147700000Y-100300000D02*
X147700000Y-99700000D01*
X148400000Y-99000000D02*
X149800000Y-99000000D01*
X149800000Y-101000000D02*
X148400000Y-101000000D01*
X150500000Y-99700000D02*
X150500000Y-100300000D01*
X147700000Y-99700000D02*
G75*
G02*
X148400000Y-99000000I699999J1D01*
G01*
X148400000Y-101000000D02*
G75*
G02*
X147700000Y-100300000I-1J699999D01*
G01*
X149800000Y-99000000D02*
G75*
G02*
X150500000Y-99700000I0J-700000D01*
G01*
X150500000Y-100300000D02*
G75*
G02*
X149800000Y-101000000I-700000J0D01*
G01*
%TO.C,TP14*%
X93751000Y-73750000D02*
G75*
G02*
X91249000Y-73750000I-1251000J0D01*
G01*
X91249000Y-73750000D02*
G75*
G02*
X93751000Y-73750000I1251000J0D01*
G01*
%TO.C,TP17*%
X166050000Y-77050000D02*
X167950000Y-77050000D01*
X166050000Y-78950000D02*
X166050000Y-77050000D01*
X167950000Y-77050000D02*
X167950000Y-78950000D01*
X167950000Y-78950000D02*
X166050000Y-78950000D01*
%TO.C,R4*%
X159765000Y-109727064D02*
X159765000Y-109272936D01*
X161235000Y-109727064D02*
X161235000Y-109272936D01*
%TO.C,TP7_G1*%
X117800000Y-113050000D02*
X119700000Y-113050000D01*
X117800000Y-114950000D02*
X117800000Y-113050000D01*
X119700000Y-113050000D02*
X119700000Y-114950000D01*
X119700000Y-114950000D02*
X117800000Y-114950000D01*
%TO.C,U2*%
X151500000Y-90440000D02*
X149550000Y-90440000D01*
X151500000Y-90440000D02*
X153450000Y-90440000D01*
X151500000Y-95560000D02*
X149550000Y-95560000D01*
X151500000Y-95560000D02*
X153450000Y-95560000D01*
X148800000Y-90535000D02*
X148560000Y-90205000D01*
X149040000Y-90205000D01*
X148800000Y-90535000D01*
G36*
X148800000Y-90535000D02*
G01*
X148560000Y-90205000D01*
X149040000Y-90205000D01*
X148800000Y-90535000D01*
G37*
%TO.C,TP10*%
X156300000Y-101800000D02*
X158200000Y-101800000D01*
X156300000Y-103700000D02*
X156300000Y-101800000D01*
X158200000Y-101800000D02*
X158200000Y-103700000D01*
X158200000Y-103700000D02*
X156300000Y-103700000D01*
%TO.C,R3*%
X111047500Y-81158500D02*
X111047500Y-84841500D01*
X111047500Y-84841500D02*
X112952500Y-84841500D01*
X112952500Y-81158500D02*
X111047500Y-81158500D01*
X112952500Y-84841500D02*
X112952500Y-81158500D01*
%TO.C,J1*%
X100620000Y-111220000D02*
X100620000Y-112260000D01*
X100620000Y-112260000D02*
X101420000Y-112260000D01*
X100860000Y-105280000D02*
X100860000Y-112020000D01*
X100860000Y-105280000D02*
X121920000Y-105280000D01*
X100860000Y-106999000D02*
X121920000Y-106999000D01*
X100860000Y-110100000D02*
X121920000Y-110100000D01*
X100860000Y-111100000D02*
X121920000Y-111100000D01*
X100860000Y-112020000D02*
X121920000Y-112020000D01*
X121920000Y-105280000D02*
X121920000Y-112020000D01*
%TO.C,C3*%
X124738748Y-96265000D02*
X125261252Y-96265000D01*
X124738748Y-97735000D02*
X125261252Y-97735000D01*
%TO.C,J5*%
X162240000Y-80040000D02*
X162240000Y-80840000D01*
X162480000Y-80280000D02*
X162480000Y-88641000D01*
X163280000Y-80040000D02*
X162240000Y-80040000D01*
X163400000Y-80280000D02*
X163400000Y-88641000D01*
X164400000Y-80280000D02*
X164400000Y-88641000D01*
X167501000Y-80280000D02*
X167501000Y-88641000D01*
X169220000Y-80280000D02*
X162480000Y-80280000D01*
X169220000Y-80280000D02*
X169220000Y-88641000D01*
X169220000Y-88641000D02*
X162480000Y-88641000D01*
%TO.C,R5*%
X159765000Y-102227064D02*
X159765000Y-101772936D01*
X161235000Y-102227064D02*
X161235000Y-101772936D01*
%TO.C,TP8_H1*%
X120550000Y-113050000D02*
X122450000Y-113050000D01*
X120550000Y-114950000D02*
X120550000Y-113050000D01*
X122450000Y-113050000D02*
X122450000Y-114950000D01*
X122450000Y-114950000D02*
X120550000Y-114950000D01*
%TO.C,C6*%
X119765000Y-95776248D02*
X119765000Y-96298752D01*
X121235000Y-95776248D02*
X121235000Y-96298752D01*
%TO.C,TP4_D1*%
X109550000Y-113050000D02*
X111450000Y-113050000D01*
X109550000Y-114950000D02*
X109550000Y-113050000D01*
X111450000Y-113050000D02*
X111450000Y-114950000D01*
X111450000Y-114950000D02*
X109550000Y-114950000D01*
%TO.C,R2*%
X123265000Y-94227064D02*
X123265000Y-93772936D01*
X124735000Y-94227064D02*
X124735000Y-93772936D01*
%TO.C,TP5_E1*%
X112300000Y-113050000D02*
X114200000Y-113050000D01*
X112300000Y-114950000D02*
X112300000Y-113050000D01*
X114200000Y-113050000D02*
X114200000Y-114950000D01*
X114200000Y-114950000D02*
X112300000Y-114950000D01*
%TO.C,TP6_F1*%
X115050000Y-113050000D02*
X116950000Y-113050000D01*
X115050000Y-114950000D02*
X115050000Y-113050000D01*
X116950000Y-113050000D02*
X116950000Y-114950000D01*
X116950000Y-114950000D02*
X115050000Y-114950000D01*
%TO.C,TP13*%
X117050000Y-82550000D02*
X118950000Y-82550000D01*
X117050000Y-84450000D02*
X117050000Y-82550000D01*
X118950000Y-82550000D02*
X118950000Y-84450000D01*
X118950000Y-84450000D02*
X117050000Y-84450000D01*
%TO.C,J2*%
X161880000Y-97530000D02*
X168620000Y-97530000D01*
X161880000Y-108430000D02*
X161880000Y-97530000D01*
X161880000Y-108430000D02*
X168620000Y-108430000D01*
X163599000Y-108430000D02*
X163599000Y-97530000D01*
X166700000Y-108430000D02*
X166700000Y-97530000D01*
X167700000Y-108430000D02*
X167700000Y-97530000D01*
X167820000Y-108670000D02*
X168860000Y-108670000D01*
X168620000Y-108430000D02*
X168620000Y-97530000D01*
X168860000Y-108670000D02*
X168860000Y-107870000D01*
%TO.C,C8*%
X156265000Y-91951248D02*
X156265000Y-92473752D01*
X157735000Y-91951248D02*
X157735000Y-92473752D01*
%TO.C,TP11*%
X150050000Y-87800000D02*
X151950000Y-87800000D01*
X150050000Y-89700000D02*
X150050000Y-87800000D01*
X151950000Y-87800000D02*
X151950000Y-89700000D01*
X151950000Y-89700000D02*
X150050000Y-89700000D01*
%TO.C,Q1*%
X109200000Y-85700000D02*
X109200000Y-89300000D01*
X109200000Y-89300000D02*
X112800000Y-89300000D01*
X112800000Y-85700000D02*
X109200000Y-85700000D01*
X112800000Y-89300000D02*
X112800000Y-85700000D01*
%TO.C,C7*%
X158765000Y-91951248D02*
X158765000Y-92473752D01*
X160235000Y-91951248D02*
X160235000Y-92473752D01*
%TO.C,J4*%
X100890000Y-84845000D02*
X100890000Y-85645000D01*
X101130000Y-85085000D02*
X101130000Y-90905000D01*
X101930000Y-84845000D02*
X100890000Y-84845000D01*
X102050000Y-85085000D02*
X102050000Y-90905000D01*
X103050000Y-85085000D02*
X103050000Y-90905000D01*
X106151000Y-85085000D02*
X106151000Y-90905000D01*
X107870000Y-85085000D02*
X101130000Y-85085000D01*
X107870000Y-85085000D02*
X107870000Y-90905000D01*
X107870000Y-90905000D02*
X101130000Y-90905000D01*
%TO.C,U1*%
X128050000Y-72820000D02*
X128050000Y-79020000D01*
X128050000Y-72820000D02*
X146450000Y-72820000D01*
X128050000Y-97670000D02*
X128050000Y-98670000D01*
X128050000Y-98670000D02*
X129550000Y-98670000D01*
X146450000Y-72820000D02*
X146450000Y-79020000D01*
X146450000Y-98670000D02*
X144950000Y-98670000D01*
X146450000Y-98670000D02*
X146450000Y-97670000D01*
X128050000Y-79695000D02*
X127550000Y-79695000D01*
X128050000Y-79195000D01*
X128050000Y-79695000D01*
G36*
X128050000Y-79695000D02*
G01*
X127550000Y-79695000D01*
X128050000Y-79195000D01*
X128050000Y-79695000D01*
G37*
%TO.C,C5*%
X103723752Y-79765000D02*
X103201248Y-79765000D01*
X103723752Y-81235000D02*
X103201248Y-81235000D01*
%TO.C,TP1_A1*%
X101300000Y-113050000D02*
X103200000Y-113050000D01*
X101300000Y-114950000D02*
X101300000Y-113050000D01*
X103200000Y-113050000D02*
X103200000Y-114950000D01*
X103200000Y-114950000D02*
X101300000Y-114950000D01*
%TD*%
%LPC*%
D14*
%TO.C,TP12*%
X154500000Y-88750000D03*
%TD*%
%TO.C,TP9*%
X157250000Y-106800000D03*
%TD*%
D15*
%TO.C,JP1*%
X124000000Y-89500000D03*
D16*
X124000000Y-90800000D03*
%TD*%
D17*
%TO.C,C2*%
X121000000Y-81962500D03*
X121000000Y-84037500D03*
%TD*%
D14*
%TO.C,TP15*%
X104500000Y-77500000D03*
%TD*%
%TO.C,TP16*%
X159500000Y-82500000D03*
%TD*%
D18*
%TO.C,*%
X175750000Y-66000000D03*
%TD*%
D19*
%TO.C,R1*%
X148250000Y-106750000D03*
X148250000Y-104750000D03*
%TD*%
D14*
%TO.C,TP3_C1*%
X107750000Y-114000000D03*
%TD*%
D20*
%TO.C,U3*%
X114850000Y-87700000D03*
X114850000Y-90000000D03*
D21*
X121150000Y-90000000D03*
D20*
X114850000Y-92300000D03*
%TD*%
D14*
%TO.C,TP2_B1*%
X105000000Y-114000000D03*
%TD*%
D22*
%TO.C,J3*%
X125720000Y-108500000D03*
D23*
X128260000Y-108500000D03*
X130800000Y-108500000D03*
X133340000Y-108500000D03*
X135880000Y-108500000D03*
X138420000Y-108500000D03*
X140960000Y-108500000D03*
X143500000Y-108500000D03*
%TD*%
D24*
%TO.C,D1*%
X153000000Y-106700000D03*
X153000000Y-104800000D03*
X151000000Y-105750000D03*
%TD*%
D18*
%TO.C,*%
X94500000Y-112750000D03*
%TD*%
D17*
%TO.C,C1*%
X124500000Y-81962500D03*
X124500000Y-84037500D03*
%TD*%
D25*
%TO.C,C4*%
X104537500Y-83000000D03*
X102462500Y-83000000D03*
%TD*%
D18*
%TO.C,REF\u002A\u002A*%
X94750000Y-65500000D03*
%TD*%
D26*
%TO.C,JP2*%
X148450000Y-100000000D03*
D27*
X149750000Y-100000000D03*
%TD*%
D23*
%TO.C,TP14*%
X92500000Y-73750000D03*
%TD*%
D14*
%TO.C,TP17*%
X167000000Y-78000000D03*
%TD*%
D19*
%TO.C,R4*%
X160500000Y-110500000D03*
X160500000Y-108500000D03*
%TD*%
D18*
%TO.C,*%
X175750000Y-113000000D03*
%TD*%
D14*
%TO.C,TP7_G1*%
X118750000Y-114000000D03*
%TD*%
D28*
%TO.C,U2*%
X149025000Y-91095000D03*
X149025000Y-92365000D03*
X149025000Y-93635000D03*
X149025000Y-94905000D03*
X153975000Y-94905000D03*
X153975000Y-93635000D03*
X153975000Y-92365000D03*
X153975000Y-91095000D03*
%TD*%
D14*
%TO.C,TP10*%
X157250000Y-102750000D03*
%TD*%
D29*
%TO.C,R3*%
X112000000Y-84025000D03*
X112000000Y-81975000D03*
%TD*%
D22*
%TO.C,J1*%
X102500000Y-108500000D03*
D23*
X105040000Y-108500000D03*
X107580000Y-108500000D03*
X110120000Y-108500000D03*
X112660000Y-108500000D03*
X115200000Y-108500000D03*
X117740000Y-108500000D03*
X120280000Y-108500000D03*
%TD*%
D30*
%TO.C,C3*%
X123962500Y-97000000D03*
X126037500Y-97000000D03*
%TD*%
D22*
%TO.C,J5*%
X166000000Y-81920000D03*
D23*
X166000000Y-84460000D03*
X166000000Y-87000000D03*
%TD*%
D19*
%TO.C,R5*%
X160500000Y-103000000D03*
X160500000Y-101000000D03*
%TD*%
D14*
%TO.C,TP8_H1*%
X121500000Y-114000000D03*
%TD*%
D17*
%TO.C,C6*%
X120500000Y-95000000D03*
X120500000Y-97075000D03*
%TD*%
D14*
%TO.C,TP4_D1*%
X110500000Y-114000000D03*
%TD*%
D19*
%TO.C,R2*%
X124000000Y-95000000D03*
X124000000Y-93000000D03*
%TD*%
D14*
%TO.C,TP5_E1*%
X113250000Y-114000000D03*
%TD*%
%TO.C,TP6_F1*%
X116000000Y-114000000D03*
%TD*%
%TO.C,TP13*%
X118000000Y-83500000D03*
%TD*%
D22*
%TO.C,J2*%
X165100000Y-106790000D03*
D23*
X165100000Y-104250000D03*
X165100000Y-101710000D03*
X165100000Y-99170000D03*
%TD*%
D17*
%TO.C,C8*%
X157000000Y-91175000D03*
X157000000Y-93250000D03*
%TD*%
D14*
%TO.C,TP11*%
X151000000Y-88750000D03*
%TD*%
D31*
%TO.C,Q1*%
X111950000Y-86500000D03*
X110050000Y-86500000D03*
X111000000Y-88500000D03*
%TD*%
D17*
%TO.C,C7*%
X159500000Y-91175000D03*
X159500000Y-93250000D03*
%TD*%
D22*
%TO.C,J4*%
X104650000Y-86725000D03*
D23*
X104650000Y-89265000D03*
%TD*%
D32*
%TO.C,U1*%
X128500000Y-80460000D03*
X128500000Y-81730000D03*
X128500000Y-83000000D03*
X128500000Y-84270000D03*
X128500000Y-85540000D03*
X128500000Y-86810000D03*
X128500000Y-88080000D03*
X128500000Y-89350000D03*
X128500000Y-90620000D03*
X128500000Y-91890000D03*
X128500000Y-93160000D03*
X128500000Y-94430000D03*
X128500000Y-95700000D03*
X128500000Y-96970000D03*
D33*
X130265000Y-98220000D03*
X131535000Y-98220000D03*
X132805000Y-98220000D03*
X134075000Y-98220000D03*
X135345000Y-98220000D03*
X136615000Y-98220000D03*
X137885000Y-98220000D03*
X139155000Y-98220000D03*
X140425000Y-98220000D03*
X141695000Y-98220000D03*
X142965000Y-98220000D03*
X144235000Y-98220000D03*
D32*
X146000000Y-96970000D03*
X146000000Y-95700000D03*
X146000000Y-94430000D03*
X146000000Y-93160000D03*
X146000000Y-91890000D03*
X146000000Y-90620000D03*
X146000000Y-89350000D03*
X146000000Y-88080000D03*
X146000000Y-86810000D03*
X146000000Y-85540000D03*
X146000000Y-84270000D03*
X146000000Y-83000000D03*
X146000000Y-81730000D03*
X146000000Y-80460000D03*
D34*
X134350000Y-87480000D03*
X134350000Y-88880000D03*
X135050000Y-86780000D03*
X135050000Y-88180000D03*
X135050000Y-89580000D03*
X135750000Y-87480000D03*
D35*
X135750000Y-88180000D03*
D34*
X135750000Y-88880000D03*
X136450000Y-86780000D03*
X136450000Y-88180000D03*
X136450000Y-89580000D03*
X137150000Y-87480000D03*
X137150000Y-88880000D03*
%TD*%
D25*
%TO.C,C5*%
X104500000Y-80500000D03*
X102425000Y-80500000D03*
%TD*%
D14*
%TO.C,TP1_A1*%
X102250000Y-114000000D03*
%TD*%
%LPD*%
M02*
